<svg xmlns="http://www.w3.org/2000/svg" version="1.1" xmlns:xlink="http://www.w3.org/1999/xlink"
     xmlns:svgjs="http://svgjs.dev/svgjs" viewBox="0 0 800 800">
  <defs>
    <filter id="bbburst-blur-1" x="-100%" y="-100%" width="400%" height="400%">
      <feGaussianBlur in="SourceGraphic" stdDeviation="1"></feGaussianBlur>
    </filter>
    <filter id="bbburst-blur-2" x="-100%" y="-100%" width="400%" height="400%">
      <feGaussianBlur in="SourceGraphic" stdDeviation="2"></feGaussianBlur>
    </filter>
    <filter id="bbburst-blur-3" x="-100%" y="-100%" width="400%" height="400%">
      <feGaussianBlur in="SourceGraphic" stdDeviation="4"></feGaussianBlur>
    </filter>
    <filter id="bbburst-blur-4" x="-100%" y="-100%" width="400%" height="400%">
      <feGaussianBlur in="SourceGraphic" stdDeviation="12"></feGaussianBlur>
    </filter>
    <!--    б-->
    <symbol id="bbburst-shape-1" viewBox="0 0 130 216">
      <path d="M103.372 137.474C103.372 99.1093 90.717 79.9268 65.4068 79.9268C40.1854 79.9268 27.5748 99.1093 27.5748 137.474C27.5748 156.39 30.7718 170.733 37.166 180.501C43.5601 190.181 52.9737 195.021 65.4068 195.021C90.717 195.021 103.372 175.839 103.372 137.474ZM21.3138 75.5308C31.9707 64.6075 47.1568 59.1458 66.8721 59.1458C86.5874 59.1458 101.907 65.8508 112.83 79.2608C123.842 92.6707 129.348 112.12 129.348 137.607C129.348 163.006 123.887 182.411 112.963 195.821C102.04 209.142 86.1878 215.802 65.4068 215.802C44.7146 215.802 28.7737 209.009 17.5839 195.421C6.48295 181.745 1.1545 162.429 1.59854 137.474C1.68734 133.478 1.68734 130.725 1.59854 129.215L0.666057 106.969C0.222019 96.4006 0 89.296 0 85.6549C0 82.0138 0.0888076 79.5272 0.266423 78.1951C2.04257 64.9627 4.52919 55.1051 7.72626 48.6221C15.8078 32.1927 27.2639 20.2037 42.0948 12.6551C53.4622 6.88259 71.7565 3.4635 96.9779 2.3978C101.507 2.22019 105.326 1.42092 108.434 0L117.759 18.916C114.651 20.0705 110.832 20.8698 106.303 21.3138L74.332 24.5109C65.6288 25.399 57.9914 27.7524 51.4196 31.5711C33.9245 41.8728 24.2445 53.8618 22.3795 67.5382L21.3138 75.5308Z" fill="#00A19D"/>
    </symbol>
    <!--    и-->
    <symbol id="bbburst-shape-2" viewBox="0 0 114 150">
      <path d="M89.3848 41.4287L24.5109 149.197H0V0H24.5109V107.768L89.3848 0H113.896V149.197H89.3848V41.4287Z" fill="#2C2891"/>
    </symbol>
    <!--    ч-->
    <symbol id="bbburst-shape-3" viewBox="0 0 115 150">
      <path d="M0 48.8886V0H24.5109V48.8886C24.5109 57.7693 26.8643 64.2967 31.5711 68.4706C36.3667 72.5558 43.6489 74.5984 53.4178 74.5984C61.2328 74.5984 67.6714 74.1543 72.7334 73.2663C77.7955 72.3782 83.3903 70.2024 89.5181 66.7389V0H114.029V149.463H89.5181V87.3867C84.8113 89.2516 79.3496 91.161 73.1331 93.1148C66.9165 94.9797 57.6361 95.9122 45.2919 95.9122C32.8588 95.9122 22.2019 92.3155 13.3211 85.1221C4.44038 77.8398 0 65.762 0 48.8886Z" fill="#FFA6D5"/>
    </symbol>
    <!--    э-->
    <symbol id="bbburst-shape-4" viewBox="0 0 116 157">
      <path d="M0 145.2V119.757C5.77249 125.263 12.0334 129.348 18.7828 132.012C25.5322 134.588 33.1696 135.876 41.6952 135.876C56.9701 135.876 68.7815 130.858 77.1294 120.823C84.5004 111.942 88.5856 99.6865 89.3849 84.0564H17.1843V64.8739H88.7188C87.1203 52.7073 83.2571 42.9829 77.1294 35.7006C68.7815 25.7542 56.9701 20.781 41.6952 20.781C33.4361 20.781 26.0206 22.0687 19.4489 24.6441C12.9659 27.2195 6.48296 31.3935 0 37.166V11.4562C6.92699 7.54864 13.8096 4.6624 20.6478 2.79744C27.486 0.93248 34.5018 0 41.6952 0C64.7852 0 82.8131 6.92699 95.779 20.781C108.834 34.635 115.361 53.8174 115.361 78.3283C115.361 102.839 108.834 122.022 95.779 135.876C82.8131 149.73 64.7852 156.657 41.6952 156.657C34.4129 156.657 27.2639 155.68 20.2481 153.726C13.3211 151.861 6.57176 149.019 0 145.2Z" fill="#00A19D"/>
    </symbol>
    <!--    э-->
    <symbol id="bbburst-shape-5" viewBox="0 0 116 157">
      <path d="M0 145.2V119.757C5.77249 125.263 12.0334 129.348 18.7828 132.012C25.5322 134.588 33.1696 135.876 41.6952 135.876C56.9701 135.876 68.7815 130.858 77.1294 120.823C84.5004 111.942 88.5856 99.6865 89.3849 84.0564H17.1843V64.8739H88.7188C87.1203 52.7073 83.2571 42.9829 77.1294 35.7006C68.7815 25.7542 56.9701 20.781 41.6952 20.781C33.4361 20.781 26.0206 22.0687 19.4489 24.6441C12.9659 27.2195 6.48296 31.3935 0 37.166V11.4562C6.92699 7.54864 13.8096 4.6624 20.6478 2.79744C27.486 0.93248 34.5018 0 41.6952 0C64.7852 0 82.8131 6.92699 95.779 20.781C108.834 34.635 115.361 53.8174 115.361 78.3283C115.361 102.839 108.834 122.022 95.779 135.876C82.8131 149.73 64.7852 156.657 41.6952 156.657C34.4129 156.657 27.2639 155.68 20.2481 153.726C13.3211 151.861 6.57176 149.019 0 145.2Z" fill="#7027A0"/>
    </symbol>
    <!--    ч-->
    <symbol id="bbburst-shape-6" viewBox="0 0 115 150">
      <path d="M0 48.8886V0H24.5109V48.8886C24.5109 57.7693 26.8643 64.2967 31.5711 68.4706C36.3667 72.5558 43.6489 74.5984 53.4178 74.5984C61.2328 74.5984 67.6714 74.1543 72.7334 73.2663C77.7955 72.3782 83.3903 70.2024 89.5181 66.7389V0H114.029V149.463H89.5181V87.3867C84.8113 89.2516 79.3496 91.161 73.1331 93.1148C66.9165 94.9797 57.6361 95.9122 45.2919 95.9122C32.8588 95.9122 22.2019 92.3155 13.3211 85.1221C4.44038 77.8398 0 65.762 0 48.8886Z" fill="#C1FFD7"/>
    </symbol>
    <!--    b-->
    <symbol id="bbburst-shape-7" viewBox="0 0 123 212">
      <path d="M96.5783 132.812C96.5783 113.807 93.5588 99.4645 87.5199 89.7845C81.481 80.1044 72.5558 75.2644 60.7444 75.2644C48.8442 75.2644 39.8302 80.1488 33.7025 89.9177C27.5748 99.5977 24.5109 113.896 24.5109 132.812C24.5109 151.639 27.5748 165.937 33.7025 175.706C39.8302 185.475 48.8442 190.359 60.7444 190.359C72.5558 190.359 81.481 185.519 87.5199 175.839C93.5588 166.159 96.5783 151.817 96.5783 132.812ZM24.5109 77.1294C28.4184 69.8472 33.7913 64.2523 40.6295 60.3448C47.5565 56.4372 55.5492 54.4835 64.6075 54.4835C82.5467 54.4835 96.6671 61.4104 106.969 75.2644C117.27 89.0296 122.421 108.034 122.421 132.279C122.421 156.879 117.226 176.194 106.836 190.226C96.5339 204.169 82.369 211.14 64.3411 211.14C55.4603 211.14 47.6009 209.231 40.7627 205.412C34.0133 201.504 28.596 195.865 24.5109 188.494V207.277H0V0H24.5109V77.1294Z" fill="#FF5C58"/>
    </symbol>
    <!--    i-->
    <symbol id="bbburst-shape-8" viewBox="0 0 122 207">
      <path d="M10.3905 57.9469H73.1331V187.562H121.755V206.611H0V187.562H48.6222V76.9962H10.3905V57.9469ZM48.6222 0H73.1331V30.905H48.6222V0Z" fill="#FFBD9B"/>
    </symbol>
    <!--    c-->
    <symbol id="bbburst-shape-9" viewBox="0 0 116 157">
      <path d="M115.361 145.2C108.789 149.019 101.996 151.861 94.9797 153.726C88.0527 155.68 80.9481 156.657 73.6659 156.657C50.5759 156.657 32.5036 149.73 19.4489 135.876C6.48296 122.022 0 102.839 0 78.3283C0 53.8174 6.48296 34.635 19.4489 20.781C32.5036 6.92699 50.5759 0 73.6659 0C80.8593 0 87.8751 0.93248 94.7133 2.79744C101.552 4.6624 108.434 7.54864 115.361 11.4562V37.166C108.878 31.3935 102.351 27.2195 95.779 24.6441C89.2961 22.0687 81.925 20.781 73.6659 20.781C58.3022 20.781 46.4908 25.7542 38.2317 35.7006C29.9726 45.6471 25.843 59.8563 25.843 78.3283C25.843 96.7115 29.9726 110.921 38.2317 120.956C46.5796 130.902 58.391 135.876 73.6659 135.876C82.1914 135.876 89.8289 134.588 96.5783 132.012C103.328 129.348 109.589 125.263 115.361 119.757V145.2Z" fill="#00A19D"/>
    </symbol>
    <!--    h-->
    <symbol id="bbburst-shape-10" viewBox="0 0 115 208">
      <path d="M114.029 114.828V207.277H89.3848V114.828C89.3848 101.418 87.0314 91.5606 82.3246 85.2553C77.6178 78.9499 70.2468 75.7973 60.2115 75.7973C48.7554 75.7973 39.919 79.8824 33.7025 88.0527C27.5748 96.1342 24.5109 107.768 24.5109 122.954V207.277H0V0H24.5109V80.4597C28.8625 71.9341 34.7682 65.4956 42.228 61.144C49.6878 56.7036 58.5242 54.4834 68.7371 54.4834C83.9232 54.4834 95.2461 59.5011 102.706 69.5363C110.255 79.4828 114.029 94.5801 114.029 114.828Z" fill="#FF0075"/>
    </symbol>
    <!--    e-->
    <symbol id="bbburst-shape-11" viewBox="0 0 133 157">
      <path d="M132.812 65.9396V77.9286H26.6423V78.7279C25.9318 99.0649 29.7949 113.674 38.2317 122.554C46.7572 131.435 58.7462 135.876 74.1987 135.876C82.0138 135.876 90.1841 134.632 98.7096 132.146C107.235 129.659 116.338 125.885 126.018 120.823V145.2C116.693 149.019 107.679 151.861 98.9761 153.726C90.3617 155.68 82.0138 156.657 73.9323 156.657C50.7535 156.657 32.6368 149.73 19.5821 135.876C6.52736 121.933 0 102.75 0 78.3283C0 54.5279 6.39415 35.523 19.1824 21.3138C31.9707 7.10461 49.0218 0 70.3356 0C89.3404 0 104.305 6.43855 115.228 19.3156C126.24 32.1927 132.101 47.7341 132.812 65.9396ZM108.301 58.7462C107.235 48.4445 103.461 39.5638 96.9779 32.1039C90.5837 24.5553 81.3478 20.781 69.2699 20.781C57.4585 20.781 47.7341 24.6885 40.0966 32.5036C32.4592 40.3186 28.2852 49.1106 27.5748 58.8794L108.301 58.7462Z" fill="#C1FFD7"/>
    </symbol>
    <!--    ч-->
    <symbol id="bbburst-shape-12" viewBox="0 0 115 150">
      <path d="M0 48.8886V0H24.5109V48.8886C24.5109 57.7693 26.8643 64.2967 31.5711 68.4706C36.3667 72.5558 43.6489 74.5984 53.4178 74.5984C61.2328 74.5984 67.6714 74.1543 72.7334 73.2663C77.7955 72.3782 83.3903 70.2024 89.5181 66.7389V0H114.029V149.463H89.5181V87.3867C84.8113 89.2516 79.3496 91.161 73.1331 93.1148C66.9165 94.9797 57.6361 95.9122 45.2919 95.9122C32.8588 95.9122 22.2019 92.3155 13.3211 85.1221C4.44038 77.8398 0 65.762 0 48.8886Z" fill="#7027A0"/>
    </symbol>
    <!--    c-->
    <symbol id="bbburst-shape-13" viewBox="0 0 116 157">
      <path d="M115.361 145.2C108.789 149.019 101.996 151.861 94.9797 153.726C88.0527 155.68 80.9481 156.657 73.6659 156.657C50.5759 156.657 32.5036 149.73 19.4489 135.876C6.48296 122.022 0 102.839 0 78.3283C0 53.8174 6.48296 34.635 19.4489 20.781C32.5036 6.92699 50.5759 0 73.6659 0C80.8593 0 87.8751 0.93248 94.7133 2.79744C101.552 4.6624 108.434 7.54864 115.361 11.4562V37.166C108.878 31.3935 102.351 27.2195 95.779 24.6441C89.2961 22.0687 81.925 20.781 73.6659 20.781C58.3022 20.781 46.4908 25.7542 38.2317 35.7006C29.9726 45.6471 25.843 59.8563 25.843 78.3283C25.843 96.7115 29.9726 110.921 38.2317 120.956C46.5796 130.902 58.391 135.876 73.6659 135.876C82.1914 135.876 89.8289 134.588 96.5783 132.012C103.328 129.348 109.589 125.263 115.361 119.757V145.2Z" fill="#3DB2FF"/>
    </symbol>
    <!--    h-->
    <symbol id="bbburst-shape-14" viewBox="0 0 115 208">
      <path d="M114.029 114.828V207.277H89.3848V114.828C89.3848 101.418 87.0314 91.5606 82.3246 85.2553C77.6178 78.9499 70.2468 75.7973 60.2115 75.7973C48.7554 75.7973 39.919 79.8824 33.7025 88.0527C27.5748 96.1342 24.5109 107.768 24.5109 122.954V207.277H0V0H24.5109V80.4597C28.8625 71.9341 34.7682 65.4956 42.228 61.144C49.6878 56.7036 58.5242 54.4834 68.7371 54.4834C83.9232 54.4834 95.2461 59.5011 102.706 69.5363C110.255 79.4828 114.029 94.5801 114.029 114.828Z" fill="#FFC069"/>
    </symbol>
  </defs>
  <use xlink:href="#bbburst-shape-11" width="9.589462089930104" opacity="0.7698647668401645"
       transform="matrix(0.8221793404271692,0.5692285412510031,-0.5692285412510031,0.8221793404271692,707.1381500417899,6.792274927494816)"
       fill="none" stroke="#00a19d" filter="url(#bbburst-blur-1)"></use>
  <use xlink:href="#bbburst-shape-6" width="7.648961636383282" opacity="0.8390580475071044"
       transform="matrix(0.9011822168027693,0.433440436644352,-0.433440436644352,0.9011822168027693,497.51022045966556,38.678435790052276)"
       fill="#ffbd9b"></use>
  <use xlink:href="#bbburst-shape-9" width="7.264421091815099" opacity="0.89621763114236"
       transform="matrix(0.9851691507560331,0.1715859679537831,-0.1715859679537831,0.9851691507560331,424.2351017990477,27.933456851475228)"
       fill="none" stroke="#2c2891"></use>
  <use xlink:href="#bbburst-shape-3" width="10.184166994889946" opacity="0.7790832158717583"
       transform="matrix(0.854409415019049,0.5196003767577603,-0.5196003767577603,0.854409415019049,561.9856266347044,-34.77940342067512)"
       fill="#ffa6d5"></use>
  <use xlink:href="#bbburst-shape-11" width="10.909441411092951" opacity="0.7060647139956229"
       transform="matrix(0.9792501160333917,0.20265539777807257,-0.20265539777807257,0.9792501160333917,565.6645782523526,-89.95240072726779)"
       fill="none" stroke="#ffbd9b" filter="url(#bbburst-blur-1)"></use>
  <use xlink:href="#bbburst-shape-9" width="26.28061728686542" opacity="0.44999340043303804"
       transform="matrix(0.9180281898448646,0.39651512285177887,-0.39651512285177887,0.9180281898448646,481.8689033964881,266.30047623985587)"
       fill="none" stroke="#ffbd9b" filter="url(#bbburst-blur-2)"></use>
  <use xlink:href="#bbburst-shape-3" width="4.340473101013209" opacity="0.9525025210526815"
       transform="matrix(0.7292281442636676,0.6842706435422812,-0.6842706435422812,0.7292281442636676,652.6487029503089,115.6419129422037)"
       fill="#00a19d"></use>
  <use xlink:href="#bbburst-shape-9" width="20.703876976467175" opacity="0.4516519920849511"
       transform="matrix(0.7732358140066218,0.6341185819210133,-0.6341185819210133,0.7732358140066218,434.2318094864268,-43.07571872430691)"
       fill="none" stroke="#00a19d" filter="url(#bbburst-blur-2)"></use>
  <use xlink:href="#bbburst-shape-13" width="12.718661718024185" opacity="0.7460834847404534"
       transform="matrix(0.8799754987828162,-0.47501907492429585,0.47501907492429585,0.8799754987828162,247.19565494623794,156.97455276246814)"
       fill="none" stroke="#ffbd9b" filter="url(#bbburst-blur-1)"></use>
  <use xlink:href="#bbburst-shape-13" width="5.753503708794189" opacity="0.8765717883483728"
       transform="matrix(0.902190825241538,-0.43133712435865357,0.43133712435865357,0.902190825241538,217.53139269261328,-14.69126335857851)"
       fill="none" stroke="#00a19d"></use>
  <use xlink:href="#bbburst-shape-9" width="27.690407766179423" opacity="0.4481527665355052"
       transform="matrix(0.9427168050070526,-0.3335941030013793,0.3335941030013793,0.9427168050070526,483.12122845431304,-67.08244871359597)"
       fill="none" stroke="#ffa6d5" filter="url(#bbburst-blur-2)"></use>
  <use xlink:href="#bbburst-shape-1" width="7.172078027484205" opacity="0.8994357924603256"
       transform="matrix(0.9192594178582777,-0.39365228651547346,0.39365228651547346,0.9192594178582777,277.62970342093087,9.745077954803719)"
       fill="#ffbd9b"></use>
  <use xlink:href="#bbburst-shape-5" width="21.28908306843711" opacity="0.5060629568163253"
       transform="matrix(0.929757052787984,-0.3681736313086555,0.3681736313086555,0.929757052787984,449.25299713567205,114.4526791030641)"
       fill="#ffa6d5" filter="url(#bbburst-blur-2)"></use>
  <use xlink:href="#bbburst-shape-9" width="18.139614505993116" opacity="0.5869185778604735"
       transform="matrix(0.8392354187659392,-0.5437682520051706,0.5437682520051706,0.8392354187659392,53.75153044183932,-71.9237500507532)"
       fill="none" stroke="#ff5c58" filter="url(#bbburst-blur-1)"></use>
  <use xlink:href="#bbburst-shape-14" width="13.89686939588129" opacity="0.6614185158600026"
       transform="matrix(0.8156814422744934,-0.5785013264712557,0.5785013264712557,0.8156814422744934,25.5629218940189,11.876940563064238)"
       fill="none" stroke="#00a19d" filter="url(#bbburst-blur-1)"></use>
  <use xlink:href="#bbburst-shape-11" width="22.866497292760037" opacity="0.16326386175872964"
       transform="matrix(0.9791702288737998,0.776997852562818,-0.776997852562818,0.9791702288737998,326.6981760762137,49.619543107808454)"
       fill="none" stroke="#ffa6d5" filter="url(#bbburst-blur-3)"></use>
  <use xlink:href="#bbburst-shape-4" width="29.601715153654105" opacity="0.3051545197376888"
       transform="matrix(1.2441551530101236,-0.12073920340285513,0.12073920340285513,1.2441551530101236,257.8311852907225,207.59637789449437)"
       fill="#ffa6d5" filter="url(#bbburst-blur-3)"></use>
  <use xlink:href="#bbburst-shape-8" width="26.72191150752345" opacity="0.14941997695592069"
       transform="matrix(1.2214265419291601,0.26573897469316365,-0.26573897469316365,1.2214265419291601,862.8971739297378,-5.889382385416297)"
       fill="none" stroke="#ffa6d5" filter="url(#bbburst-blur-3)"></use>
  <use xlink:href="#bbburst-shape-13" width="9.65166403542678" opacity="0.7570720760880846"
       transform="matrix(0.778301989942692,-0.6278901276905426,0.6278901276905426,0.778301989942692,35.77347234129928,92.5248843413388)"
       fill="none" stroke="#ffa6d5" filter="url(#bbburst-blur-1)"></use>
  <use xlink:href="#bbburst-shape-6" width="37.79770201971077" opacity="0.008485844153045319"
       transform="matrix(1.2461487675366494,-1.228663195984518,1.228663195984518,1.2461487675366494,-467.4885633011234,198.33140537744902)"
       fill="#00a19d" filter="url(#bbburst-blur-4)"></use>
  <use xlink:href="#bbburst-shape-3" width="16.7409105815482" opacity="0.4561234832488401"
       transform="matrix(0.8954847187685384,0.4450922583600299,-0.4450922583600299,0.8954847187685384,328.59722338941367,75.34264126246114)"
       fill="#2c2891" filter="url(#bbburst-blur-2)"></use>
  <use xlink:href="#bbburst-shape-12" width="16.426515865072403" opacity="0.5437000755995336"
       transform="matrix(0.8771660208666169,-0.48018722581616635,0.48018722581616635,0.8771660208666169,265.02078215617905,-141.95146459371372)"
       fill="none" stroke="#00a19d" filter="url(#bbburst-blur-2)"></use>
  <use xlink:href="#bbburst-shape-3" width="29.23501666166365" opacity="-0.1128012000832086"
       transform="matrix(1.315837961900408,1.1537202685321,-1.1537202685321,1.315837961900408,1190.695224191475,216.18149170377478)"
       fill="#ff5c58" filter="url(#bbburst-blur-4)"></use>
  <use xlink:href="#bbburst-shape-9" width="19.4124846622504" opacity="0.5605890901602963"
       transform="matrix(0.8447527864751784,0.535156733810219,-0.535156733810219,0.8447527864751784,703.4163103768816,228.8293420204467)"
       fill="none" stroke="#ffa6d5" filter="url(#bbburst-blur-1)"></use>
  <use xlink:href="#bbburst-shape-5" width="6.903753021766687" opacity="0.8185848785910095"
       transform="matrix(0.9725610901109932,-0.23264764344844852,0.23264764344844852,0.9725610901109932,321.4147313379179,-67.88707430188816)"
       fill="#2c2891"></use>
  <use xlink:href="#bbburst-shape-14" width="14.802490574480391" opacity="0.6277147411899248"
       transform="matrix(0.758127708081201,-0.6521061096474602,0.6521061096474602,0.758127708081201,-28.36719171473689,58.6312301185086)"
       fill="none" stroke="#ffa6d5" filter="url(#bbburst-blur-1)"></use>
  <use xlink:href="#bbburst-shape-2" width="23.165637382720966" opacity="0.5093940856749033"
       transform="matrix(0.9998997408292881,-0.014160094968691537,0.014160094968691537,0.9998997408292881,196.9252635270922,119.41338676854002)"
       fill="#ffbd9b" filter="url(#bbburst-blur-2)"></use>
  <use xlink:href="#bbburst-shape-3" width="26.678004391929974" opacity="0.29576208865635223"
       transform="matrix(1.1797134969318361,-0.41325060817482,0.41325060817482,1.1797134969318361,22.73615021990915,182.61082601530563)"
       fill="#00a19d" filter="url(#bbburst-blur-3)"></use>
  <use xlink:href="#bbburst-shape-4" width="9.162799160659555" opacity="0.7770359784341941"
       transform="matrix(0.7931570169021688,0.6090171972439307,-0.6090171972439307,0.7931570169021688,622.208249364129,-18.79586861636244)"
       fill="#2c2891" filter="url(#bbburst-blur-1)"></use>
  <use xlink:href="#bbburst-shape-7" width="6.270240663741351" opacity="0.8646027105412821"
       transform="matrix(0.8197622233883163,-0.5727040222535933,0.5727040222535933,0.8197622233883163,109.80430310764262,90.84899463509021)"
       fill="#ff5c58"></use>
  <use xlink:href="#bbburst-shape-5" width="4.874834075193684" opacity="0.9438696179276111"
       transform="matrix(0.9982824271316293,-0.05858494414252949,0.05858494414252949,0.9982824271316293,349.751787027087,-5.770706217230611)"
       fill="#00a19d"></use>
  <use xlink:href="#bbburst-shape-14" width="27.33005487415715" opacity="0.38663380399256797"
       transform="matrix(0.8447773521786439,-0.5351179545166088,0.5351179545166088,0.8447773521786439,445.2032522881417,15.904355959517716)"
       fill="none" stroke="#00a19d" filter="url(#bbburst-blur-2)"></use>
  <use xlink:href="#bbburst-shape-7" width="8.856558049176153" opacity="0.7492442190311124"
       transform="matrix(0.9847509068837397,0.17397026007813,-0.17397026007813,0.9847509068837397,577.8468763414236,11.863302858902955)"
       fill="#2c2891" filter="url(#bbburst-blur-1)"></use>
  <use xlink:href="#bbburst-shape-9" width="9.721272552727898" opacity="0.7780225674312972"
       transform="matrix(0.8345642602144283,0.5509106057907617,-0.5509106057907617,0.8345642602144283,712.1212033817508,91.80866058537589)"
       fill="none" stroke="#ffa6d5"></use>
  <use xlink:href="#bbburst-shape-1" width="6.718481762485899" opacity="0.8456054028326163"
       transform="matrix(0.7123718007737194,0.701802263791168,-0.701802263791168,0.7123718007737194,660.54497025902,179.86478130827498)"
       fill="#ffa6d5"></use>
  <use xlink:href="#bbburst-shape-14" width="8.384492756756423" opacity="0.7844773143443571"
       transform="matrix(0.8297835544628459,0.5580853453935206,-0.5580853453935206,0.8297835544628459,532.7088549493457,22.976490720881316)"
       fill="none" stroke="#ffa6d5"></use>
  <use xlink:href="#bbburst-shape-4" width="6.362826832181794" opacity="0.8954729789225527"
       transform="matrix(0.8655305343437033,0.5008561611068625,-0.5008561611068625,0.8655305343437033,608.6065232287707,6.471450659586026)"
       fill="#ffa6d5"></use>
  <use xlink:href="#bbburst-shape-4" width="20.165349252012614" opacity="0.43918101978366275"
       transform="matrix(0.7714281531993056,0.6363164342145413,-0.6363164342145413,0.7714281531993056,608.0022461318638,-164.35116865619332)"
       fill="#ff5c58" filter="url(#bbburst-blur-2)"></use>
  <use xlink:href="#bbburst-shape-12" width="9.761180368287139" opacity="0.7132207084814333"
       transform="matrix(0.9984457983659051,-0.0557313890502505,0.0557313890502505,0.9984457983659051,409.8161924603859,-122.7619729578903)"
       fill="none" stroke="#00a19d" filter="url(#bbburst-blur-1)"></use>
  <use xlink:href="#bbburst-shape-7" width="6.154089788911531" opacity="0.9533536941459245"
       transform="matrix(0.8519009931467362,-0.5237028717465702,0.5237028717465702,0.8519009931467362,202.06298836624856,45.3885947962014)"
       fill="#00a19d"></use>
  <use xlink:href="#bbburst-shape-3" width="7.854942551683591" opacity="0.9125799013227737"
       transform="matrix(0.8352613028297798,-0.5498532131351956,0.5498532131351956,0.8352613028297798,182.15561704683805,107.03781981172511)"
       fill="#00a19d"></use>
  <use xlink:href="#bbburst-shape-9" width="25.555824431774578" opacity="0.3114655932476751"
       transform="matrix(1.2219655313349034,-0.26324938789939784,0.26324938789939784,1.2219655313349034,239.60617147231451,-392.9536929914185)"
       fill="none" stroke="#00a19d" filter="url(#bbburst-blur-3)"></use>
  <use xlink:href="#bbburst-shape-8" width="32.39870200879487" opacity="0.25312268210056943"
       transform="matrix(1.1236088081378428,-0.5477255209272768,0.5477255209272768,1.1236088081378428,-57.637089286708346,-294.35749755334683)"
       fill="none" stroke="#ffa6d5" filter="url(#bbburst-blur-3)"></use>
  <use xlink:href="#bbburst-shape-11" width="24.498547794547974" opacity="0.2112474852435855"
       transform="matrix(0.9710256506312429,0.7871525810261766,-0.7871525810261766,0.9710256506312429,724.6388139049477,-352.65033839153386)"
       fill="none" stroke="#ffa6d5" filter="url(#bbburst-blur-3)"></use>
  <use xlink:href="#bbburst-shape-9" width="16.673696387367922" opacity="0.6617627317483425"
       transform="matrix(0.8514861720159005,-0.5243770579132047,0.5243770579132047,0.8514861720159005,273.2673421111449,186.29968197091944)"
       fill="none" stroke="#ffa6d5" filter="url(#bbburst-blur-1)"></use>
  <use xlink:href="#bbburst-shape-9" width="9.58197151523147" opacity="0.8182103903471494"
       transform="matrix(0.9513857256237787,-0.3080019497979131,0.3080019497979131,0.9513857256237787,210.7613741933722,74.84872668048422)"
       fill="none" stroke="#00a19d"></use>
  <use xlink:href="#bbburst-shape-13" width="34.0471765381014" opacity="0.19935678579413318"
       transform="matrix(0.9265392783789552,-0.8390619557702548,0.8390619557702548,0.9265392783789552,-111.5664150460702,366.39791410016375)"
       fill="none" stroke="#2c2891" filter="url(#bbburst-blur-3)"></use>
  <use xlink:href="#bbburst-shape-4" width="5.7734843049601965" opacity="0.8930523519105498"
       transform="matrix(0.9226215576754367,0.3857064444788949,-0.3857064444788949,0.9226215576754367,598.7965334700599,20.342114419648624)"
       fill="#2c2891"></use>
  <use xlink:href="#bbburst-shape-13" width="24.61245833458872" opacity="0.1426738718503019"
       transform="matrix(1.150875251093505,0.48783824821395655,-0.48783824821395655,1.150875251093505,678.5058717449839,-439.6180084282961)"
       fill="none" stroke="#2c2891" filter="url(#bbburst-blur-3)"></use>
  <use xlink:href="#bbburst-shape-7" width="9.613634041577393" opacity="0.7170530559581436"
       transform="matrix(0.8595683009439914,0.5110208762978866,-0.5110208762978866,0.8595683009439914,726.4102848894041,36.51564971413336)"
       fill="#ff5c58" filter="url(#bbburst-blur-1)"></use>
  <use xlink:href="#bbburst-shape-4" width="22.63386809699426" opacity="0.09828625135521807"
       transform="matrix(1.3858102606386506,1.068658000254822,-1.068658000254822,1.3858102606386506,648.6500368800575,-537.9350735095742)"
       fill="#00a19d" filter="url(#bbburst-blur-4)"></use>
  <use xlink:href="#bbburst-shape-8" width="11.426679256560936" opacity="0.6961943956889988"
       transform="matrix(0.9341374976660688,-0.35691334446077433,0.35691334446077433,0.9341374976660688,379.2506785502146,-21.330102424552592)"
       fill="none" stroke="#ffa6d5" filter="url(#bbburst-blur-1)"></use>
  <use xlink:href="#bbburst-shape-2" width="8.563152455332302" opacity="0.7780631582772745"
       transform="matrix(0.9686206299813498,-0.2485439099526141,0.2485439099526141,0.9686206299813498,360.9328064206062,-62.6329946953785)"
       fill="#ffa6d5"></use>
  <use xlink:href="#bbburst-shape-11" width="14.266378873389922" opacity="0.6435181704082149"
       transform="matrix(0.8278471857255137,0.5609536853309253,-0.5609536853309253,0.8278471857255137,494.99842634072377,-37.57296010221046)"
       fill="none" stroke="#ff5c58" filter="url(#bbburst-blur-1)"></use>
  <use xlink:href="#bbburst-shape-2" width="7.780013098772477" opacity="0.8217684726764671"
       transform="matrix(0.9453215740641253,0.3261397271246243,-0.3261397271246243,0.9453215740641253,540.9363298703632,99.55088978793395)"
       fill="#ffa6d5"></use>
  <use xlink:href="#bbburst-shape-2" width="9.327059174952385" opacity="0.8244112808187924"
       transform="matrix(0.9947813455983511,0.10202977236833403,-0.10202977236833403,0.9947813455983511,362.90433732712904,31.199642112949334)"
       fill="#00a19d"></use>
  <use xlink:href="#bbburst-shape-11" width="19.892677733461287" opacity="0.4765975326746261"
       transform="matrix(0.9487351217542089,-0.3160722524202754,0.3160722524202754,0.9487351217542089,130.7647816696068,217.59452382104246)"
       fill="none" stroke="#00a19d" filter="url(#bbburst-blur-2)"></use>
  <use xlink:href="#bbburst-shape-12" width="17.673077516454015" opacity="0.44897313595273924"
       transform="matrix(0.9935025519001106,0.1138098386255249,-0.1138098386255249,0.9935025519001106,499.5501719452334,-238.3158699534668)"
       fill="none" stroke="#ffa6d5" filter="url(#bbburst-blur-2)"></use>
  <use xlink:href="#bbburst-shape-1" width="8.315284968910465" opacity="0.8643189819607809"
       transform="matrix(0.8198374509361598,-0.5725963273044106,0.5725963273044106,0.8198374509361598,223.60872281232776,50.240372275583184)"
       fill="#2c2891"></use>
  <use xlink:href="#bbburst-shape-9" width="10.765681195908995" opacity="0.8018220652043204"
       transform="matrix(0.9731674801089009,-0.23009792623683514,0.23009792623683514,0.9731674801089009,289.6544419099012,100.12085746375112)"
       fill="none" stroke="#2c2891"></use>
  <use xlink:href="#bbburst-shape-5" width="17.74191435973093" opacity="0.5952931440368409"
       transform="matrix(0.7270288561296541,-0.68660690526298,0.68660690526298,0.7270288561296541,138.4002558469008,-65.79260975126036)"
       fill="#00a19d" filter="url(#bbburst-blur-1)"></use>
  <use xlink:href="#bbburst-shape-6" width="8.331891136643623" opacity="0.79418860551855"
       transform="matrix(0.9763366694510622,0.216256116411091,-0.216256116411091,0.9763366694510622,485.23255457609457,-84.00835743660423)"
       fill="#00a19d"></use>
  <use xlink:href="#bbburst-shape-6" width="26.019362573335222" opacity="0.0398177211692925"
       transform="matrix(1.4556505440712173,0.9713812297677824,-0.9713812297677824,1.4556505440712173,546.4608106215842,175.09910718876847)"
       fill="#2c2891" filter="url(#bbburst-blur-4)"></use>
  <use xlink:href="#bbburst-shape-13" width="7.916775878482216" opacity="0.8348958882479581"
       transform="matrix(0.7686222714663029,-0.639702902765011,0.639702902765011,0.7686222714663029,213.91533554502837,80.43741321985965)"
       fill="none" stroke="#2c2891"></use>
  <use xlink:href="#bbburst-shape-9" width="27.716484643095214" opacity="0.25204254766000456"
       transform="matrix(1.2476390288587962,-0.07679097387245284,0.07679097387245284,1.2476390288587962,564.5419922628532,162.74237878829848)"
       fill="none" stroke="#ff5c58" filter="url(#bbburst-blur-3)"></use>
  <use xlink:href="#bbburst-shape-8" width="10.921169536135814" opacity="0.7176036583678433"
       transform="matrix(0.9836572262674796,0.1800512738410043,-0.1800512738410043,0.9836572262674796,377.8628124756593,-85.36304090270056)"
       fill="none" stroke="#ffa6d5" filter="url(#bbburst-blur-1)"></use>
  <use xlink:href="#bbburst-shape-9" width="7.839342532773966" opacity="0.8757502564894544"
       transform="matrix(0.7591060802274238,-0.6509669415275681,0.6509669415275681,0.7591060802274238,176.74885260704798,137.78606901312924)"
       fill="none" stroke="#ffa6d5"></use>
  <use xlink:href="#bbburst-shape-13" width="12.268766492281493" opacity="0.6737545968264227"
       transform="matrix(0.757165591854523,-0.6532229837594432,0.6532229837594432,0.757165591854523,149.20670607704454,-44.886716896572864)"
       fill="none" stroke="#00a19d" filter="url(#bbburst-blur-1)"></use>
  <use xlink:href="#bbburst-shape-7" width="36.6135651391834" opacity="-0.10675965735043214"
       transform="matrix(1.7477780591696543,0.08815813000033414,-0.08815813000033414,1.7477780591696543,58.27105983490287,58.65971950959704)"
       fill="#ff5c58" filter="url(#bbburst-blur-4)"></use>
  <use xlink:href="#bbburst-shape-8" width="22.69287939494289" opacity="0.5129982515886067"
       transform="matrix(0.8801620705748003,0.47467328713703716,-0.47467328713703716,0.8801620705748003,584.6927672795811,-176.54867615767816)"
       fill="none" stroke="#ffa6d5" filter="url(#bbburst-blur-2)"></use>
  <use xlink:href="#bbburst-shape-6" width="11.273431074640278" opacity="0.7418938823802872"
       transform="matrix(0.9924008862891074,0.1230466614443242,-0.1230466614443242,0.9924008862891074,501.22086554191225,-98.51504457813655)"
       fill="#ffbd9b" filter="url(#bbburst-blur-1)"></use>
  <use xlink:href="#bbburst-shape-5" width="7.618328591305442" opacity="0.7989293149203776"
       transform="matrix(0.9671717612096161,0.25412356112468054,-0.25412356112468054,0.9671717612096161,538.7193585347195,-68.62076686657952)"
       fill="#00a19d"></use>
  <use xlink:href="#bbburst-shape-7" width="11.401113909548926" opacity="0.7650384400450685"
       transform="matrix(0.989968451538476,0.1412885875027138,-0.1412885875027138,0.989968451538476,549.3997034426847,-35.062485502607956)"
       fill="#2c2891" filter="url(#bbburst-blur-1)"></use>
  <use xlink:href="#bbburst-shape-3" width="16.23086242327021" opacity="0.6375979783021124"
       transform="matrix(0.998367565462188,-0.05711570916222515,0.05711570916222515,0.998367565462188,528.3420836436841,-33.55258055434314)"
       fill="#00a19d" filter="url(#bbburst-blur-1)"></use>
  <use xlink:href="#bbburst-shape-14" width="31.83616218159738" opacity="0.09625297718180881"
       transform="matrix(1.5120750169419546,0.8809819198712241,-0.8809819198712241,1.5120750169419546,376.7067941046421,-423.2048585227517)"
       fill="none" stroke="#ffa6d5" filter="url(#bbburst-blur-4)"></use>
  <use xlink:href="#bbburst-shape-2" width="7.321317016020112" opacity="0.921234365709649"
       transform="matrix(0.8400280835550821,0.542542918891009,-0.542542918891009,0.8400280835550821,642.2623961257277,83.31690210451899)"
       fill="#2c2891"></use>
  <use xlink:href="#bbburst-shape-5" width="24.84955097284978" opacity="0.37110739096275536"
       transform="matrix(0.9926367732467231,-0.12112900725397616,0.12112900725397616,0.9926367732467231,56.21504666159246,5.4128457436620465)"
       fill="#00a19d" filter="url(#bbburst-blur-2)"></use>
  <use xlink:href="#bbburst-shape-13" width="19.679506754761245" opacity="0.5212125490323761"
       transform="matrix(0.9097340312930761,-0.4151915128073412,0.4151915128073412,0.9097340312930761,438.7275560660821,13.190439696049225)"
       fill="none" stroke="#ffbd9b" filter="url(#bbburst-blur-2)"></use>
  <use xlink:href="#bbburst-shape-7" width="6.990265951102174" opacity="0.889747014281435"
       transform="matrix(0.9994770318997922,-0.03233670831704839,0.03233670831704839,0.9994770318997922,334.02310975896796,3.3087564574765906)"
       fill="#ffa6d5"></use>
  <use xlink:href="#bbburst-shape-5" width="15.2474000194409" opacity="0.5347881332738178"
       transform="matrix(0.9970614834039083,-0.07660547181760415,0.07660547181760415,0.9970614834039083,163.65401463966566,69.4415583259435)"
       fill="#ffa6d5" filter="url(#bbburst-blur-2)"></use>
  <use xlink:href="#bbburst-shape-14" width="35.976976003495864" opacity="0.06167386242209061"
       transform="matrix(1.5492151052912477,-0.8138995991751243,0.8138995991751243,1.5492151052912477,320.4728934312191,116.42139170438963)"
       fill="none" stroke="#ffa6d5" filter="url(#bbburst-blur-4)"></use>
  <use xlink:href="#bbburst-shape-13" width="19.804520955928016" opacity="0.5681054358056776"
       transform="matrix(0.8244047053001148,0.5660007790445442,-0.5660007790445442,0.8244047053001148,425.33947420010963,88.3719618715732)"
       fill="none" stroke="#00a19d" filter="url(#bbburst-blur-1)"></use>
  <use xlink:href="#bbburst-shape-5" width="7.298770180562743" opacity="0.8018240217381808"
       transform="matrix(0.9366569263361095,-0.3502482010611787,0.3502482010611787,0.9366569263361095,167.79560851849644,35.97296382091679)"
       fill="#2c2891"></use>
  <use xlink:href="#bbburst-shape-5" width="9.654790576842098" opacity="0.8233989862163771"
       transform="matrix(0.8864141556939968,-0.462893016349673,0.462893016349673,0.8864141556939968,246.83386465146316,118.37979664529655)"
       fill="#2c2891"></use>
  <use xlink:href="#bbburst-shape-4" width="21.81993592209303" opacity="0.36880191197743395"
       transform="matrix(0.9377394287429212,0.34733955113246145,-0.34733955113246145,0.9377394287429212,285.28048291666863,167.50969038473716)"
       fill="#00a19d" filter="url(#bbburst-blur-2)"></use>
  <use xlink:href="#bbburst-shape-3" width="6.495381458917355" opacity="0.8672081497571421"
       transform="matrix(0.9491406838253968,-0.31485228648916963,0.31485228648916963,0.9491406838253968,278.27409540382644,80.68024166989716)"
       fill="#00a19d"></use>
  <use xlink:href="#bbburst-shape-13" width="42.538865922930185" opacity="0.029643769020242128"
       transform="matrix(1.4139166955667688,-1.0311835811326469,1.0311835811326469,1.4139166955667688,-293.33711444478854,-501.0921786631212)"
       fill="none" stroke="#ffa6d5" filter="url(#bbburst-blur-4)"></use>
  <use xlink:href="#bbburst-shape-3" width="28.615737718880432" opacity="0.19196793929807487"
       transform="matrix(1.249248989096551,0.04332393381544937,-0.04332393381544937,1.249248989096551,683.8395488021499,126.09034223531995)"
       fill="#00a19d" filter="url(#bbburst-blur-3)"></use>
  <use xlink:href="#bbburst-shape-8" width="6.90771208633358" opacity="0.9113151485217011"
       transform="matrix(0.9607212114466415,-0.27751532187700495,0.27751532187700495,0.9607212114466415,246.98275738321976,6.896534840562424)"
       fill="none" stroke="#ffa6d5"></use>
  <use xlink:href="#bbburst-shape-8" width="5.4625164077370485" opacity="0.9804171569361954"
       transform="matrix(0.9043834719289864,0.42672067644030603,-0.42672067644030603,0.9043834719289864,576.5753672580719,34.28587604774867)"
       fill="none" stroke="#ffa6d5"></use>
  <use xlink:href="#bbburst-shape-7" width="9.278089569286252" opacity="0.8222524957410366"
       transform="matrix(0.9363511851071679,0.3510647492249858,-0.3510647492249858,0.9363511851071679,513.0277705630705,-52.78454317216318)"
       fill="#00a19d"></use>
  <use xlink:href="#bbburst-shape-7" width="24.86249855067851" opacity="0.38316049109973904"
       transform="matrix(0.9047693992641288,0.42590178933085904,-0.42590178933085904,0.9047693992641288,577.0822164868571,-244.2381663963838)"
       fill="#ffa6d5" filter="url(#bbburst-blur-2)"></use>
  <use xlink:href="#bbburst-shape-9" width="7.871011887494248" opacity="0.8231018916991532"
       transform="matrix(0.9250633308354018,0.3798128933352736,-0.3798128933352736,0.9250633308354018,504.97325398956434,95.20811032589086)"
       fill="none" stroke="#ffa6d5"></use>
  <use xlink:href="#bbburst-shape-5" width="20.58462537999098" opacity="0.49557007724556756"
       transform="matrix(0.8643925869314985,0.502817517254393,-0.502817517254393,0.8643925869314985,462.36345312759977,-137.10577053724973)"
       fill="#ffa6d5" filter="url(#bbburst-blur-2)"></use>
  <use xlink:href="#bbburst-shape-8" width="8.862041883447674" opacity="0.7323620848553626"
       transform="matrix(0.9768009929253394,0.2141490607499157,-0.2141490607499157,0.9768009929253394,374.5857607945368,64.10215234753315)"
       fill="none" stroke="#00a19d" filter="url(#bbburst-blur-1)"></use>
  <use xlink:href="#bbburst-shape-4" width="18.644457013845862" opacity="0.6468674212580943"
       transform="matrix(0.9777930082634496,-0.20957297772163658,0.20957297772163658,0.9777930082634496,270.0991173514279,165.40479400989238)"
       fill="#00a19d" filter="url(#bbburst-blur-1)"></use>
  <use xlink:href="#bbburst-shape-7" width="11.53741861144105" opacity="0.7310389469968364"
       transform="matrix(0.9299771769019745,0.3676172608045408,-0.3676172608045408,0.9299771769019745,428.05669557408964,-15.92188063609251)"
       fill="#ffa6d5" filter="url(#bbburst-blur-1)"></use>
  <use xlink:href="#bbburst-shape-13" width="26.974614948196557" opacity="0.1552152507325627"
       transform="matrix(1.2496103048290759,-0.031210351888185585,0.031210351888185585,1.2496103048290759,479.6125902125883,264.78304656410523)"
       fill="none" stroke="#2c2891" filter="url(#bbburst-blur-3)"></use>
  <use xlink:href="#bbburst-shape-9" width="22.207086190827322" opacity="0.3590471068287484"
       transform="matrix(0.9801321253632963,-0.19834570030839496,0.19834570030839496,0.9801321253632963,431.6623338458967,-251.39411524904284)"
       fill="none" stroke="#ffa6d5" filter="url(#bbburst-blur-2)"></use>
  <use xlink:href="#bbburst-shape-14" width="13.551084416986534" opacity="0.7036944198218604"
       transform="matrix(0.8881373850636418,-0.459578051316984,0.459578051316984,0.8881373850636418,78.777673713736,25.122450575988523)"
       fill="none" stroke="#00a19d" filter="url(#bbburst-blur-1)"></use>
  <use xlink:href="#bbburst-shape-8" width="5.146343407968211" opacity="0.9522647521681977"
       transform="matrix(0.9787814483776921,0.20490699429660106,-0.20490699429660106,0.9787814483776921,465.98420777812714,-8.780667333015913)"
       fill="none" stroke="#2c2891"></use>
  <use xlink:href="#bbburst-shape-9" width="37.8127291491021" opacity="0.29841977442745005"
       transform="matrix(0.9788019485455641,0.7774617325138302,-0.7774617325138302,0.9788019485455641,977.257774817946,-143.1712980378524)"
       fill="none" stroke="#ffa6d5" filter="url(#bbburst-blur-3)"></use>
  <use xlink:href="#bbburst-shape-13" width="26.330140054222625" opacity="0.11254556196874266"
       transform="matrix(0.9062474288587591,-0.8609387885830724,0.8609387885830724,0.9062474288587591,-243.28632275450212,-228.88122551694704)"
       fill="none" stroke="#00a19d" filter="url(#bbburst-blur-3)"></use>
  <use xlink:href="#bbburst-shape-14" width="4.542604357186164" opacity="0.9270770292619489"
       transform="matrix(0.9363379481148877,0.35110005257761184,-0.35110005257761184,0.9363379481148877,511.71687838875437,43.89784389303668)"
       fill="none" stroke="#ffa6d5"></use>
  <use xlink:href="#bbburst-shape-10" width="10.713934350261658" opacity="0.7383197136098487"
       transform="matrix(0.9985966892617489,0.05295896709221302,-0.05295896709221302,0.9985966892617489,418.32884787511506,-117.45207479170728)"
       fill="none" stroke="#2c2891" filter="url(#bbburst-blur-1)"></use>
  <use xlink:href="#bbburst-shape-13" width="14.837301409508928" opacity="0.7040845742332367"
       transform="matrix(0.9947093752712055,0.10272905503102851,-0.10272905503102851,0.9947093752712055,441.7969700947184,134.27042660741432)"
       fill="none" stroke="#ff5c58" filter="url(#bbburst-blur-1)"></use>
  <use xlink:href="#bbburst-shape-5" width="23.17141762889526" opacity="0.4850397537261303"
       transform="matrix(0.9754163020338933,0.22037022876633003,-0.22037022876633003,0.9754163020338933,506.67052809178927,237.0853421477214)"
       fill="#2c2891" filter="url(#bbburst-blur-2)"></use>
  <use xlink:href="#bbburst-shape-3" width="29.38884560105549" opacity="0.10548087452632049"
       transform="matrix(1.6543542024494453,0.5706243710514475,-0.5706243710514475,1.6543542024494453,340.45284423733716,34.28523321124453)"
       fill="#ff5c58" filter="url(#bbburst-blur-4)"></use>
  <use xlink:href="#bbburst-shape-10" width="10.644627798394334" opacity="0.7158818694553879"
       transform="matrix(0.7749604280783042,0.6320097585581187,-0.6320097585581187,0.7749604280783042,549.7416641563343,167.6321310690377)"
       fill="none" stroke="#ffa6d5" filter="url(#bbburst-blur-1)"></use>
  <use xlink:href="#bbburst-shape-11" width="13.987299258770822" opacity="0.5732321978534838"
       transform="matrix(0.9007347026646771,0.4343696529634359,-0.4343696529634359,0.9007347026646771,665.4124742645613,-128.72076285614395)"
       fill="none" stroke="#00a19d" filter="url(#bbburst-blur-1)"></use>
  <use xlink:href="#bbburst-shape-13" width="22.84457925850028" opacity="0.4098775242410857"
       transform="matrix(0.9241333048845831,0.38207019617224547,-0.38207019617224547,0.9241333048845831,533.3388239806978,291.3873629951248)"
       fill="none" stroke="#ff5c58" filter="url(#bbburst-blur-2)"></use>
  <use xlink:href="#bbburst-shape-14" width="23.95261193321259" opacity="0.3740162267808522"
       transform="matrix(0.9550907070588709,-0.2963135860702071,0.2963135860702071,0.9550907070588709,482.758444421186,206.21622871123157)"
       fill="none" stroke="#ffa6d5" filter="url(#bbburst-blur-2)"></use>
  <use xlink:href="#bbburst-shape-6" width="7.255483462123836" opacity="0.8852905847055845"
       transform="matrix(0.8049090046437456,-0.5933982593869102,0.5933982593869102,0.8049090046437456,183.03903307424912,126.24132966182503)"
       fill="#ffa6d5"></use>
  <use xlink:href="#bbburst-shape-14" width="14.880933392163143" opacity="0.6049175196425771"
       transform="matrix(0.9643337808064933,0.26468917468505204,-0.26468917468505204,0.9643337808064933,474.824589890134,-163.86084857587886)"
       fill="none" stroke="#ff5c58" filter="url(#bbburst-blur-1)"></use>
  <use xlink:href="#bbburst-shape-10" width="23.881862767016766" opacity="0.43439855352085255"
       transform="matrix(0.9230521304129098,-0.38467488160807767,0.38467488160807767,0.9230521304129098,330.0566922086887,271.51971834115375)"
       fill="none" stroke="#00a19d" filter="url(#bbburst-blur-2)"></use>
  <use xlink:href="#bbburst-shape-3" width="12.972858642473195" opacity="0.6292079904249765"
       transform="matrix(0.7878853799654703,-0.6158219125986559,0.6158219125986559,0.7878853799654703,315.3767145884574,88.20376700101701)"
       fill="#00a19d" filter="url(#bbburst-blur-1)"></use>
  <use xlink:href="#bbburst-shape-9" width="32.74509898669217" opacity="0.412512327949234"
       transform="matrix(0.7258364806884385,0.6878672861110797,-0.6878672861110797,0.7258364806884385,814.8306948871037,314.95596176259596)"
       fill="none" stroke="#ffa6d5" filter="url(#bbburst-blur-2)"></use>
  <use xlink:href="#bbburst-shape-14" width="9.522832147423179" opacity="0.8187918919488721"
       transform="matrix(0.9975001942328406,0.07066372835794278,-0.07066372835794278,0.9975001942328406,496.2554829185642,-36.17743950019383)"
       fill="none" stroke="#00a19d"></use>
  <use xlink:href="#bbburst-shape-11" width="12.856633999528569" opacity="0.7032936067229238"
       transform="matrix(0.7624537348893149,-0.6470427359559292,0.6470427359559292,0.7624537348893149,2.8829556328602166,106.82384817600251)"
       fill="none" stroke="#ffa6d5" filter="url(#bbburst-blur-1)"></use>
  <use xlink:href="#bbburst-shape-14" width="5.430258669212491" opacity="0.9253911511981602"
       transform="matrix(0.7400812198031619,-0.6725175002144286,0.6725175002144286,0.7400812198031619,114.09632317810474,75.70847332177146)"
       fill="none" stroke="#ff5c58"></use>
  <use xlink:href="#bbburst-shape-13" width="11.382761640272706" opacity="0.7847573543925794"
       transform="matrix(0.8092640251192124,-0.5874450933047707,0.5874450933047707,0.8092640251192124,241.6613961753912,132.37208483160435)"
       fill="none" stroke="#ffa6d5"></use>
  <use xlink:href="#bbburst-shape-13" width="15.730287185163867" opacity="0.6351024793473001"
       transform="matrix(0.9894555501540147,0.1448368539751409,-0.1448368539751409,0.9894555501540147,501.8249255553105,-152.783112965864)"
       fill="none" stroke="#2c2891" filter="url(#bbburst-blur-1)"></use>
  <use xlink:href="#bbburst-shape-1" width="5.002922848525228" opacity="0.9255414480914209"
       transform="matrix(0.819243893312486,0.5734452399926256,-0.5734452399926256,0.819243893312486,618.3613605975956,103.15836880002433)"
       fill="#00a19d"></use>
  <use xlink:href="#bbburst-shape-10" width="5.67033274955175" opacity="0.9493064234281873"
       transform="matrix(0.939577490701707,0.34233629513489156,-0.34233629513489156,0.939577490701707,521.8510774932231,42.33337323084038)"
       fill="none" stroke="#ffa6d5"></use>
  <use xlink:href="#bbburst-shape-13" width="8.701406709105404" opacity="0.8415036615957019"
       transform="matrix(0.9987221591049809,-0.05053759900000548,0.05053759900000548,0.9987221591049809,313.8678168682848,-35.267734849111434)"
       fill="none" stroke="#00a19d"></use>
  <use xlink:href="#bbburst-shape-5" width="10.425225260158603" opacity="0.6779618918404609"
       transform="matrix(0.8508009703836519,-0.5254880672234492,0.5254880672234492,0.8508009703836519,169.28001173235054,-81.60239358599992)"
       fill="#ff5c58" filter="url(#bbburst-blur-1)"></use>
  <use xlink:href="#bbburst-shape-7" width="23.999331805399855" opacity="0.24466668532363578"
       transform="matrix(1.2495032062133482,0.03523829823591018,-0.03523829823591018,1.2495032062133482,88.24494305022745,-237.95671321649132)"
       fill="#2c2891" filter="url(#bbburst-blur-3)"></use>
  <use xlink:href="#bbburst-shape-10" width="4.851915272310544" opacity="0.9131240942068555"
       transform="matrix(0.98737094434276,-0.15842543440901902,0.15842543440901902,0.98737094434276,358.91653630879324,-24.881537809863232)"
       fill="none" stroke="#00a19d"></use>
  <use xlink:href="#bbburst-shape-13" width="22.41327289877458" opacity="0.5459619501063514"
       transform="matrix(0.7751096396752857,-0.631826753534898,0.631826753534898,0.7751096396752857,61.63211970567045,286.30925807057486)"
       fill="none" stroke="#ff5c58" filter="url(#bbburst-blur-2)"></use>
  <use xlink:href="#bbburst-shape-11" width="18.775408725568106" opacity="0.2793762803002783"
       transform="matrix(1.245802275099345,-0.10235570993987626,0.10235570993987626,1.245802275099345,339.88698542098507,226.53360965586575)"
       fill="none" stroke="#00a19d" filter="url(#bbburst-blur-3)"></use>
  <use xlink:href="#bbburst-shape-6" width="31.944844448122982" opacity="0.2584298494739449"
       transform="matrix(0.9555657373379612,-0.8058499374112765,0.8058499374112765,0.9555657373379612,212.39700021607842,328.7398036161769)"
       fill="#2c2891" filter="url(#bbburst-blur-3)"></use>
  <use xlink:href="#bbburst-shape-4" width="23.317185886183044" opacity="0.1663316542295009"
       transform="matrix(1.1876470444950973,0.38986471718028076,-0.38986471718028076,1.1876470444950973,169.11667517131363,-119.92775505938471)"
       fill="#ffa6d5" filter="url(#bbburst-blur-3)"></use>
  <use xlink:href="#bbburst-shape-2" width="11.397139241678783" opacity="0.7196160189755559"
       transform="matrix(0.9112274382569868,-0.4119035758130891,0.4119035758130891,0.9112274382569868,107.87765473264437,69.3879580212623)"
       fill="#ff5c58" filter="url(#bbburst-blur-1)"></use>
  <use xlink:href="#bbburst-shape-3" width="14.973810474132412" opacity="0.6642757709050937"
       transform="matrix(0.9079732366849799,-0.4190281630914581,0.4190281630914581,0.9079732366849799,276.76344866631405,182.09850199544542)"
       fill="#2c2891" filter="url(#bbburst-blur-1)"></use>
  <use xlink:href="#bbburst-shape-6" width="6.596532624705766" opacity="0.8942289860793844"
       transform="matrix(0.8497227185732209,0.5272298374907616,-0.5272298374907616,0.8497227185732209,589.0792275530945,14.73617679215937)"
       fill="#00a19d"></use>
  <use xlink:href="#bbburst-shape-4" width="4.499651226923562" opacity="0.9547740296370517"
       transform="matrix(0.9652546438294913,-0.2613110647592286,0.2613110647592286,0.9652546438294913,294.58932103464116,34.801116386214915)"
       fill="#ffa6d5"></use>
  <use xlink:href="#bbburst-shape-3" width="17.332134582004677" opacity="0.6445266708357138"
       transform="matrix(0.9774554760275928,-0.2111416405725598,0.2111416405725598,0.9774554760275928,150.90343743746405,45.783241973300846)"
       fill="#ff5c58" filter="url(#bbburst-blur-1)"></use>
  <use xlink:href="#bbburst-shape-9" width="25.1677790152588" opacity="0.23647146934071395"
       transform="matrix(1.2495511949907014,-0.03349344857296544,0.03349344857296544,1.2495511949907014,67.4111948848752,61.52159267164109)"
       fill="none" stroke="#2c2891" filter="url(#bbburst-blur-3)"></use>
  <use xlink:href="#bbburst-shape-1" width="17.498591408797118" opacity="0.5767299110489745"
       transform="matrix(0.9822859717621311,0.18738801903890734,-0.18738801903890734,0.9822859717621311,301.7567401707954,-90.37678893223)"
       fill="#ffa6d5" filter="url(#bbburst-blur-1)"></use>
  <use xlink:href="#bbburst-shape-10" width="15.788192289835806" opacity="0.6291525128918056"
       transform="matrix(0.8972886534576475,0.44144430268852913,-0.44144430268852913,0.8972886534576475,716.3277377677314,-41.70583045252232)"
       fill="none" stroke="#ffa6d5" filter="url(#bbburst-blur-1)"></use>
  <use xlink:href="#bbburst-shape-7" width="12.44707754412327" opacity="0.7049237871705069"
       transform="matrix(0.9930697220987675,-0.11752670781859129,0.11752670781859129,0.9930697220987675,456.2825936261269,-71.57771668030801)"
       fill="#ff5c58" filter="url(#bbburst-blur-1)"></use>
  <use xlink:href="#bbburst-shape-7" width="21.032367527819027" opacity="0.3021088124585066"
       transform="matrix(1.2471154763786243,-0.08487042227370374,0.08487042227370374,1.2471154763786243,666.8336668771486,-91.83391003116674)"
       fill="#ffbd9b" filter="url(#bbburst-blur-3)"></use>
  <use xlink:href="#bbburst-shape-10" width="22.045200823832364" opacity="0.27258816892974"
       transform="matrix(1.0123163024221304,-0.733291008979645,0.733291008979645,1.0123163024221304,412.73894897766934,83.92676626793269)"
       fill="none" stroke="#ff5c58" filter="url(#bbburst-blur-3)"></use>
  <use xlink:href="#bbburst-shape-1" width="34.64018623375408" opacity="0.3324195282342458"
       transform="matrix(0.8904492290247846,0.8772685851717059,-0.8772685851717059,0.8904492290247846,920.7154628241301,-207.81258720544153)"
       fill="#ffa6d5" filter="url(#bbburst-blur-3)"></use>
  <use xlink:href="#bbburst-shape-4" width="35.71760698333566" opacity="0.19837606915284256"
       transform="matrix(1.2194279569859454,0.2747643676335838,-0.2747643676335838,1.2194279569859454,640.9448683200835,-419.396968836294)"
       fill="#ffbd9b" filter="url(#bbburst-blur-3)"></use>
  <use xlink:href="#bbburst-shape-3" width="6.2196923982576875" opacity="0.9330883925586723"
       transform="matrix(0.9722938376589637,-0.23376204407560436,0.23376204407560436,0.9722938376589637,318.13794417018175,38.09887729590298)"
       fill="#00a19d"></use>
  <use xlink:href="#bbburst-shape-6" width="21.906767680216564" opacity="0.4013229636475957"
       transform="matrix(0.8103541303733724,0.5859404264827742,-0.5859404264827742,0.8103541303733724,840.2441346181766,-93.2364306026823)"
       fill="#00a19d" filter="url(#bbburst-blur-2)"></use>
  <use xlink:href="#bbburst-shape-6" width="25.86132958670794" opacity="0.24262843169717374"
       transform="matrix(1.1036028629705457,0.5869929478649762,-0.5869929478649762,1.1036028629705457,953.467722556752,-121.87776497095808)"
       fill="#2c2891" filter="url(#bbburst-blur-3)"></use>
  <use xlink:href="#bbburst-shape-13" width="39.27186417479477" opacity="0.006142206372302339"
       transform="matrix(1.370376134170282,-1.0883791852550808,1.0883791852550808,1.370376134170282,297.2483048328786,139.25398707716818)"
       fill="none" stroke="#00a19d" filter="url(#bbburst-blur-4)"></use>
  <use xlink:href="#bbburst-shape-4" width="7.185621492204742" opacity="0.7952564313549694"
       transform="matrix(0.9048544806494094,0.4257209988345508,-0.4257209988345508,0.9048544806494094,495.53766384716914,-21.577108527804)"
       fill="#ffa6d5"></use>
  <use xlink:href="#bbburst-shape-2" width="12.771108261721691" opacity="0.6955839537511853"
       transform="matrix(0.9419310031460619,-0.33580647002738573,0.33580647002738573,0.9419310031460619,394.10103737933616,51.69154159636702)"
       fill="#ff5c58" filter="url(#bbburst-blur-1)"></use>
  <use xlink:href="#bbburst-shape-7" width="24.343358039364674" opacity="0.19631350036068407"
       transform="matrix(0.9086991057659526,0.8583507064016189,-0.8583507064016189,0.9086991057659526,630.897146085282,-321.1886168711147)"
       fill="#00a19d" filter="url(#bbburst-blur-3)"></use>
  <use xlink:href="#bbburst-shape-5" width="8.156441542758659" opacity="0.8688467432800093"
       transform="matrix(0.8459737959236824,-0.5332244711286943,0.5332244711286943,0.8459737959236824,242.1925991144426,66.97946948692419)"
       fill="#00a19d"></use>
  <use xlink:href="#bbburst-shape-2" width="27.243810517255767" opacity="0.31450791469880945"
       transform="matrix(1.0697290970360547,-0.6466681211830587,0.6466681211830587,1.0697290970360547,-170.94538811938514,61.67991488210697)"
       fill="#2c2891" filter="url(#bbburst-blur-3)"></use>
  <use xlink:href="#bbburst-shape-9" width="23.36944602048811" opacity="0.28564475072006035"
       transform="matrix(1.244026444617817,0.1220582037044351,-0.1220582037044351,1.244026444617817,119.1776735226052,-162.71743028089048)"
       fill="none" stroke="#ffa6d5" filter="url(#bbburst-blur-3)"></use>
  <use xlink:href="#bbburst-shape-8" width="8.903718626549043" opacity="0.7822019058618452"
       transform="matrix(0.9849962846730043,0.1725755462989412,-0.1725755462989412,0.9849962846730043,368.40085772773705,-13.282400602104133)"
       fill="none" stroke="#ff5c58"></use>
  <use xlink:href="#bbburst-shape-9" width="19.302170951792924" opacity="0.5278805004518339"
       transform="matrix(0.7709825941425876,0.6368562157419569,-0.6368562157419569,0.7709825941425876,446.3792699090329,16.55988776533536)"
       fill="none" stroke="#00a19d" filter="url(#bbburst-blur-2)"></use>
  <use xlink:href="#bbburst-shape-4" width="20.761422579747755" opacity="0.48031273478687053"
       transform="matrix(0.8864688324812734,0.4627882982955468,-0.4627882982955468,0.8864688324812734,342.42730317312834,27.260908098758648)"
       fill="#00a19d" filter="url(#bbburst-blur-2)"></use>
  <use xlink:href="#bbburst-shape-5" width="22.20185520788847" opacity="0.2605225510169529"
       transform="matrix(1.2485123628949373,0.06096621768242261,-0.06096621768242261,1.2485123628949373,78.1058416952268,-84.95743348921962)"
       fill="#ffa6d5" filter="url(#bbburst-blur-3)"></use>
  <use xlink:href="#bbburst-shape-14" width="24.77598999493321" opacity="0.5290204785776058"
       transform="matrix(0.8727358541019865,0.488192717033833,-0.488192717033833,0.8727358541019865,728.4632078379518,200.38276561499123)"
       fill="none" stroke="#2c2891" filter="url(#bbburst-blur-2)"></use>
  <use xlink:href="#bbburst-shape-2" width="28.619033227156557" opacity="0.07914865561733164"
       transform="matrix(1.7469339767223913,0.10354555023221458,-0.10354555023221458,1.7469339767223913,51.746280699962696,-103.4378204916759)"
       fill="#ffa6d5" filter="url(#bbburst-blur-4)"></use>
  <use xlink:href="#bbburst-shape-7" width="9.029151002940923" opacity="0.8458445698775561"
       transform="matrix(0.989708256836358,-0.1430998474839772,0.1430998474839772,0.989708256836358,400.6362375199724,35.117849044890875)"
       fill="#00a19d"></use>
  <use xlink:href="#bbburst-shape-7" width="21.512296338400176" opacity="0.43120413183939077"
       transform="matrix(0.9004618268370105,-0.4349350507942006,0.4349350507942006,0.9004618268370105,-23.365734445597894,134.46653031452433)"
       fill="#00a19d" filter="url(#bbburst-blur-2)"></use>
  <use xlink:href="#bbburst-shape-2" width="9.67101484085571" opacity="0.8241436459446847"
       transform="matrix(0.9708712601401878,-0.23960174505584,0.23960174505584,0.9708712601401878,355.2026281749916,68.99145707366125)"
       fill="#ffa6d5"></use>
  <use xlink:href="#bbburst-shape-14" width="8.614101901544657" opacity="0.8886957243749368"
       transform="matrix(0.8009372970712304,0.5987482326990466,-0.5987482326990466,0.8009372970712304,625.1963692595624,125.95401574054478)"
       fill="none" stroke="#00a19d"></use>
  <use xlink:href="#bbburst-shape-11" width="21.270574611960967" opacity="0.15057796610275742"
       transform="matrix(1.1932809172176235,0.37226422417990573,-0.37226422417990573,1.1932809172176235,442.82706440532115,289.03196864021197)"
       fill="none" stroke="#00a19d" filter="url(#bbburst-blur-3)"></use>
  <use xlink:href="#bbburst-shape-13" width="12.138091704232172" opacity="0.7581895214022769"
       transform="matrix(0.9784617730788753,-0.20642809552806424,0.20642809552806424,0.9784617730788753,242.94102441181252,94.37622808255821)"
       fill="none" stroke="#ff5c58" filter="url(#bbburst-blur-1)"></use>
  <use xlink:href="#bbburst-shape-6" width="6.875114390074693" opacity="0.8376312437004326"
       transform="matrix(0.987798379027352,-0.1557381211872539,0.1557381211872539,0.987798379027352,329.8370803896018,-67.5128710436154)"
       fill="#ffa6d5"></use>
  <use xlink:href="#bbburst-shape-3" width="19.993020128384703" opacity="0.5490651677147995"
       transform="matrix(0.9897922399892221,0.14251779417714178,-0.14251779417714178,0.9897922399892221,424.0728832498535,204.26462104123192)"
       fill="#ffa6d5" filter="url(#bbburst-blur-2)"></use>
  <use xlink:href="#bbburst-shape-2" width="4.0974128643801695" opacity="0.9448515198419855"
       transform="matrix(0.7668640986482858,-0.6418095155140287,0.6418095155140287,0.7668640986482858,140.97842367675054,69.76468334326955)"
       fill="#ffa6d5"></use>
  <use xlink:href="#bbburst-shape-12" width="24.78005102005381" opacity="0.1706205549538905"
       transform="matrix(1.1267222258398975,-0.5412919967987585,0.5412919967987585,1.1267222258398975,186.68741304255866,328.79188671062)"
       fill="none" stroke="#ffa6d5" filter="url(#bbburst-blur-3)"></use>
  <use xlink:href="#bbburst-shape-1" width="32.596040918815305" opacity="0.16430235607093202"
       transform="matrix(1.112598577617884,0.5697581987849422,-0.5697581987849422,1.112598577617884,837.5962758344929,-353.4582179228468)"
       fill="#ffbd9b" filter="url(#bbburst-blur-3)"></use>
  <use xlink:href="#bbburst-shape-8" width="16.85943310227732" opacity="0.611946584534254"
       transform="matrix(0.9947785506128427,-0.10205701955579469,0.10205701955579469,0.9947785506128427,521.0196499965738,41.883885316899296)"
       fill="none" stroke="#00a19d" filter="url(#bbburst-blur-1)"></use>
  <use xlink:href="#bbburst-shape-8" width="28.513197697299415" opacity="0.2973016182157877"
       transform="matrix(1.2285961679043398,0.23032901730084082,-0.23032901730084082,1.2285961679043398,551.0012955303065,-401.57189921032364)"
       fill="none" stroke="#00a19d" filter="url(#bbburst-blur-3)"></use>
  <use xlink:href="#bbburst-shape-7" width="22.999887962526273" opacity="0.4944178151441667"
       transform="matrix(0.9094385584303065,-0.41583832007188315,0.41583832007188315,0.9094385584303065,379.30524218400905,-124.40589530100334)"
       fill="#ffbd9b" filter="url(#bbburst-blur-2)"></use>
  <use xlink:href="#bbburst-shape-10" width="21.66486280487018" opacity="0.4649554283206362"
       transform="matrix(0.9980939895471963,0.06171213843127811,-0.06171213843127811,0.9980939895471963,322.99018505479046,-222.86466207836745)"
       fill="none" stroke="#ffbd9b" filter="url(#bbburst-blur-2)"></use>
  <use xlink:href="#bbburst-shape-14" width="17.735061882427665" opacity="0.5841459835256365"
       transform="matrix(0.9150470596074811,-0.40334709457699447,0.40334709457699447,0.9150470596074811,146.70229657838547,-129.71544783696686)"
       fill="none" stroke="#ffa6d5" filter="url(#bbburst-blur-1)"></use>
  <use xlink:href="#bbburst-shape-7" width="18.342267802260697" opacity="0.5166283900488384"
       transform="matrix(0.7918691357742458,-0.6106908152315288,0.6106908152315288,0.7918691357742458,-15.272224047362215,-54.37118417693364)"
       fill="#2c2891" filter="url(#bbburst-blur-2)"></use>
  <use xlink:href="#bbburst-shape-5" width="19.980545665926865" opacity="0.16375196011199677"
       transform="matrix(1.2474013386736937,-0.0805599172981006,0.0805599172981006,1.2474013386736937,312.9029817392761,-472.0697620823751)"
       fill="#ffbd9b" filter="url(#bbburst-blur-3)"></use>
  <use xlink:href="#bbburst-shape-13" width="27.946966726948034" opacity="0.21524427137813262"
       transform="matrix(1.1198186722288488,0.555433291518989,-0.555433291518989,1.1198186722288488,429.66298511059705,-361.34802860028054)"
       fill="none" stroke="#ffa6d5" filter="url(#bbburst-blur-3)"></use>
  <use xlink:href="#bbburst-shape-13" width="8.677419772862624" opacity="0.8613248067302071"
       transform="matrix(0.7810749528868319,-0.6244372810561788,0.6244372810561788,0.7810749528868319,96.87587836819452,127.67181216391089)"
       fill="none" stroke="#2c2891"></use>
  <use xlink:href="#bbburst-shape-2" width="23.136672839272226" opacity="0.4272920369160004"
       transform="matrix(0.8744851029247244,0.48505237321626854,-0.48505237321626854,0.8744851029247244,841.3413815669409,56.532178868836525)"
       fill="#00a19d" filter="url(#bbburst-blur-2)"></use>
  <use xlink:href="#bbburst-shape-2" width="25.969886304794823" opacity="0.3718423946358609"
       transform="matrix(0.9716651098158365,0.23636182933498012,-0.23636182933498012,0.9716651098158365,330.48159123942185,-230.40188029155976)"
       fill="#ffbd9b" filter="url(#bbburst-blur-2)"></use>
  <use xlink:href="#bbburst-shape-7" width="24.257800470053965" opacity="0.41480475415733975"
       transform="matrix(0.7560100765358325,-0.6545599775240499,0.6545599775240499,0.7560100765358325,-63.365977234487815,285.49418830159294)"
       fill="#00a19d" filter="url(#bbburst-blur-2)"></use>
  <use xlink:href="#bbburst-shape-5" width="7.948726526411223" opacity="0.8479423535944094"
       transform="matrix(0.8541712602572423,-0.5199917866183603,0.5199917866183603,0.8541712602572423,214.30840901034853,-3.0181417366944174)"
       fill="#ffa6d5"></use>
  <use xlink:href="#bbburst-shape-1" width="7.721636048368369" opacity="0.7911233263531607"
       transform="matrix(0.7218228131792794,-0.6920779048444987,0.6920779048444987,0.7218228131792794,213.80078419414588,103.50084925278446)"
       fill="#ffa6d5"></use>
  <use xlink:href="#bbburst-shape-7" width="20.559790474236785" opacity="0.5631305146776446"
       transform="matrix(0.7760323571029034,0.6306930955142221,-0.6306930955142221,0.7760323571029034,829.7998943115083,18.104406741396417)"
       fill="#2c2891" filter="url(#bbburst-blur-1)"></use>
  <use xlink:href="#bbburst-shape-5" width="9.849872908260668" opacity="0.7687598648335328"
       transform="matrix(0.9942357976464008,0.10721557106327936,-0.10721557106327936,0.9942357976464008,464.8878612839544,-98.74382889244163)"
       fill="#2c2891" filter="url(#bbburst-blur-1)"></use>
  <use xlink:href="#bbburst-shape-13" width="17.027994308538943" opacity="0.5593318303546837"
       transform="matrix(0.9358330306783644,0.35244366740139826,-0.35244366740139826,0.9358330306783644,394.0227623591,164.1078226914729)"
       fill="none" stroke="#00a19d" filter="url(#bbburst-blur-1)"></use>
  <use xlink:href="#bbburst-shape-7" width="37.9528512749264" opacity="-0.1131699209005117"
       transform="matrix(1.7378512852104548,-0.20584681317030507,0.20584681317030507,1.7378512852104548,-63.65180133514275,-651.445460058334)"
       fill="#ffa6d5" filter="url(#bbburst-blur-4)"></use>
  <use xlink:href="#bbburst-shape-4" width="9.242609242978522" opacity="0.8275061195567859"
       transform="matrix(0.8197470415157815,-0.5727257528050609,0.5727257528050609,0.8197470415157815,92.46123568526286,53.5331896596453)"
       fill="#2c2891"></use>
  <use xlink:href="#bbburst-shape-4" width="33.690816474239014" opacity="0.11549476630718747"
       transform="matrix(1.239548485065527,-0.16130577538252344,0.16130577538252344,1.239548485065527,660.8696409152936,-289.3405604134779)"
       fill="#00a19d" filter="url(#bbburst-blur-3)"></use>
  <use xlink:href="#bbburst-shape-11" width="26.953006869172285" opacity="0.06604830754365709"
       transform="matrix(1.7480554427879031,-0.0824752625918098,0.0824752625918098,1.7480554427879031,552.0618357908211,66.11620432874543)"
       fill="none" stroke="#ff5c58" filter="url(#bbburst-blur-4)"></use>
  <use xlink:href="#bbburst-shape-7" width="19.45560632873052" opacity="0.564268020498537"
       transform="matrix(0.81333264490402,-0.581798941846263,0.581798941846263,0.81333264490402,-35.61723588177219,59.1189376563205)"
       fill="#00a19d" filter="url(#bbburst-blur-1)"></use>
  <use xlink:href="#bbburst-shape-7" width="7.192009975069307" opacity="0.8259708293556568"
       transform="matrix(0.9681642572538981,0.2503157425652805,-0.2503157425652805,0.9681642572538981,574.088322389819,23.300098438612338)"
       fill="#2c2891"></use>
  <use xlink:href="#bbburst-shape-5" width="15.856503955208787" opacity="0.5426370848760105"
       transform="matrix(0.9599062413187477,0.28032125833998767,-0.28032125833998767,0.9599062413187477,452.861725546123,-185.41029205276013)"
       fill="#ff5c58" filter="url(#bbburst-blur-2)"></use>
  <use xlink:href="#bbburst-shape-6" width="22.482894665323833" opacity="0.17050531354814036"
       transform="matrix(1.1136042310117145,0.5677901167445661,-0.5677901167445661,1.1136042310117145,987.7274544808819,-62.138703533854425)"
       fill="#2c2891" filter="url(#bbburst-blur-3)"></use>
  <use xlink:href="#bbburst-shape-7" width="23.514895258207744" opacity="0.4016703408280897"
       transform="matrix(0.9456167617051238,-0.32528286149490765,0.32528286149490765,0.9456167617051238,517.1182892237381,101.14736264270698)"
       fill="#ffbd9b" filter="url(#bbburst-blur-2)"></use>
  <use xlink:href="#bbburst-shape-2" width="9.855511120777235" opacity="0.7698778883550071"
       transform="matrix(0.943500174159008,0.3313720286353718,-0.3313720286353718,0.943500174159008,538.6290420041197,123.96912437320611)"
       fill="#2c2891" filter="url(#bbburst-blur-1)"></use>
  <use xlink:href="#bbburst-shape-14" width="11.89465011042368" opacity="0.7238934042640508"
       transform="matrix(0.8146606108229516,0.5799380045949528,-0.5799380045949528,0.8146606108229516,523.415366711662,2.2692145850135717)"
       fill="none" stroke="#ffa6d5" filter="url(#bbburst-blur-1)"></use>
  <use xlink:href="#bbburst-shape-11" width="6.163786107238174" opacity="0.9488987621296049"
       transform="matrix(0.9527787494588034,-0.30366536611823014,0.30366536611823014,0.9527787494588034,298.47092069010216,21.869452132788297)"
       fill="none" stroke="#00a19d"></use>
  <use xlink:href="#bbburst-shape-3" width="10.012443126817107" opacity="0.6759295381884916"
       transform="matrix(0.9685747633647951,0.24872259200328206,-0.24872259200328206,0.9685747633647951,362.33766539776354,72.73798952358675)"
       fill="#ff5c58" filter="url(#bbburst-blur-1)"></use>
  <use xlink:href="#bbburst-shape-2" width="22.086218720773232" opacity="0.13220826122393226"
       transform="matrix(1.2035919566776963,-0.33744096049643235,0.33744096049643235,1.2035919566776963,622.069796759254,-201.58413521848502)"
       fill="#ffa6d5" filter="url(#bbburst-blur-3)"></use>
  <use xlink:href="#bbburst-shape-14" width="17.398377073532338" opacity="0.6998964035596432"
       transform="matrix(0.9415104518426036,-0.33698378161439235,0.33698378161439235,0.9415104518426036,197.18452515517018,147.41481568895045)"
       fill="none" stroke="#00a19d" filter="url(#bbburst-blur-1)"></use>
  <use xlink:href="#bbburst-shape-1" width="8.093152354442294" opacity="0.7804540604115073"
       transform="matrix(0.9993298313250604,-0.03660448365741959,0.03660448365741959,0.9993298313250604,299.0914534702606,55.198131907096354)"
       fill="#2c2891"></use>
  <use xlink:href="#bbburst-shape-3" width="5.636346920711425" opacity="0.9317341205947415"
       transform="matrix(0.9819092756655942,-0.189351985365531,0.189351985365531,0.9819092756655942,349.0868591378235,-5.681673403834452)"
       fill="#00a19d"></use>
  <use xlink:href="#bbburst-shape-7" width="27.59481657889342" opacity="0.15243857002609718"
       transform="matrix(1.2200806203938452,-0.2718515766725836,0.2718515766725836,1.2200806203938452,-88.02029948650511,34.85753683109493)"
       fill="#ffa6d5" filter="url(#bbburst-blur-3)"></use>
  <use xlink:href="#bbburst-shape-3" width="14.649860396285867" opacity="0.6176751159408997"
       transform="matrix(0.9459249362867773,-0.3243855960286404,0.3243855960286404,0.9459249362867773,397.65975478315926,131.4378637855474)"
       fill="#2c2891" filter="url(#bbburst-blur-1)"></use>
  <use xlink:href="#bbburst-shape-2" width="6.430961579805726" opacity="0.8918359130322081"
       transform="matrix(0.9932483376212902,-0.11600749894960911,0.11600749894960911,0.9932483376212902,318.0543868006574,-33.29164181548879)"
       fill="#ffa6d5"></use>
  <use xlink:href="#bbburst-shape-4" width="15.564983828579585" opacity="0.6173401134086242"
       transform="matrix(0.930097685089119,-0.3673122597897624,0.3673122597897624,0.930097685089119,401.2131422384401,105.07235529108044)"
       fill="#ff5c58" filter="url(#bbburst-blur-1)"></use>
  <use xlink:href="#bbburst-shape-7" width="8.244812499202272" opacity="0.8812852418154551"
       transform="matrix(0.9812693125079872,-0.19264095185111144,0.19264095185111144,0.9812693125079872,346.30850565830974,-37.54656769382001)"
       fill="#00a19d"></use>
  <use xlink:href="#bbburst-shape-5" width="12.295528978556385" opacity="0.7271198940123045"
       transform="matrix(0.9943433090906223,0.10621385816696002,-0.10621385816696002,0.9943433090906223,403.93970626904525,-116.82584658794485)"
       fill="#00a19d" filter="url(#bbburst-blur-1)"></use>
  <use xlink:href="#bbburst-shape-14" width="4.862221491068788" opacity="0.9703393583374094"
       transform="matrix(0.9354792492279207,0.35338162694736375,-0.35338162694736375,0.9354792492279207,539.7945003901428,11.627388585029848)"
       fill="none" stroke="#ffa6d5"></use>
  <use xlink:href="#bbburst-shape-11" width="16.971207881133314" opacity="0.48502799811315633"
       transform="matrix(0.8330027778830067,-0.5532688063131647,0.5532688063131647,0.8330027778830067,364.84834391193783,199.06042099051524)"
       fill="none" stroke="#00a19d" filter="url(#bbburst-blur-2)"></use>
  <use xlink:href="#bbburst-shape-13" width="15.004008313351978" opacity="0.6583348001894979"
       transform="matrix(0.856362134928329,-0.5163757293492738,0.5163757293492738,0.856362134928329,133.98379030621845,-82.98129378443096)"
       fill="none" stroke="#ff5c58" filter="url(#bbburst-blur-1)"></use>
  <use xlink:href="#bbburst-shape-14" width="7.8280137744572995" opacity="0.8619903262829162"
       transform="matrix(0.9524703368655992,-0.3046313466981558,0.3046313466981558,0.9524703368655992,283.61482076664134,-41.2060548621273)"
       fill="none" stroke="#ffbd9b"></use>
  <use xlink:href="#bbburst-shape-13" width="6.647356817931763" opacity="0.867434217469991"
       transform="matrix(0.8187475902924841,-0.5741536235105118,0.5741536235105118,0.8187475902924841,212.39961043001856,34.9984071483662)"
       fill="none" stroke="#00a19d"></use>
  <use xlink:href="#bbburst-shape-3" width="10.77716056575368" opacity="0.7121694405169663"
       transform="matrix(0.9001858860569565,-0.4355058788855234,0.4355058788855234,0.9001858860569565,337.779362844669,98.12871731613717)"
       fill="#00a19d" filter="url(#bbburst-blur-1)"></use>
  <use xlink:href="#bbburst-shape-9" width="34.7629079029829" opacity="0.25184986635720397"
       transform="matrix(1.0697698321642546,-0.646600731666198,0.646600731666198,1.0697698321642546,381.97651011831755,-231.57334113718736)"
       fill="none" stroke="#00a19d" filter="url(#bbburst-blur-3)"></use>
  <use xlink:href="#bbburst-shape-8" width="34.58817824757208" opacity="0.3119749909506413"
       transform="matrix(1.248403336406676,0.0631593987358956,-0.0631593987358956,1.248403336406676,677.3531363229401,44.31765123721891)"
       fill="none" stroke="#ff5c58" filter="url(#bbburst-blur-3)"></use>
  <use xlink:href="#bbburst-shape-5" width="17.096271835187004" opacity="0.4662050771915325"
       transform="matrix(0.8877982004871348,-0.460232935818163,0.460232935818163,0.8877982004871348,331.8094662533391,-157.218033523647)"
       fill="#ffa6d5" filter="url(#bbburst-blur-2)"></use>
  <use xlink:href="#bbburst-shape-8" width="12.796928955873199" opacity="0.6218639232411748"
       transform="matrix(0.9255530440399394,-0.3786179640064665,0.3786179640064665,0.9255530440399394,350.3529160347621,-99.52097905552824)"
       fill="none" stroke="#ffbd9b" filter="url(#bbburst-blur-1)"></use>
  <use xlink:href="#bbburst-shape-4" width="7.722241438322413" opacity="0.859112564320917"
       transform="matrix(0.9004545205667275,-0.43495017690644167,0.43495017690644167,0.9004545205667275,195.9875329515007,-16.06444524990252)"
       fill="#ffa6d5"></use>
  <use xlink:href="#bbburst-shape-14" width="7.322229272517449" opacity="0.9124730635053799"
       transform="matrix(0.8097450283665864,-0.5867818922185621,0.5867818922185621,0.8097450283665864,159.50506287121044,38.972489311645745)"
       fill="none" stroke="#ffa6d5"></use>
  <use xlink:href="#bbburst-shape-5" width="16.56660040160992" opacity="0.6612078883445327"
       transform="matrix(0.9984942973152182,-0.05485561255686193,0.05485561255686193,0.9984942973152182,281.8596022250285,-123.48952893672771)"
       fill="#2c2891" filter="url(#bbburst-blur-1)"></use>
  <use xlink:href="#bbburst-shape-9" width="15.463818483978933" opacity="0.7332967281689038"
       transform="matrix(0.883273377906557,-0.46885833668768273,0.46885833668768273,0.883273377906557,182.26972485009014,167.95504474159173)"
       fill="none" stroke="#2c2891" filter="url(#bbburst-blur-1)"></use>
  <use xlink:href="#bbburst-shape-5" width="7.483623303218554" opacity="0.852626894272259"
       transform="matrix(0.9940508307267412,-0.10891715168638891,0.10891715168638891,0.9940508307267412,306.3288141910745,-44.61021236319806)"
       fill="#00a19d"></use>
  <use xlink:href="#bbburst-shape-2" width="22.519973041464127" opacity="0.12872325913287563"
       transform="matrix(1.169636068016655,-0.4409665161829623,0.4409665161829623,1.169636068016655,-160.96119836222155,-188.48409362393232)"
       fill="#2c2891" filter="url(#bbburst-blur-3)"></use>
  <use xlink:href="#bbburst-shape-7" width="8.672831323118663" opacity="0.8691089900635801"
       transform="matrix(0.9809717659063016,-0.19415044294225087,0.19415044294225087,0.9809717659063016,260.44432948403255,-3.8051854927323348)"
       fill="#ffa6d5"></use>
  <use xlink:href="#bbburst-shape-12" width="39.02496735251989" opacity="-0.021835887003097243"
       transform="matrix(1.7383874020650876,-0.201269074478409,0.201269074478409,1.7383874020650876,-79.17047949922835,-571.5744932472205)"
       fill="none" stroke="#ffa6d5" filter="url(#bbburst-blur-4)"></use>
  <use xlink:href="#bbburst-shape-8" width="28.550666641225675" opacity="0.22306758586428077"
       transform="matrix(0.9893653499989943,0.7639739551983218,-0.7639739551983218,0.9893653499989943,422.6852641694559,216.93397022697104)"
       fill="none" stroke="#2c2891" filter="url(#bbburst-blur-3)"></use>
  <use xlink:href="#bbburst-shape-13" width="6.270498440676889" opacity="0.9281023531375705"
       transform="matrix(0.8556882660738776,-0.5174916340420209,0.5174916340420209,0.8556882660738776,201.33307305663575,28.925097530876997)"
       fill="none" stroke="#2c2891"></use>
  <use xlink:href="#bbburst-shape-14" width="29.915052954405798" opacity="0.1194930604756348"
       transform="matrix(0.8863677541866821,-0.8813921966627896,0.8813921966627896,0.8863677541866821,390.8436034506901,231.348023758409)"
       fill="none" stroke="#ffbd9b" filter="url(#bbburst-blur-3)"></use>
  <use xlink:href="#bbburst-shape-7" width="7.022980540671884" opacity="0.8697725712325601"
       transform="matrix(0.7602078707814185,-0.6496799159601458,0.6496799159601458,0.7602078707814185,105.15626766159846,147.12218314185043)"
       fill="#ff5c58"></use>
  <use xlink:href="#bbburst-shape-8" width="7.9087711408739505" opacity="0.8372091226876319"
       transform="matrix(0.8799870958133327,-0.4749975907328545,0.4749975907328545,0.8799870958133327,248.9621243371937,-9.825729652493692)"
       fill="none" stroke="#ffa6d5"></use>
  <use xlink:href="#bbburst-shape-4" width="18.866132829615424" opacity="0.3700944863967571"
       transform="matrix(0.8267784278917765,0.5625277159152272,-0.5625277159152272,0.8267784278917765,357.6058518663219,-49.83583975347324)"
       fill="#ffbd9b" filter="url(#bbburst-blur-2)"></use>
  <use xlink:href="#bbburst-shape-1" width="33.81770533639907" opacity="0.3256939961158246"
       transform="matrix(1.2186100364341113,-0.2783695010270596,0.2783695010270596,1.2186100364341113,334.7458308159689,213.33510408727045)"
       fill="#ffa6d5" filter="url(#bbburst-blur-3)"></use>
  <use xlink:href="#bbburst-shape-3" width="26.05654212523634" opacity="-0.02036979362438296"
       transform="matrix(1.7401429390430465,-0.1854792487008408,0.1854792487008408,1.7401429390430465,671.5460790774584,-567.4492207878659)"
       fill="#ffa6d5" filter="url(#bbburst-blur-4)"></use>
  <use xlink:href="#bbburst-shape-13" width="6.932569278201879" opacity="0.9060507827596578"
       transform="matrix(0.838981918351731,0.5441592971537373,-0.5441592971537373,0.838981918351731,589.4319643370152,96.37471102660817)"
       fill="none" stroke="#ffa6d5"></use>
  <use xlink:href="#bbburst-shape-11" width="4.941810397499298" opacity="0.983657096317204"
       transform="matrix(0.7477638880788551,-0.6639647337661794,0.6639647337661794,0.7477638880788551,130.1339498015509,109.44246177549695)"
       fill="none" stroke="#ffa6d5"></use>
  <use xlink:href="#bbburst-shape-2" width="3.77174051794946" opacity="0.9671598120050793"
       transform="matrix(0.744237928302191,-0.6679145948970293,0.6679145948970293,0.744237928302191,116.6608362278331,104.02164649113217)"
       fill="#ffa6d5"></use>
  <use xlink:href="#bbburst-shape-2" width="5.70286479615745" opacity="0.9191312178701672"
       transform="matrix(0.9919624289119537,-0.12653276108224756,0.12653276108224756,0.9919624289119537,382.9321621482117,4.7083775402905985)"
       fill="#ffbd9b"></use>
  <use xlink:href="#bbburst-shape-11" width="9.906651049788513" opacity="0.7736586250911281"
       transform="matrix(0.9239866207675201,-0.38242479606142016,0.38242479606142016,0.9239866207675201,145.1860509603534,62.55832889088583)"
       fill="none" stroke="#2c2891" filter="url(#bbburst-blur-1)"></use>
  <use xlink:href="#bbburst-shape-5" width="19.880127618590045" opacity="0.56272922782945"
       transform="matrix(0.7929625800338886,-0.6092703395587207,0.6092703395587207,0.7929625800338886,203.28335291260953,277.8368848139006)"
       fill="#ffbd9b" filter="url(#bbburst-blur-1)"></use>
  <use xlink:href="#bbburst-shape-3" width="7.378999402515759" opacity="0.8847789834497117"
       transform="matrix(0.9954583478101099,0.09519809753963779,-0.09519809753963779,0.9954583478101099,389.09190693015876,-23.785905712441775)"
       fill="#ffbd9b"></use>
  <use xlink:href="#bbburst-shape-13" width="9.71619628371178" opacity="0.7760440566232426"
       transform="matrix(0.9985183330303593,0.054416344991853514,-0.054416344991853514,0.9985183330303593,375.76333099204203,92.32358583078786)"
       fill="none" stroke="#ffbd9b" filter="url(#bbburst-blur-1)"></use>
  <use xlink:href="#bbburst-shape-13" width="4.094153296592234" opacity="0.9804804164831881"
       transform="matrix(0.9764874074003893,0.2155744492941269,-0.2155744492941269,0.9764874074003893,477.3630784398606,3.487495067144664)"
       fill="none" stroke="#ff5c58"></use>
  <use xlink:href="#bbburst-shape-3" width="8.49921431357991" opacity="0.8233692475872176"
       transform="matrix(0.9975854198137376,0.06945019924412697,-0.06945019924412697,0.9975854198137376,482.9428196027545,-52.10680942601408)"
       fill="#2c2891"></use>
  <use xlink:href="#bbburst-shape-6" width="13.587865524124286" opacity="0.7236509096590291"
       transform="matrix(0.7112710374822326,0.7029178552568915,-0.7029178552568915,0.7112710374822326,615.077686215128,2.492886543135455)"
       fill="#2c2891" filter="url(#bbburst-blur-1)"></use>
  <use xlink:href="#bbburst-shape-4" width="16.747458240543544" opacity="0.6112586865162375"
       transform="matrix(0.993528275949494,-0.11358505574601861,0.11358505574601861,0.993528275949494,479.31769596785705,-109.99792586064615)"
       fill="#00a19d" filter="url(#bbburst-blur-1)"></use>
  <use xlink:href="#bbburst-shape-14" width="15.264209214621001" opacity="0.6711132986504185"
       transform="matrix(0.9477967769755443,0.31887500616192893,-0.31887500616192893,0.9477967769755443,423.7714576553685,130.64588770161504)"
       fill="none" stroke="#ffa6d5" filter="url(#bbburst-blur-1)"></use>
  <use xlink:href="#bbburst-shape-5" width="11.720361908292116" opacity="0.7593569334099096"
       transform="matrix(0.9339162080486494,-0.3574919808108034,0.3574919808108034,0.9339162080486494,317.54394774194805,114.37011534701497)"
       fill="#ffa6d5" filter="url(#bbburst-blur-1)"></use>
  <use xlink:href="#bbburst-shape-10" width="8.000759173378201" opacity="0.7731872865834855"
       transform="matrix(0.9999872142934464,0.0050568023130200595,-0.0050568023130200595,0.9999872142934464,333.28766813586395,-78.92536100373542)"
       fill="none" stroke="#00a19d" filter="url(#bbburst-blur-1)"></use>
  <use xlink:href="#bbburst-shape-6" width="21.860384314770343" opacity="0.03918494404530548"
       transform="matrix(1.483536469161674,-0.9282346387995406,0.9282346387995406,1.483536469161674,235.68134246971528,-553.5752116794458)"
       fill="#00a19d" filter="url(#bbburst-blur-4)"></use>
  <use xlink:href="#bbburst-shape-3" width="14.992109112589276" opacity="0.6206987759369041"
       transform="matrix(0.9836420354175952,-0.1801342448273799,0.1801342448273799,0.9836420354175952,331.8570208576517,178.21219078998382)"
       fill="#00a19d" filter="url(#bbburst-blur-1)"></use>
  <use xlink:href="#bbburst-shape-5" width="12.510312783179437" opacity="0.6736878380363167"
       transform="matrix(0.999362049117678,-0.03571406982291101,0.03571406982291101,0.999362049117678,451.1417779444457,-127.6787782638043)"
       fill="#2c2891" filter="url(#bbburst-blur-1)"></use>
  <use xlink:href="#bbburst-shape-4" width="8.363649264531206" opacity="0.8216960707370863"
       transform="matrix(0.7093015965839112,0.7049051319741647,-0.7049051319741647,0.7093015965839112,634.0198721308783,46.88711799348653)"
       fill="#ff5c58"></use>
  <use xlink:href="#bbburst-shape-7" width="5.386975026384663" opacity="0.9629217380336482"
       transform="matrix(0.9989188986642802,-0.04648692172365827,0.04648692172365827,0.9989188986642802,391.5963959390544,11.137798461567115)"
       fill="#2c2891"></use>
  <use xlink:href="#bbburst-shape-13" width="31.08053254831812" opacity="-0.1040879215880155"
       transform="matrix(1.625423564741517,-0.6484583526973645,0.6484583526973645,1.625423564741517,456.55864706790095,-601.2446886300478)"
       fill="none" stroke="#2c2891" filter="url(#bbburst-blur-4)"></use>
  <use xlink:href="#bbburst-shape-7" width="5.561062328990409" opacity="0.9225323993883779"
       transform="matrix(0.8691285799402333,-0.49458620232581646,0.49458620232581646,0.8691285799402333,172.11640796196997,32.455240988096364)"
       fill="#00a19d"></use>
  <use xlink:href="#bbburst-shape-2" width="24.6330544770939" opacity="0.5259306179770507"
       transform="matrix(0.9325723530320221,-0.36098311090730756,0.36098311090730756,0.9325723530320221,423.3812202032803,-84.23233396492753)"
       fill="#ffa6d5" filter="url(#bbburst-blur-2)"></use>
  <use xlink:href="#bbburst-shape-13" width="21.608207981381327" opacity="0.42272679207006025"
       transform="matrix(0.970581435114216,0.2407730836526976,-0.2407730836526976,0.970581435114216,232.7834161636066,-49.59583576813117)"
       fill="none" stroke="#2c2891" filter="url(#bbburst-blur-2)"></use>
  <use xlink:href="#bbburst-shape-1" width="14.784551753839349" opacity="0.7124520286859288"
       transform="matrix(0.9202345013237324,0.39136742656161566,-0.39136742656161566,0.9202345013237324,648.691875614452,112.40557428175487)"
       fill="#2c2891" filter="url(#bbburst-blur-1)"></use>
  <use xlink:href="#bbburst-shape-13" width="33.961145486597715" opacity="0.275213332451986"
       transform="matrix(0.8950664927911143,0.8725571462561144,-0.8725571462561144,0.8950664927911143,469.8452344201265,-164.39353849505264)"
       fill="none" stroke="#ffa6d5" filter="url(#bbburst-blur-3)"></use>
  <use xlink:href="#bbburst-shape-7" width="15.193381495040995" opacity="0.6025055013665888"
       transform="matrix(0.9014848917263908,0.43281057056067546,-0.43281057056067546,0.9014848917263908,403.8010518038247,111.0069477561093)"
       fill="#ffa6d5" filter="url(#bbburst-blur-1)"></use>
  <use xlink:href="#bbburst-shape-13" width="25.794929528582838" opacity="0.37103738885886506"
       transform="matrix(0.9029814779176655,0.42967947418701363,-0.42967947418701363,0.9029814779176655,434.1424574604381,286.66416228829956)"
       fill="none" stroke="#00a19d" filter="url(#bbburst-blur-2)"></use>
  <use xlink:href="#bbburst-shape-5" width="16.789418302615783" opacity="0.5274957281795556"
       transform="matrix(0.7731573030099526,-0.634214305107017,0.634214305107017,0.7731573030099526,350.4808873191928,124.9371031326242)"
       fill="#ffa6d5" filter="url(#bbburst-blur-2)"></use>
  <use xlink:href="#bbburst-shape-5" width="7.707025850754216" opacity="0.8939870140926953"
       transform="matrix(0.9328728166909145,0.3602059242699367,-0.3602059242699367,0.9328728166909145,585.2226216741341,42.034450668994964)"
       fill="#ff5c58"></use>
  <use xlink:href="#bbburst-shape-8" width="15.951824069091895" opacity="0.6299774212403639"
       transform="matrix(0.9565061108187672,-0.2917122897074379,0.2917122897074379,0.9565061108187672,141.81632398860984,118.7420005550477)"
       fill="none" stroke="#2c2891" filter="url(#bbburst-blur-1)"></use>
  <use xlink:href="#bbburst-shape-14" width="13.697548019285282" opacity="0.6412762890176589"
       transform="matrix(0.7213217101568842,0.6926001663704304,-0.6926001663704304,0.7213217101568842,510.6949354586648,103.45218349120955)"
       fill="none" stroke="#ffa6d5" filter="url(#bbburst-blur-1)"></use>
  <use xlink:href="#bbburst-shape-10" width="13.219731040008265" opacity="0.6104684106690454"
       transform="matrix(0.8866507281040027,-0.46243971104636095,0.46243971104636095,0.8866507281040027,118.07086930633855,198.1576559560355)"
       fill="none" stroke="#00a19d" filter="url(#bbburst-blur-1)"></use>
  <use xlink:href="#bbburst-shape-5" width="7.1530861430397366" opacity="0.9227730687681479"
       transform="matrix(0.9929986586764269,-0.11812562747692384,0.11812562747692384,0.9929986586764269,315.0093012871854,9.45406400718764)"
       fill="#2c2891"></use>
  <use xlink:href="#bbburst-shape-11" width="21.02687160540928" opacity="0.3987218519226441"
       transform="matrix(0.9528468438588666,0.3034516306566774,-0.3034516306566774,0.9528468438588666,317.45413703679066,-173.2096235436731)"
       fill="none" stroke="#00a19d" filter="url(#bbburst-blur-2)"></use>
  <use xlink:href="#bbburst-shape-7" width="33.46261004951022" opacity="0.08624620486570012"
       transform="matrix(1.4427316725705717,-0.9904672235676055,0.9904672235676055,1.4427316725705717,275.7170874309431,-445.5956358070749)"
       fill="#2c2891" filter="url(#bbburst-blur-4)"></use>
  <use xlink:href="#bbburst-shape-4" width="21.58374921528274" opacity="0.3404308013171389"
       transform="matrix(0.9941546292765026,-0.10796561067349111,0.10796561067349111,0.9941546292765026,244.0679030971716,-275.199258519558)"
       fill="#ffa6d5" filter="url(#bbburst-blur-2)"></use>
</svg>
