<svg xmlns="http://www.w3.org/2000/svg" version="1.1" xmlns:xlink="http://www.w3.org/1999/xlink" xmlns:svgjs="http://svgjs.dev/svgjs" viewBox="0 0 800 800"><defs><filter id="bbburst-blur-1" x="-100%" y="-100%" width="400%" height="400%"><feGaussianBlur in="SourceGraphic" stdDeviation="1"></feGaussianBlur></filter><filter id="bbburst-blur-2" x="-100%" y="-100%" width="400%" height="400%"><feGaussianBlur in="SourceGraphic" stdDeviation="2"></feGaussianBlur></filter><filter id="bbburst-blur-3" x="-100%" y="-100%" width="400%" height="400%"><feGaussianBlur in="SourceGraphic" stdDeviation="4"></feGaussianBlur></filter><filter id="bbburst-blur-4" x="-100%" y="-100%" width="400%" height="400%"><feGaussianBlur in="SourceGraphic" stdDeviation="12"></feGaussianBlur></filter><symbol id="bbburst-shape-1" viewBox="0 0 194 167"><path d="m97 0 96.129 166.5H.871L97 0Z"></path></symbol><symbol id="bbburst-shape-2" viewBox="0 0 126 115"><path d="m63 0 62.77 43.877-23.976 70.996H24.206L.23 43.877 63 0Z"></path></symbol><symbol id="bbburst-shape-3" viewBox="0 0 131 127"><path d="m66 0 66 63.5L66 127 0 63.5 66 0Z"></path></symbol><symbol id="bbburst-shape-4" viewBox="0 0 149 143"><path d="M71.647 2.781c.898-2.764 4.808-2.764 5.706 0l15.445 47.534a3 3 0 0 0 2.853 2.073h49.98c2.906 0 4.115 3.719 1.764 5.427L106.96 87.193a2.999 2.999 0 0 0-1.09 3.354l15.445 47.534c.898 2.764-2.266 5.062-4.617 3.354l-40.435-29.378a3 3 0 0 0-3.526 0l-40.435 29.378c-2.351 1.708-5.515-.59-4.617-3.354L43.13 90.547a3 3 0 0 0-1.09-3.354L1.605 57.815c-2.35-1.708-1.142-5.427 1.764-5.427h49.98a3 3 0 0 0 2.853-2.073L71.647 2.781Z"></path></symbol><symbol id="bbburst-shape-5" viewBox="0 0 145 145"><circle cx="72.5" cy="72.5" r="72.5"></circle></symbol><symbol id="bbburst-shape-8" viewBox="0 0 87 168"><path d="m12 12 31.2546 18.0749c16.4102 9.4902 20.014 31.6325 7.4603 45.8369L36.3296 92.1884c-12.5684 14.2206-8.9394 36.3916 7.5068 45.8636L75 156" stroke-width="14" stroke-linecap="round" stroke-linejoin="round"></path></symbol><symbol id="bbburst-shape-9" viewBox="0 0 182 172"><path d="M13.5809 69.845 91 13.5967l77.419 56.2483-29.571 91.012H43.1524L13.5809 69.845Z" stroke-width="22"></path></symbol><symbol id="bbburst-shape-10" viewBox="0 0 145 145"><circle cx="72.5" cy="72.5" r="61.5" fill="none" stroke-width="22"></circle></symbol><symbol id="bbburst-shape-11" viewBox="0 0 194 167"><path d="M10.398 161 97 11l86.603 150H10.397Z" stroke-width="11"></path></symbol><symbol id="bbburst-shape-12" viewBox="0 0 170 151"><path d="M69.3728 54.2122 85 10.0031l15.627 44.2091c1.413 3.9958 5.19 6.6672 9.428 6.6673h49.312l-39.149 26.1447c-3.803 2.5401-5.399 7.3367-3.875 11.6488l15.179 42.94-40.9683-27.36c-3.3621-2.245-7.7453-2.245-11.1074 0l-40.9682 27.36 15.1785-42.94c1.5243-4.3121-.0712-9.1087-3.8746-11.6488L10.6333 60.8795h49.3112c4.2381-.0001 8.0159-2.6715 9.4283-6.6673Z" stroke-width="12"></path></symbol><symbol id="bbburst-shape-13" viewBox="0 0 159 159"><path stroke-width="22" d="M11 11h137v137H11z"></path></symbol><symbol id="bbburst-shape-14" viewBox="0 0 185 109"><path d="M168 16.5C168 58.1975 134.197 92 92.5 92 50.8025 92 17 58.1975 17 16.5" stroke-width="33" stroke-linecap="round"></path></symbol></defs><use xlink:href="#bbburst-shape-1" width="30.33931627545813" opacity="0.18603087606180158" transform="matrix(0.928243247382593,-0.8371764889726767,0.8371764889726767,0.928243247382593,68.70302998667222,-324.4232993631403)" fill="#ff0075" filter="url(#bbburst-blur-3)"></use><use xlink:href="#bbburst-shape-1" width="33.59880549541585" opacity="0.019074630136934334" transform="matrix(1.6044042904558828,-0.6988468163816409,0.6988468163816409,1.6044042904558828,-261.01917879094526,-492.891797212233)" fill="#ffc069" filter="url(#bbburst-blur-4)"></use><use xlink:href="#bbburst-shape-3" width="20.363184019385304" opacity="0.44610788011418256" transform="matrix(0.8861093494749654,-0.46347623539190613,0.46347623539190613,0.8861093494749654,57.885442822423045,-150.5139130647991)" fill="#ffc069" filter="url(#bbburst-blur-2)"></use><use xlink:href="#bbburst-shape-3" width="12.021548397196074" opacity="0.7642351608577123" transform="matrix(0.9911730133931792,0.13257472429194236,-0.13257472429194236,0.9911730133931792,341.5664538478823,-8.852627942541176)" fill="#ff0075" filter="url(#bbburst-blur-1)"></use><use xlink:href="#bbburst-shape-3" width="7.970853849679238" opacity="0.8164716791010109" transform="matrix(0.9516538078646225,0.30717263871765027,-0.30717263871765027,0.9516538078646225,575.0202610191756,78.83192770731853)" fill="#5a0e99"></use><use xlink:href="#bbburst-shape-4" width="22.570940323461826" opacity="0.40233013273117624" transform="matrix(0.8971734576097625,0.441678375020267,-0.441678375020267,0.8971734576097625,833.0188856499825,72.52956468643487)" fill="#ff0075" filter="url(#bbburst-blur-2)"></use><use xlink:href="#bbburst-shape-4" width="14.255116176842076" opacity="0.6074528471949427" transform="matrix(0.9117141038233069,0.4108252583394361,-0.4108252583394361,0.9117141038233069,696.5561486881743,141.75045292469554)" fill="#5a0e99" filter="url(#bbburst-blur-1)"></use><use xlink:href="#bbburst-shape-13" width="24.01766793728506" opacity="0.24840059211627674" transform="matrix(0.8898419764218761,0.8778845351170104,-0.8778845351170104,0.8898419764218761,440.8768487114394,190.48524511837468)" fill="none" stroke="#ff0075" filter="url(#bbburst-blur-3)"></use><use xlink:href="#bbburst-shape-12" width="20.88119121768111" opacity="0.3880316825521648" transform="matrix(0.8692825004450533,0.4943156222698165,-0.4943156222698165,0.8692825004450533,495.51727928413936,-212.05940661586504)" fill="none" stroke="#3db2ff" filter="url(#bbburst-blur-2)"></use><use xlink:href="#bbburst-shape-2" width="12.904482545569145" opacity="0.6773359467018173" transform="matrix(0.9994296030779661,-0.0337708230787922,0.0337708230787922,0.9994296030779661,234.8835414064286,-2.9144939403301464)" fill="#ffc069" filter="url(#bbburst-blur-1)"></use><use xlink:href="#bbburst-shape-8" width="21.414728007073077" opacity="0.5765139703794897" transform="matrix(0.724534246635262,-0.689238801470632,0.689238801470632,0.724534246635262,-25.023919500538227,245.136640559765)" fill="none" stroke="#ff0075" filter="url(#bbburst-blur-1)"></use><use xlink:href="#bbburst-shape-2" width="8.13499402129702" opacity="0.8677610164653898" transform="matrix(0.8569007392971928,0.5154814477669633,-0.5154814477669633,0.8569007392971928,556.6381330513208,92.81597630509111)" fill="#5a0e99"></use><use xlink:href="#bbburst-shape-11" width="19.996752010944586" opacity="0.5591530656565078" transform="matrix(0.9344453701046359,0.35610651537146876,-0.35610651537146876,0.9344453701046359,726.4657778910674,-22.30179296897586)" fill="none" stroke="#5a0e99" filter="url(#bbburst-blur-1)"></use><use xlink:href="#bbburst-shape-2" width="6.3997091666095915" opacity="0.8956136843470605" transform="matrix(0.7798553131873138,0.6259598153983342,-0.6259598153983342,0.7798553131873138,683.3470595792653,55.2501068089457)" fill="#5a0e99"></use><use xlink:href="#bbburst-shape-9" width="6.433917561419738" opacity="0.8779716245933239" transform="matrix(0.9909687902592969,-0.1340927169238721,0.1340927169238721,0.9909687902592969,328.41120209227716,-48.891594141246344)" fill="none" stroke="#ffc069"></use><use xlink:href="#bbburst-shape-12" width="29.197476967388738" opacity="0.2660526129297066" transform="matrix(1.2487689528402093,-0.05546262184901772,0.05546262184901772,1.2487689528402093,263.7367713564633,-414.8276327490391)" fill="none" stroke="#3db2ff" filter="url(#bbburst-blur-3)"></use><use xlink:href="#bbburst-shape-12" width="4.826075984271026" opacity="0.9162184919786683" transform="matrix(0.9999677105814883,0.008036031011443262,-0.008036031011443262,0.9999677105814883,438.48487050207876,-1.1905435532471529)" fill="none" stroke="#5a0e99"></use><use xlink:href="#bbburst-shape-8" width="33.18729273019672" opacity="0.10367028042499737" transform="matrix(1.70274128374368,-0.4039456902046665,0.4039456902046665,1.70274128374368,-153.88374801827499,-448.0511234465498)" fill="none" stroke="#5a0e99" filter="url(#bbburst-blur-4)"></use><use xlink:href="#bbburst-shape-12" width="23.731445497436052" opacity="0.3752763607457317" transform="matrix(0.9511156281954806,-0.30883500741061776,0.30883500741061776,0.9511156281954806,543.9653835855942,-12.92119955996668)" fill="none" stroke="#ffc069" filter="url(#bbburst-blur-2)"></use><use xlink:href="#bbburst-shape-11" width="14.21221988613481" opacity="0.5844831922746867" transform="matrix(0.9678990457929987,-0.25133928692705937,0.25133928692705937,0.9678990457929987,198.8380135758672,-147.36051151372837)" fill="none" stroke="#5a0e99" filter="url(#bbburst-blur-1)"></use><use xlink:href="#bbburst-shape-14" width="4.859177754863211" opacity="0.9275619328063326" transform="matrix(0.7849263280668654,0.6195891053815163,-0.6195891053815163,0.7849263280668654,631.4812579392626,55.306601711929886)" fill="none" stroke="#f22e62"></use><use xlink:href="#bbburst-shape-12" width="32.79346661022356" opacity="0.33022328038041526" transform="matrix(1.2461108150028095,-0.09852835496969246,0.09852835496969246,1.2461108150028095,317.7638032208744,-397.46979080428395)" fill="none" stroke="#ff0075" filter="url(#bbburst-blur-3)"></use><use xlink:href="#bbburst-shape-13" width="10.690240753597976" opacity="0.784006787023022" transform="matrix(0.8410457910570898,0.5409639334975614,-0.5409639334975614,0.8410457910570898,636.7707947766423,154.6486642527189)" fill="none" stroke="#f22e62"></use><use xlink:href="#bbburst-shape-12" width="26.37846780295462" opacity="0.27334288974332577" transform="matrix(0.8927668937642861,0.8749098658710325,-0.8749098658710325,0.8927668937642861,919.3305844571748,303.5776701154294)" fill="none" stroke="#5a0e99" filter="url(#bbburst-blur-3)"></use><use xlink:href="#bbburst-shape-8" width="10.621082083950505" opacity="0.7300580987084817" transform="matrix(0.8332991228764212,0.5528223691326059,-0.5528223691326059,0.8332991228764212,574.6881572129722,177.7208477528307)" fill="none" stroke="#ffc069" filter="url(#bbburst-blur-1)"></use><use xlink:href="#bbburst-shape-8" width="32.058107569212524" opacity="0.34976621925134854" transform="matrix(0.9674139295503332,-0.25320009658762566,0.25320009658762566,0.9674139295503332,46.353486493452735,188.89305591607518)" fill="none" stroke="#3db2ff" filter="url(#bbburst-blur-2)"></use><use xlink:href="#bbburst-shape-11" width="11.54856978931283" opacity="0.7493845977839322" transform="matrix(0.9722310566174318,0.2340230171341102,-0.2340230171341102,0.9722310566174318,590.0123499513987,57.75980970523085)" fill="none" stroke="#f22e62" filter="url(#bbburst-blur-1)"></use><use xlink:href="#bbburst-shape-10" width="6.116026987597834" opacity="0.8511083661356277" transform="matrix(0.9971844645906334,-0.07498762283931884,0.07498762283931884,0.9971844645906334,360.97357949149335,-65.37813425168645)" fill="none" stroke="#ff0075"></use><use xlink:href="#bbburst-shape-2" width="15.314192963004519" opacity="0.5927731721827896" transform="matrix(0.866768878286616,-0.49871004765671356,0.49871004765671356,0.866768878286616,70.402684670007,-78.28513928629962)" fill="#3db2ff" filter="url(#bbburst-blur-1)"></use><use xlink:href="#bbburst-shape-4" width="6.153167962403999" opacity="0.8560342463654391" transform="matrix(0.9420085285317404,-0.335588933329848,0.335588933329848,0.9420085285317404,324.76365942130894,43.36506907860297)" fill="#ffc069"></use><use xlink:href="#bbburst-shape-10" width="27.949087941522187" opacity="0.1874540733330038" transform="matrix(1.0598191060303677,0.6627846275321965,-0.6627846275321965,1.0598191060303677,286.475111812843,3.2212588400335562)" fill="none" stroke="#ff0075" filter="url(#bbburst-blur-3)"></use><use xlink:href="#bbburst-shape-12" width="8.334329316934735" opacity="0.8280089111123194" transform="matrix(0.9062887707920684,0.4226590398136561,-0.4226590398136561,0.9062887707920684,531.5603616591807,105.36744266398051)" fill="none" stroke="#3db2ff"></use><use xlink:href="#bbburst-shape-2" width="13.215871721486977" opacity="0.7043215678036031" transform="matrix(0.8909422733570495,-0.45411657704313385,0.45411657704313385,0.8909422733570495,245.36376254721142,175.55479818757578)" fill="#f22e62" filter="url(#bbburst-blur-1)"></use><use xlink:href="#bbburst-shape-9" width="8.224452582885757" opacity="0.8313594910691267" transform="matrix(0.9852795478198078,0.17095090712831892,-0.17095090712831892,0.9852795478198078,526.1836970914903,49.109564885774944)" fill="none" stroke="#0e9976"></use><use xlink:href="#bbburst-shape-10" width="14.934849071920468" opacity="0.595762460149162" transform="matrix(0.8161382811338246,0.5778566483721773,-0.5778566483721773,0.8161382811338246,445.33004443627533,41.09613294260936)" fill="none" stroke="#ff0075" filter="url(#bbburst-blur-1)"></use><use xlink:href="#bbburst-shape-9" width="7.742624815736571" opacity="0.8205962073330365" transform="matrix(0.8210112389831282,0.5709120295311605,-0.5709120295311605,0.8210112389831282,663.7499320476993,140.2844330315752)" fill="none" stroke="#3db2ff"></use><use xlink:href="#bbburst-shape-13" width="9.722720766567704" opacity="0.7713852624936355" transform="matrix(0.9999847068776696,0.00553046207664083,-0.00553046207664083,0.9999847068776696,348.5038155133506,-90.56116722899998)" fill="none" stroke="#5a0e99" filter="url(#bbburst-blur-1)"></use><use xlink:href="#bbburst-shape-14" width="18.72789234248623" opacity="0.48901957009046804" transform="matrix(0.8792314416816719,-0.4763948697859463,0.4763948697859463,0.8792314416816719,430.8604263794472,41.013597216814844)" fill="none" stroke="#3db2ff" filter="url(#bbburst-blur-2)"></use><use xlink:href="#bbburst-shape-2" width="26.40589895440237" opacity="0.4407325450339922" transform="matrix(0.742056869266813,-0.67033693227655,0.67033693227655,0.742056869266813,335.7188359985873,245.06032370805133)" fill="#0e9976" filter="url(#bbburst-blur-2)"></use><use xlink:href="#bbburst-shape-5" width="5.778009860402723" opacity="0.9408407780060565" transform="matrix(0.9641507984547614,-0.2653549280474101,0.2653549280474101,0.9641507984547614,294.76964219736345,-11.257396076138491)" fill="#ff0075"></use><use xlink:href="#bbburst-shape-8" width="15.90537401470489" opacity="0.5254649587758062" transform="matrix(0.8470735914805041,0.5314756162010822,-0.5314756162010822,0.8470735914805041,392.4273525169708,49.95507682806226)" fill="none" stroke="#0e9976" filter="url(#bbburst-blur-2)"></use><use xlink:href="#bbburst-shape-8" width="31.911483729449515" opacity="0.33443470467503655" transform="matrix(0.8036176787850563,-0.595145886606064,0.595145886606064,0.8036176787850563,-66.08638928004123,-120.25224152417101)" fill="none" stroke="#ffc069" filter="url(#bbburst-blur-2)"></use><use xlink:href="#bbburst-shape-5" width="7.623454811073134" opacity="0.8064633859559586" transform="matrix(0.9978257337821913,0.06590754890019444,-0.06590754890019444,0.9978257337821913,488.93790644210316,-55.76274712005841)" fill="#ff0075"></use><use xlink:href="#bbburst-shape-9" width="18.906942170360885" opacity="0.5793346571039822" transform="matrix(0.9974559358750819,-0.07128573481114232,0.07128573481114232,0.9974559358750819,315.89006809348314,-182.0215073241365)" fill="none" stroke="#3db2ff" filter="url(#bbburst-blur-1)"></use><use xlink:href="#bbburst-shape-14" width="6.483613491942504" opacity="0.9381877255466369" transform="matrix(0.9996191304346628,0.02759699384079257,-0.02759699384079257,0.9996191304346628,390.48120450590255,21.83933156615717)" fill="none" stroke="#ff0075"></use><use xlink:href="#bbburst-shape-9" width="36.30867650283387" opacity="0.006989944531120229" transform="matrix(1.4520849998998604,-0.9767032062330001,0.9767032062330001,1.4520849998998604,-371.68475785188303,108.71407503820797)" fill="none" stroke="#ff0075" filter="url(#bbburst-blur-4)"></use><use xlink:href="#bbburst-shape-8" width="26.695384074335113" opacity="0.15789729636805327" transform="matrix(1.2473760793939341,-0.0809500868178499,0.0809500868178499,1.2473760793939341,277.6128215425761,-469.6479675583522)" fill="none" stroke="#ff0075" filter="url(#bbburst-blur-3)"></use><use xlink:href="#bbburst-shape-2" width="31.439674856982656" opacity="0.34490812542512295" transform="matrix(0.8484813023432457,0.5292253580223737,-0.5292253580223737,0.8484813023432457,871.5299609798806,163.07718963648182)" fill="#ff0075" filter="url(#bbburst-blur-2)"></use><use xlink:href="#bbburst-shape-5" width="12.646663216192337" opacity="0.7197514201801591" transform="matrix(0.9994816595888186,0.03219335561231452,-0.03219335561231452,0.9994816595888186,485.3633308257929,98.46089521522958)" fill="#3db2ff" filter="url(#bbburst-blur-1)"></use><use xlink:href="#bbburst-shape-13" width="14.428068320463314" opacity="0.6803096651539169" transform="matrix(0.9704946128581289,-0.24112280359466337,0.24112280359466337,0.9704946128581289,266.0684062404409,154.136002851052)" fill="none" stroke="#ffc069" filter="url(#bbburst-blur-1)"></use><use xlink:href="#bbburst-shape-4" width="22.817989886416346" opacity="0.457006212100892" transform="matrix(0.7946221406638618,0.6071043185209456,-0.6071043185209456,0.7946221406638618,822.3292191440867,-80.15655247766381)" fill="#ffc069" filter="url(#bbburst-blur-2)"></use><use xlink:href="#bbburst-shape-13" width="32.31061032973846" opacity="0.1330880646920557" transform="matrix(1.2495528390911368,-0.033432055265563254,0.033432055265563254,1.2495528390911368,530.3309534631785,254.73301932363296)" fill="none" stroke="#3db2ff" filter="url(#bbburst-blur-3)"></use><use xlink:href="#bbburst-shape-13" width="15.264999372064075" opacity="0.663731180012044" transform="matrix(0.9754864006705783,-0.220059723954112,0.220059723954112,0.9754864006705783,454.9900816581424,27.609972324125522)" fill="none" stroke="#5a0e99" filter="url(#bbburst-blur-1)"></use><use xlink:href="#bbburst-shape-2" width="6.572581127599374" opacity="0.8882011173811272" transform="matrix(0.995138131373524,-0.09848908308239435,0.09848908308239435,0.995138131373524,346.58828599237563,51.420123900681574)" fill="#5a0e99"></use><use xlink:href="#bbburst-shape-3" width="25.58801874230312" opacity="0.3944145905858729" transform="matrix(0.9322140591801911,-0.3619073747062793,0.3619073747062793,0.9322140591801911,175.20536408854264,295.66949016454305)" fill="#3db2ff" filter="url(#bbburst-blur-2)"></use><use xlink:href="#bbburst-shape-13" width="5.04147768957001" opacity="0.8761458142453293" transform="matrix(0.991656076776007,0.12891169610713402,-0.12891169610713402,0.991656076776007,500.04389489083576,-19.51449735975268)" fill="none" stroke="#3db2ff"></use><use xlink:href="#bbburst-shape-5" width="21.28535558028145" opacity="0.4943383911724033" transform="matrix(0.7451967122446663,-0.6668447046050077,0.6668447046050077,0.7451967122446663,32.83255106279586,-98.88058455330543)" fill="#ff0075" filter="url(#bbburst-blur-2)"></use><use xlink:href="#bbburst-shape-2" width="6.968699881888913" opacity="0.8713854965037295" transform="matrix(0.9852420070458435,0.17116713338803694,-0.17116713338803694,0.9852420070458435,436.46344677893705,55.6436975272166)" fill="#5a0e99"></use><use xlink:href="#bbburst-shape-5" width="27.22022507338254" opacity="0.31066054053656644" transform="matrix(1.080795956398442,-0.6279968954005881,0.6279968954005881,1.080795956398442,-169.0368872957538,42.099276522495416)" fill="#5a0e99" filter="url(#bbburst-blur-3)"></use><use xlink:href="#bbburst-shape-5" width="16.796322452342846" opacity="0.15923551296442096" transform="matrix(1.028462842221978,0.7104675799561095,-0.7104675799561095,1.028462842221978,1051.6366266737052,-58.61832866284544)" fill="#0e9976" filter="url(#bbburst-blur-3)"></use><use xlink:href="#bbburst-shape-8" width="8.183216227954349" opacity="0.8534321668960714" transform="matrix(0.8328674653580597,-0.5534724791243384,0.5534724791243384,0.8328674653580597,122.88121066866984,28.961206009477678)" fill="none" stroke="#3db2ff"></use><use xlink:href="#bbburst-shape-13" width="23.734531273829447" opacity="0.43561533706995315" transform="matrix(0.8540037557106264,0.5202668404118648,-0.5202668404118648,0.8540037557106264,350.2815929988288,-3.9162416998957497)" fill="none" stroke="#3db2ff" filter="url(#bbburst-blur-2)"></use><use xlink:href="#bbburst-shape-2" width="6.090430414122314" opacity="0.8535917353120883" transform="matrix(0.9894226590093953,-0.14506137266266947,0.14506137266266947,0.9894226590093953,366.8646111837481,-55.008106794778655)" fill="#0e9976"></use><use xlink:href="#bbburst-shape-13" width="11.880290382340965" opacity="0.667804741583337" transform="matrix(0.8926704158146841,-0.4507100273227112,0.4507100273227112,0.8926704158146841,348.23552229795325,112.22938519871707)" fill="none" stroke="#ffc069" filter="url(#bbburst-blur-1)"></use><use xlink:href="#bbburst-shape-4" width="14.885908770193048" opacity="0.6843462674082359" transform="matrix(0.7508992078849287,-0.6604168226187054,0.6604168226187054,0.7508992078849287,25.964885183278625,8.126935125087186)" fill="#ff0075" filter="url(#bbburst-blur-1)"></use><use xlink:href="#bbburst-shape-12" width="9.253430687314252" opacity="0.8323934720341497" transform="matrix(0.9961007128281253,-0.08822340904374903,0.08822340904374903,0.9961007128281253,331.8896392938783,-67.99712970613552)" fill="none" stroke="#f22e62"></use><use xlink:href="#bbburst-shape-2" width="11.994647699649017" opacity="0.7479400371725211" transform="matrix(0.8654038811392172,0.5010749669552248,-0.5010749669552248,0.8654038811392172,488.35189562289423,88.80280473158217)" fill="#ffc069" filter="url(#bbburst-blur-1)"></use><use xlink:href="#bbburst-shape-9" width="15.93877985493264" opacity="0.6665869665917836" transform="matrix(0.9999566263907783,-0.009313717688087808,0.009313717688087808,0.9999566263907783,270.83453098936235,93.31996592113273)" fill="none" stroke="#3db2ff" filter="url(#bbburst-blur-1)"></use><use xlink:href="#bbburst-shape-13" width="13.405422783256178" opacity="0.7106629360056584" transform="matrix(0.8367204202409237,-0.5476302934935684,0.5476302934935684,0.8367204202409237,108.68812049295713,180.83080356845522)" fill="none" stroke="#3db2ff" filter="url(#bbburst-blur-1)"></use><use xlink:href="#bbburst-shape-3" width="9.15433804383046" opacity="0.804808118564607" transform="matrix(0.9723165390322709,0.23366760135779716,-0.23366760135779716,0.9723165390322709,521.7680048928074,-71.49260779195845)" fill="#5a0e99"></use><use xlink:href="#bbburst-shape-4" width="16.936596516043416" opacity="0.6612037443460806" transform="matrix(0.7192854891903936,0.6947146068999386,-0.6947146068999386,0.7192854891903936,658.2469538825987,-45.442346841031224)" fill="#5a0e99" filter="url(#bbburst-blur-1)"></use><use xlink:href="#bbburst-shape-11" width="34.46208948698568" opacity="0.06021845762632061" transform="matrix(1.7176765997616736,0.3347941137940978,-0.3347941137940978,1.7176765997616736,722.1999473377374,-656.147577462214)" fill="none" stroke="#0e9976" filter="url(#bbburst-blur-4)"></use><use xlink:href="#bbburst-shape-8" width="16.52831850248973" opacity="0.5672364031921813" transform="matrix(0.9282806289888907,0.37188045638886347,-0.37188045638886347,0.9282806289888907,590.7668284695891,-162.68414351213602)" fill="none" stroke="#ffc069" filter="url(#bbburst-blur-1)"></use><use xlink:href="#bbburst-shape-5" width="15.197116204699817" opacity="0.5364448647586122" transform="matrix(0.9044349357204997,0.4266115880379429,-0.4266115880379429,0.9044349357204997,638.287356489756,229.82119645251333)" fill="#ffc069" filter="url(#bbburst-blur-2)"></use><use xlink:href="#bbburst-shape-10" width="16.608057874161997" opacity="0.5683103141418523" transform="matrix(0.7094569645255037,0.7047487605425484,-0.7047487605425484,0.7094569645255037,806.9787161167419,-33.105590550968884)" fill="none" stroke="#0e9976" filter="url(#bbburst-blur-1)"></use><use xlink:href="#bbburst-shape-13" width="5.9334487547292545" opacity="0.9651556795077552" transform="matrix(0.9964837039665183,-0.08378679925363149,0.08378679925363149,0.9964837039665183,371.5218521543376,15.14489283526217)" fill="none" stroke="#ff0075"></use><use xlink:href="#bbburst-shape-3" width="24.58478617462768" opacity="0.17669572156864177" transform="matrix(0.9490647753353039,-0.8134961906596423,0.8134961906596423,0.9490647753353039,38.82958766230746,400.1579199829664)" fill="#0e9976" filter="url(#bbburst-blur-3)"></use><use xlink:href="#bbburst-shape-3" width="22.159137270660736" opacity="0.4258821228367846" transform="matrix(0.9771418877300643,0.21258817286793363,-0.21258817286793363,0.9771418877300643,509.15865257756366,262.73674157988495)" fill="#3db2ff" filter="url(#bbburst-blur-2)"></use><use xlink:href="#bbburst-shape-13" width="13.011445272590988" opacity="0.6957912773693037" transform="matrix(0.8208142042559619,-0.5711952749206283,0.5711952749206283,0.8208142042559619,270.0307309919116,-13.802543084974786)" fill="none" stroke="#3db2ff" filter="url(#bbburst-blur-1)"></use><use xlink:href="#bbburst-shape-12" width="12.464453138084334" opacity="0.7200446188094014" transform="matrix(0.8525605138722255,-0.5226285202569094,0.5226285202569094,0.8525605138722255,307.55401529909005,30.529822641578164)" fill="none" stroke="#ffc069" filter="url(#bbburst-blur-1)"></use><use xlink:href="#bbburst-shape-12" width="26.64884910484998" opacity="0.3161629908279239" transform="matrix(1.2093126983401943,-0.3163270422097332,0.3163270422097332,1.2093126983401943,-49.445623350789774,-103.60934825992138)" fill="none" stroke="#0e9976" filter="url(#bbburst-blur-3)"></use><use xlink:href="#bbburst-shape-8" width="29.979515986035267" opacity="0.2037502231005397" transform="matrix(1.2488295810680858,0.05408028706755483,-0.05408028706755483,1.2488295810680858,214.3333113138101,204.33058166135106)" fill="none" stroke="#5a0e99" filter="url(#bbburst-blur-3)"></use><use xlink:href="#bbburst-shape-10" width="8.517762367139822" opacity="0.7621379716997011" transform="matrix(0.7349485553268857,-0.6781228657278293,0.6781228657278293,0.7349485553268857,217.51558292676663,54.02271402178286)" fill="none" stroke="#5a0e99" filter="url(#bbburst-blur-1)"></use><use xlink:href="#bbburst-shape-13" width="11.411913912815365" opacity="0.650498027141067" transform="matrix(0.9783703170973013,-0.20686111916676392,0.20686111916676392,0.9783703170973013,344.823989937649,-143.91016327744325)" fill="none" stroke="#3db2ff" filter="url(#bbburst-blur-1)"></use><use xlink:href="#bbburst-shape-5" width="6.10729285060403" opacity="0.8328000096816046" transform="matrix(0.9820163966124854,-0.1887956482131664,0.1887956482131664,0.9820163966124854,325.2721058125408,82.91448168916492)" fill="#ff0075"></use><use xlink:href="#bbburst-shape-10" width="9.166553713517736" opacity="0.8381951741575604" transform="matrix(0.7813686788924632,-0.6240696977468516,0.6240696977468516,0.7813686788924632,80.71246050067884,120.89471802726518)" fill="none" stroke="#3db2ff"></use><use xlink:href="#bbburst-shape-11" width="8.893313331683323" opacity="0.8016613947310092" transform="matrix(0.8441323564234445,-0.5361348383000333,0.5361348383000333,0.8441323564234445,114.5080513194564,123.34593504353614)" fill="none" stroke="#ff0075"></use><use xlink:href="#bbburst-shape-13" width="4.877575987834351" opacity="0.95947385734145" transform="matrix(0.973382459420142,0.22918679650711904,-0.22918679650711904,0.973382459420142,482.1521283442646,-6.689152091048072)" fill="none" stroke="#3db2ff"></use><use xlink:href="#bbburst-shape-4" width="32.713785958011144" opacity="0.09038467066019751" transform="matrix(1.6211601365553163,-0.6590446203740292,0.6590446203740292,1.6211601365553163,-251.7791728474991,-45.938530332746154)" fill="#ffc069" filter="url(#bbburst-blur-4)"></use><use xlink:href="#bbburst-shape-12" width="32.94879962901669" opacity="0.2109719535679523" transform="matrix(1.1832968875860967,0.4028752608799108,-0.4028752608799108,1.1832968875860967,851.8102109308841,92.85702393578242)" fill="none" stroke="#3db2ff" filter="url(#bbburst-blur-3)"></use><use xlink:href="#bbburst-shape-4" width="6.272444171947754" opacity="0.9359929009239664" transform="matrix(0.9999416038900364,-0.010806887147628272,0.010806887147628272,0.9999416038900364,368.8571106698963,-16.32867322845209)" fill="#ff0075"></use><use xlink:href="#bbburst-shape-10" width="25.75402371371504" opacity="0.3895766521105982" transform="matrix(0.8284172456719867,-0.5601114773625329,0.5601114773625329,0.8284172456719867,284.5523260698232,-171.60305827163344)" fill="none" stroke="#ffc069" filter="url(#bbburst-blur-2)"></use><use xlink:href="#bbburst-shape-3" width="16.30020162371306" opacity="0.6099166566203317" transform="matrix(0.9771755411794951,-0.2124334289149448,0.2124334289149448,0.9771755411794951,475.2341308333995,60.98706036388006)" fill="#3db2ff" filter="url(#bbburst-blur-1)"></use><use xlink:href="#bbburst-shape-4" width="16.985469090386967" opacity="0.5290482957306802" transform="matrix(0.8469521629193011,0.5316691017224131,-0.5316691017224131,0.8469521629193011,491.2804632349855,235.25295980749314)" fill="#ff0075" filter="url(#bbburst-blur-2)"></use><use xlink:href="#bbburst-shape-4" width="5.0425079609573435" opacity="0.9432851251205826" transform="matrix(0.9870280395532023,0.16054796521838005,-0.16054796521838005,0.9870280395532023,487.20794541247017,3.296619125467828)" fill="#3db2ff"></use><use xlink:href="#bbburst-shape-11" width="27.7122499395971" opacity="0.11715054487713494" transform="matrix(1.2305837094392953,-0.2194623750500842,0.2194623750500842,1.2305837094392953,151.70739102478487,280.8755490502939)" fill="none" stroke="#f22e62" filter="url(#bbburst-blur-3)"></use><use xlink:href="#bbburst-shape-9" width="25.10306145645596" opacity="0.43245633732068034" transform="matrix(0.9792098543588729,0.2028498487218441,-0.2028498487218441,0.9792098543588729,615.9820220257817,214.38287181816713)" fill="none" stroke="#ffc069" filter="url(#bbburst-blur-2)"></use><use xlink:href="#bbburst-shape-13" width="11.805090986430596" opacity="0.642144116006087" transform="matrix(0.935741894716793,0.35268556317465866,-0.35268556317465866,0.935741894716793,643.5535159528092,143.06925642402229)" fill="none" stroke="#3db2ff" filter="url(#bbburst-blur-1)"></use><use xlink:href="#bbburst-shape-5" width="11.960203147738252" opacity="0.6993668778050263" transform="matrix(0.8839673755552763,0.4675485845919301,-0.4675485845919301,0.8839673755552763,701.6597380177881,-18.989933112626147)" fill="#ff0075" filter="url(#bbburst-blur-1)"></use><use xlink:href="#bbburst-shape-14" width="27.554140963296256" opacity="0.1078824816285755" transform="matrix(1.4971301577783924,-0.9061463958271012,0.9061463958271012,1.4971301577783924,386.6970092807468,-342.6802330703715)" fill="none" stroke="#ff0075" filter="url(#bbburst-blur-4)"></use><use xlink:href="#bbburst-shape-2" width="7.624310414895321" opacity="0.8223308856273477" transform="matrix(0.9877874064511034,-0.15580770088991974,0.15580770088991974,0.9877874064511034,413.14186281695055,16.197030758445806)" fill="#5a0e99"></use><use xlink:href="#bbburst-shape-11" width="11.366089268251134" opacity="0.6900550777986059" transform="matrix(0.9677263987744719,0.2520032085410655,-0.2520032085410655,0.9677263987744719,421.68631128038953,-107.10718692867954)" fill="none" stroke="#ff0075" filter="url(#bbburst-blur-1)"></use><use xlink:href="#bbburst-shape-1" width="6.125034563616168" opacity="0.8899276771748997" transform="matrix(0.7242600075453399,-0.6895269693568369,0.6895269693568369,0.7242600075453399,147.1510084486423,69.75519814594253)" fill="#ff0075"></use><use xlink:href="#bbburst-shape-13" width="4.597697217071909" opacity="0.8741723037200383" transform="matrix(0.7742393807715344,0.6328928671287984,-0.6328928671287984,0.7742393807715344,692.0509555312212,128.2416563676585)" fill="none" stroke="#ff0075"></use><use xlink:href="#bbburst-shape-11" width="22.43315099774501" opacity="0.564899761056783" transform="matrix(0.96974579235719,0.2441169764795672,-0.2441169764795672,0.96974579235719,597.3240778427885,170.72789916323802)" fill="none" stroke="#0e9976" filter="url(#bbburst-blur-1)"></use><use xlink:href="#bbburst-shape-11" width="7.672055637932937" opacity="0.8101767831057597" transform="matrix(0.9009584426730622,-0.43390538666410944,0.43390538666410944,0.9009584426730622,301.99086661827437,73.55603196995474)" fill="none" stroke="#0e9976"></use><use xlink:href="#bbburst-shape-4" width="9.599334455405252" opacity="0.7489662585612609" transform="matrix(0.9934181112434407,-0.1145445601218795,0.1145445601218795,0.9934181112434407,275.38160668704035,-82.13274664761491)" fill="#0e9976" filter="url(#bbburst-blur-1)"></use><use xlink:href="#bbburst-shape-11" width="11.118652077038972" opacity="0.6704021993612685" transform="matrix(0.9986038283651398,0.052824179827862444,-0.052824179827862444,0.9986038283651398,491.92002941352985,127.28929404061347)" fill="none" stroke="#f22e62" filter="url(#bbburst-blur-1)"></use><use xlink:href="#bbburst-shape-2" width="7.496715910201779" opacity="0.8282196468285914" transform="matrix(0.9400156688176453,0.3411312685423529,-0.3411312685423529,0.9400156688176453,462.6632959451474,-9.505343778812403)" fill="#ffc069"></use><use xlink:href="#bbburst-shape-12" width="5.8774625720509075" opacity="0.8557445276620519" transform="matrix(0.9276113260318904,0.3735468214526229,-0.3735468214526229,0.9276113260318904,583.3158375110601,81.44812705301138)" fill="none" stroke="#ff0075"></use><use xlink:href="#bbburst-shape-12" width="16.66536363490872" opacity="0.4956510725829032" transform="matrix(0.857433923105981,-0.51459408032651,0.51459408032651,0.857433923105981,351.18880780404356,217.9799367252793)" fill="none" stroke="#ff0075" filter="url(#bbburst-blur-2)"></use><use xlink:href="#bbburst-shape-3" width="33.25811689023012" opacity="0.29398352371228575" transform="matrix(1.1292593314425106,-0.5359788823731902,0.5359788823731902,1.1292593314425106,398.1820601059916,-260.3184838972895)" fill="#ff0075" filter="url(#bbburst-blur-3)"></use><use xlink:href="#bbburst-shape-11" width="4.713801055942972" opacity="0.9640397010396646" transform="matrix(0.9860189440909889,-0.16663325566552242,0.16663325566552242,0.9860189440909889,338.7794190645574,-8.27115874303803)" fill="none" stroke="#5a0e99"></use><use xlink:href="#bbburst-shape-11" width="21.704977635429046" opacity="0.5808344561685326" transform="matrix(0.9635086668951132,-0.26767713540383287,0.26767713540383287,0.9635086668951132,284.2279593852539,-171.38360354779633)" fill="none" stroke="#5a0e99" filter="url(#bbburst-blur-1)"></use><use xlink:href="#bbburst-shape-13" width="8.917530935358949" opacity="0.753307686703168" transform="matrix(0.9066806397651205,0.4218177538642866,-0.4218177538642866,0.9066806397651205,618.6905858087569,-61.542200786224385)" fill="none" stroke="#ffc069" filter="url(#bbburst-blur-1)"></use><use xlink:href="#bbburst-shape-5" width="5.39543056032988" opacity="0.939591813424252" transform="matrix(0.999993973264897,-0.003471805565480223,0.003471805565480223,0.999993973264897,370.0476196741718,8.372687014359087)" fill="#0e9976"></use><use xlink:href="#bbburst-shape-1" width="13.890039832513622" opacity="0.633237494865347" transform="matrix(0.9578565801926274,0.2872468829799284,-0.2872468829799284,0.9578565801926274,570.5256947585165,167.71900069279076)" fill="#5a0e99" filter="url(#bbburst-blur-1)"></use><use xlink:href="#bbburst-shape-11" width="28.462042248669544" opacity="0.15371273607844982" transform="matrix(1.0951129852948414,0.6026836230051555,-0.6026836230051555,1.0951129852948414,365.93828458820195,-325.50096143227404)" fill="none" stroke="#ffc069" filter="url(#bbburst-blur-3)"></use><use xlink:href="#bbburst-shape-1" width="11.325344168262879" opacity="0.6782819492762233" transform="matrix(0.8428835985746805,-0.5380959387077706,0.5380959387077706,0.8428835985746805,180.54135932633622,210.6780026938443)" fill="#5a0e99" filter="url(#bbburst-blur-1)"></use><use xlink:href="#bbburst-shape-4" width="20.104750355115325" opacity="0.6057153666595018" transform="matrix(0.9915812232176878,-0.12948620684116888,0.12948620684116888,0.9915812232176878,162.7519739398892,30.853076032887543)" fill="#ff0075" filter="url(#bbburst-blur-1)"></use><use xlink:href="#bbburst-shape-2" width="11.346650570341696" opacity="0.7292597166967089" transform="matrix(0.7863459865767108,-0.6177863622602066,0.6177863622602066,0.7863459865767108,270.2602861500959,88.58382399425597)" fill="#5a0e99" filter="url(#bbburst-blur-1)"></use><use xlink:href="#bbburst-shape-3" width="22.96409474109602" opacity="0.32521158721645016" transform="matrix(1.1126790839447969,0.569600962211062,-0.569600962211062,1.1126790839447969,665.060386721448,-351.1561256212272)" fill="#ffc069" filter="url(#bbburst-blur-3)"></use><use xlink:href="#bbburst-shape-13" width="10.357831364842538" opacity="0.7844403256668752" transform="matrix(0.7488729938132063,-0.6627135422920264,0.6627135422920264,0.7488729938132063,223.54952737421235,74.7169874894384)" fill="none" stroke="#ffc069"></use><use xlink:href="#bbburst-shape-13" width="4.704274525357055" opacity="0.9572211929908051" transform="matrix(0.8742994676279022,-0.48538689816018593,0.48538689816018593,0.8742994676279022,221.82129095849666,58.160494241042784)" fill="none" stroke="#0e9976"></use><use xlink:href="#bbburst-shape-2" width="21.679938169645016" opacity="0.5577494547518225" transform="matrix(0.9757832517191285,0.2187396755607996,-0.2187396755607996,0.9757832517191285,651.9553412010173,102.02214242721573)" fill="#ff0075" filter="url(#bbburst-blur-1)"></use><use xlink:href="#bbburst-shape-11" width="16.977976134663038" opacity="0.5692998920861596" transform="matrix(0.9995660778245363,0.02945600214681329,-0.02945600214681329,0.9995660778245363,596.5809012838239,14.131555829054776)" fill="none" stroke="#5a0e99" filter="url(#bbburst-blur-1)"></use><use xlink:href="#bbburst-shape-8" width="9.251796990792153" opacity="0.811507392890858" transform="matrix(0.9598534747517196,-0.28050188414171123,0.28050188414171123,0.9598534747517196,276.7838619490401,-67.21025766379944)" fill="none" stroke="#3db2ff"></use><use xlink:href="#bbburst-shape-10" width="18.15225535868951" opacity="0.6290725648043879" transform="matrix(0.8170570515421258,-0.5765568267961867,0.5765568267961867,0.8170570515421258,317.0621276340513,16.723733777861412)" fill="none" stroke="#3db2ff" filter="url(#bbburst-blur-1)"></use><use xlink:href="#bbburst-shape-11" width="26.281887331006267" opacity="0.40035791132206844" transform="matrix(0.9825427808299194,-0.18603678087681708,0.18603678087681708,0.9825427808299194,61.50799776258384,107.88990456548566)" fill="none" stroke="#ff0075" filter="url(#bbburst-blur-2)"></use><use xlink:href="#bbburst-shape-10" width="5.801638974044249" opacity="0.9102211708460344" transform="matrix(0.879458967434852,-0.4759747100408003,0.4759747100408003,0.879458967434852,232.85543341950796,80.68957899861726)" fill="none" stroke="#0e9976"></use><use xlink:href="#bbburst-shape-4" width="6.534322130181298" opacity="0.9529718597244125" transform="matrix(0.9218075717592689,0.3876477791078911,-0.3876477791078911,0.9218075717592689,549.3266903181069,51.003273454376824)" fill="#f22e62"></use><use xlink:href="#bbburst-shape-8" width="13.988042597536051" opacity="0.6417777885568894" transform="matrix(0.9990955552384421,0.042521424044699725,-0.042521424044699725,0.9990955552384421,309.9529274472786,126.44412912643463)" fill="none" stroke="#5a0e99" filter="url(#bbburst-blur-1)"></use><use xlink:href="#bbburst-shape-1" width="5.654099928260944" opacity="0.8954768027119493" transform="matrix(0.928278306231112,0.3718862543583696,-0.3718862543583696,0.928278306231112,499.1851616760672,30.60193124182257)" fill="#3db2ff"></use><use xlink:href="#bbburst-shape-13" width="4.288916349879172" opacity="0.978150365367812" transform="matrix(0.8903748050352929,-0.45522819174383766,0.45522819174383766,0.8903748050352929,225.70260646151098,43.23832970011006)" fill="none" stroke="#ffc069"></use><use xlink:href="#bbburst-shape-11" width="8.672000144368557" opacity="0.8452643900516201" transform="matrix(0.927891138683394,-0.37285122334898463,0.37285122334898463,0.927891138683394,232.7424721731161,98.55491688275214)" fill="none" stroke="#f22e62"></use><use xlink:href="#bbburst-shape-2" width="5.3258537069088225" opacity="0.8491520922212668" transform="matrix(0.8254107508910445,0.5645326317525694,-0.5645326317525694,0.8254107508910445,667.4443465361875,16.500589712481485)" fill="#ff0075"></use><use xlink:href="#bbburst-shape-5" width="7.014329893154202" opacity="0.8326434083328578" transform="matrix(0.9241834581322944,0.3819488653139759,-0.3819488653139759,0.9241834581322944,624.5080861883791,21.83200280878907)" fill="#5a0e99"></use><use xlink:href="#bbburst-shape-8" width="35.054312765370895" opacity="0.16831490438522156" transform="matrix(1.1823425460691566,-0.40566747929148134,0.40566747929148134,1.1823425460691566,-56.483957264032284,189.65384582014076)" fill="none" stroke="#3db2ff" filter="url(#bbburst-blur-3)"></use><use xlink:href="#bbburst-shape-9" width="12.404478845594745" opacity="0.7072553558441647" transform="matrix(0.969829877299522,0.24378270877401098,-0.24378270877401098,0.969829877299522,595.622230136999,91.19988590562355)" fill="none" stroke="#5a0e99" filter="url(#bbburst-blur-1)"></use><use xlink:href="#bbburst-shape-2" width="13.678468096101373" opacity="0.676209325961594" transform="matrix(0.9662033628302631,0.2577810343207797,-0.2577810343207797,0.9662033628302631,355.53937751262515,48.63465004760735)" fill="#ff0075" filter="url(#bbburst-blur-1)"></use><use xlink:href="#bbburst-shape-13" width="7.727750314221041" opacity="0.8811685833034257" transform="matrix(0.958077023642355,0.28651076204674447,-0.28651076204674447,0.958077023642355,518.2845154493398,-37.29998841704037)" fill="none" stroke="#3db2ff"></use><use xlink:href="#bbburst-shape-9" width="29.653077704688044" opacity="0.4961312903717803" transform="matrix(0.9436901292567579,-0.33083068168379365,0.33083068168379365,0.9436901292567579,78.50741365659405,-116.81012617791805)" fill="none" stroke="#ffc069" filter="url(#bbburst-blur-2)"></use><use xlink:href="#bbburst-shape-13" width="8.343554332508107" opacity="0.7826333353505998" transform="matrix(0.7722267996406433,0.6353469681337668,-0.6353469681337668,0.7722267996406433,624.382408683847,-5.688348767800051)" fill="none" stroke="#ff0075"></use><use xlink:href="#bbburst-shape-14" width="5.664936154039397" opacity="0.927066055439385" transform="matrix(0.7281745527460548,-0.6853917279432857,0.6853917279432857,0.7281745527460548,144.34232269132195,85.09177751541756)" fill="none" stroke="#0e9976"></use><use xlink:href="#bbburst-shape-10" width="28.836786442075674" opacity="0.15402397549699154" transform="matrix(1.2465164521734258,-0.09325628376133868,0.09325628376133868,1.2465164521734258,-19.71788179083576,12.76469927770944)" fill="none" stroke="#0e9976" filter="url(#bbburst-blur-3)"></use><use xlink:href="#bbburst-shape-10" width="5.525225602005578" opacity="0.9870744825429009" transform="matrix(0.8104250824835534,-0.5858422873790571,0.5858422873790571,0.8104250824835534,160.17336806774756,72.62518692623422)" fill="none" stroke="#ff0075"></use><use xlink:href="#bbburst-shape-1" width="5.978299212986582" opacity="0.9105351670211883" transform="matrix(0.9822964070676056,-0.18733330900315892,0.18733330900315892,0.9822964070676056,286.77575851570776,26.903709674655886)" fill="#0e9976"></use><use xlink:href="#bbburst-shape-10" width="14.377856698289024" opacity="0.6885622617446794" transform="matrix(0.9374588301792116,-0.3480961673431984,0.3480961673431984,0.9374588301792116,129.1027598898691,91.05089784147373)" fill="none" stroke="#ff0075" filter="url(#bbburst-blur-1)"></use><use xlink:href="#bbburst-shape-10" width="18.442656481105008" opacity="0.4933248455175163" transform="matrix(0.7365055268661529,0.6764315256517917,-0.6764315256517917,0.7365055268661529,881.8854969095343,165.6145639127484)" fill="none" stroke="#0e9976" filter="url(#bbburst-blur-2)"></use><use xlink:href="#bbburst-shape-8" width="14.51274871465679" opacity="0.6318331699139574" transform="matrix(0.9117235181631974,0.4108043651522241,-0.4108043651522241,0.9117235181631974,484.2420599567306,180.82640401669812)" fill="none" stroke="#f22e62" filter="url(#bbburst-blur-1)"></use><use xlink:href="#bbburst-shape-4" width="8.353825842621333" opacity="0.7670690440030239" transform="matrix(0.9945215074434801,0.10453215405963846,-0.10453215405963846,0.9945215074434801,509.681832774882,77.91728409177296)" fill="#ffc069" filter="url(#bbburst-blur-1)"></use><use xlink:href="#bbburst-shape-14" width="29.8815949450082" opacity="0.12092209009063137" transform="matrix(1.0566700698743476,-0.6677936533329301,0.6677936533329301,1.0566700698743476,-51.957997247353376,-370.27835777019794)" fill="none" stroke="#ffc069" filter="url(#bbburst-blur-3)"></use><use xlink:href="#bbburst-shape-14" width="28.323311672794283" opacity="0.28236445809587873" transform="matrix(1.0771816069890392,0.6341764624806813,-0.6341764624806813,1.0771816069890392,468.9520195850669,-314.7266978650674)" fill="none" stroke="#5a0e99" filter="url(#bbburst-blur-3)"></use><use xlink:href="#bbburst-shape-8" width="5.3115822719260155" opacity="0.984714918532916" transform="matrix(0.9308699556940969,-0.36535068849814695,0.36535068849814695,0.9308699556940969,250.48793333651585,35.441517304484705)" fill="none" stroke="#ffc069"></use><use xlink:href="#bbburst-shape-13" width="5.626400772433135" opacity="0.9241509941671967" transform="matrix(0.8573921076175164,-0.5146637482815293,0.5146637482815293,0.8573921076175164,157.93616904762342,53.645201373799296)" fill="none" stroke="#3db2ff"></use><use xlink:href="#bbburst-shape-12" width="7.9963050513606815" opacity="0.7967917642495159" transform="matrix(0.7912423170684135,-0.6115027356277387,0.6115027356277387,0.7912423170684135,166.26305702415797,-4.423496005808545)" fill="none" stroke="#ff0075"></use><use xlink:href="#bbburst-shape-10" width="9.872613216088897" opacity="0.7929669671769425" transform="matrix(0.7275216301035924,-0.6860847452985758,0.6860847452985758,0.7275216301035924,95.74270473508727,201.7736388605781)" fill="none" stroke="#ffc069"></use><use xlink:href="#bbburst-shape-3" width="25.312826630272248" opacity="0.46169447004353426" transform="matrix(0.724463805505673,-0.6893128422655699,0.6893128422655699,0.724463805505673,-51.35484610624519,295.0540510843068)" fill="#3db2ff" filter="url(#bbburst-blur-2)"></use><use xlink:href="#bbburst-shape-2" width="11.342669087379559" opacity="0.7792493809953697" transform="matrix(0.9947209136763734,-0.10261726898939098,0.10261726898939098,0.9947209136763734,274.2327806411861,-57.420814732622716)" fill="#ffc069"></use><use xlink:href="#bbburst-shape-10" width="34.406104722749774" opacity="0.040617967716964465" transform="matrix(1.7468288550039606,0.10530408978549653,-0.10530408978549653,1.7468288550039606,774.9498666844357,-66.6571544988135)" fill="none" stroke="#5a0e99" filter="url(#bbburst-blur-4)"></use><use xlink:href="#bbburst-shape-5" width="4.943922145158801" opacity="0.9144905270798046" transform="matrix(0.9860008130520124,0.16674050695847867,-0.16674050695847867,0.9860008130520124,499.6343854460896,-9.952680338323944)" fill="#ffc069"></use><use xlink:href="#bbburst-shape-5" width="8.257548607178261" opacity="0.7841886720811632" transform="matrix(0.9823796511555727,-0.18689628406005104,0.18689628406005104,0.9823796511555727,418.0438806780228,0.7636707687984199)" fill="#ff0075"></use><use xlink:href="#bbburst-shape-11" width="23.772963758232216" opacity="0.2678704176960458" transform="matrix(1.230283780997759,-0.2211375549603878,0.2211375549603878,1.230283780997759,626.1038586569337,-101.56471072631422)" fill="none" stroke="#f22e62" filter="url(#bbburst-blur-3)"></use><use xlink:href="#bbburst-shape-11" width="21.613098154339475" opacity="0.45606765676710526" transform="matrix(0.9136631329221702,0.40647223710709307,-0.40647223710709307,0.9136631329221702,618.8622929737243,-205.80632846708272)" fill="none" stroke="#3db2ff" filter="url(#bbburst-blur-2)"></use><use xlink:href="#bbburst-shape-9" width="13.90410356130418" opacity="0.7073603109001128" transform="matrix(0.9736769753997961,-0.22793233113427497,0.22793233113427497,0.9736769753997961,312.5807821626726,-119.2424986519868)" fill="none" stroke="#3db2ff" filter="url(#bbburst-blur-1)"></use><use xlink:href="#bbburst-shape-10" width="11.774683604415378" opacity="0.6290750049247247" transform="matrix(0.742037073858237,0.6703588449628343,-0.6703588449628343,0.742037073858237,692.193309409312,263.71779693982637)" fill="none" stroke="#ff0075" filter="url(#bbburst-blur-1)"></use><use xlink:href="#bbburst-shape-12" width="4.775939362238345" opacity="0.9471242582314118" transform="matrix(0.9998548898648355,-0.01703523446794173,0.01703523446794173,0.9998548898648355,411.31111652051106,-11.96711761539001)" fill="none" stroke="#ffc069"></use><use xlink:href="#bbburst-shape-10" width="8.036964912286866" opacity="0.7945515483352628" transform="matrix(0.9767407429096616,0.2144236953796906,-0.2144236953796906,0.9767407429096616,481.02433864262593,100.89021107141525)" fill="none" stroke="#5a0e99"></use><use xlink:href="#bbburst-shape-5" width="5.606282999951907" opacity="0.9255146906329766" transform="matrix(0.8748187264394328,-0.48445040599723815,0.48445040599723815,0.8748187264394328,234.74552139375058,64.2309095239105)" fill="#ff0075"></use><use xlink:href="#bbburst-shape-13" width="6.395492981724133" opacity="0.8847189102868848" transform="matrix(0.9959761956633576,-0.08961817712911438,0.08961817712911438,0.9959761956633576,382.38281774168223,49.14617146747611)" fill="none" stroke="#f22e62"></use><use xlink:href="#bbburst-shape-12" width="8.520326397263617" opacity="0.8933156089537914" transform="matrix(0.8533724169203688,-0.5213017533439612,0.5213017533439612,0.8533724169203688,144.32844157627423,40.563834673292774)" fill="none" stroke="#5a0e99"></use><use xlink:href="#bbburst-shape-9" width="25.036164715555444" opacity="0.3221716416021886" transform="matrix(1.1981903882910674,-0.35614574742217686,0.35614574742217686,1.1981903882910674,41.76778277272547,154.65894970043786)" fill="none" stroke="#ff0075" filter="url(#bbburst-blur-3)"></use><use xlink:href="#bbburst-shape-13" width="9.905250778840717" opacity="0.7428231746986012" transform="matrix(0.9792928161187104,0.2024489572664814,-0.2024489572664814,0.9792928161187104,485.2764706504978,122.64774919354437)" fill="none" stroke="#ffc069" filter="url(#bbburst-blur-1)"></use><use xlink:href="#bbburst-shape-3" width="11.752345473473559" opacity="0.7393652438096802" transform="matrix(0.852082836222154,-0.5234069546878508,0.5234069546878508,0.852082836222154,68.98216740161106,74.83820364044874)" fill="#3db2ff" filter="url(#bbburst-blur-1)"></use><use xlink:href="#bbburst-shape-12" width="6.060859517157867" opacity="0.9394060249780253" transform="matrix(0.7752192393730744,-0.6316922754837454,0.6316922754837454,0.7752192393730744,164.61093882076543,110.72886802523135)" fill="none" stroke="#ffc069"></use><use xlink:href="#bbburst-shape-4" width="5.85608332494919" opacity="0.9030593611638351" transform="matrix(0.9121645861687981,0.4098240692535092,-0.4098240692535092,0.9121645861687981,530.5647275892487,2.9390180937340347)" fill="#5a0e99"></use><use xlink:href="#bbburst-shape-3" width="13.956065109598828" opacity="0.7111585226283812" transform="matrix(0.9197689199186808,-0.39246035972009125,0.39246035972009125,0.9197689199186808,110.55210198676681,2.925177658896871)" fill="#3db2ff" filter="url(#bbburst-blur-1)"></use><use xlink:href="#bbburst-shape-5" width="5.942916170728067" opacity="0.9127397581270142" transform="matrix(0.8417478876393766,0.5398708120047309,-0.5398708120047309,0.8417478876393766,623.1585141393305,23.649375543599206)" fill="#3db2ff"></use><use xlink:href="#bbburst-shape-13" width="24.508570339369676" opacity="0.37536180075293546" transform="matrix(0.9531351815921765,0.30254474976645823,-0.30254474976645823,0.9531351815921765,376.08555409904915,262.53354743709235)" fill="none" stroke="#5a0e99" filter="url(#bbburst-blur-2)"></use><use xlink:href="#bbburst-shape-1" width="27.187762173510492" opacity="0.5216481743562431" transform="matrix(0.9169200591262544,-0.39907092749523365,0.39907092749523365,0.9169200591262544,29.448195608566692,-44.64556621739854)" fill="#ff0075" filter="url(#bbburst-blur-2)"></use><use xlink:href="#bbburst-shape-9" width="7.9749918409048" opacity="0.8068679721549495" transform="matrix(0.9546418123651028,0.29775662895101396,-0.29775662895101396,0.9546418123651028,565.365539887898,-54.143865777225926)" fill="none" stroke="#3db2ff"></use><use xlink:href="#bbburst-shape-1" width="6.877558318825971" opacity="0.8825854572326947" transform="matrix(0.9546779180992411,-0.2976408451367165,0.2976408451367165,0.9546779180992411,329.87563347347566,11.062666979133212)" fill="#ffc069"></use><use xlink:href="#bbburst-shape-11" width="8.429038482855045" opacity="0.7583876042180802" transform="matrix(0.8310553593838003,0.5561897065205922,-0.5561897065205922,0.8310553593838003,615.2645637726075,-43.516715134520325)" fill="none" stroke="#ff0075" filter="url(#bbburst-blur-1)"></use><use xlink:href="#bbburst-shape-11" width="33.0612541978185" opacity="0.02696899464010727" transform="matrix(1.7492241912403643,0.052103059214339824,-0.052103059214339824,1.7492241912403643,137.1503544614909,54.79812700420109)" fill="none" stroke="#ffc069" filter="url(#bbburst-blur-4)"></use><use xlink:href="#bbburst-shape-3" width="9.20233760950484" opacity="0.7471274984508905" transform="matrix(0.9741481186808302,-0.22591025401827,0.22591025401827,0.9741481186808302,289.5136290295647,124.10557149134388)" fill="#ffc069" filter="url(#bbburst-blur-1)"></use><use xlink:href="#bbburst-shape-11" width="12.574034011269662" opacity="0.7126523958188951" transform="matrix(0.9882095868134405,0.15310719294013947,-0.15310719294013947,0.9882095868134405,579.9517815277068,37.07326183800859)" fill="none" stroke="#3db2ff" filter="url(#bbburst-blur-1)"></use><use xlink:href="#bbburst-shape-12" width="11.428845608635713" opacity="0.6999663482493004" transform="matrix(0.9822398398599277,-0.18762968046645406,0.18762968046645406,0.9822398398599277,370.48741792905054,-116.79265545915501)" fill="none" stroke="#ff0075" filter="url(#bbburst-blur-1)"></use><use xlink:href="#bbburst-shape-2" width="28.96134711468845" opacity="0.25599476931045906" transform="matrix(1.2499079554761914,-0.01516914095548887,0.01516914095548887,1.2499079554761914,284.4233587814822,222.3568082952366)" fill="#f22e62" filter="url(#bbburst-blur-3)"></use><use xlink:href="#bbburst-shape-8" width="32.516041063854246" opacity="-0.10781657958587476" transform="matrix(1.749765514118201,0.028646912620184015,-0.028646912620184015,1.749765514118201,31.212327357327773,-653.5819361707014)" fill="none" stroke="#ff0075" filter="url(#bbburst-blur-4)"></use><use xlink:href="#bbburst-shape-9" width="19.592497952709326" opacity="0.47344063258021774" transform="matrix(0.9945555486290365,-0.10420777653897169,0.10420777653897169,0.9945555486290365,310.82841961342245,-230.8609872286027)" fill="none" stroke="#ff0075" filter="url(#bbburst-blur-2)"></use><use xlink:href="#bbburst-shape-9" width="9.882434818438151" opacity="0.7246990070734423" transform="matrix(0.9849815201830856,0.1726597952559245,-0.1726597952559245,0.9849815201830856,433.34211931695694,-114.89002232996421)" fill="none" stroke="#f22e62" filter="url(#bbburst-blur-1)"></use><use xlink:href="#bbburst-shape-5" width="4.898157885058887" opacity="0.8947534729011988" transform="matrix(0.9570239704389828,0.290008827460829,-0.290008827460829,0.9570239704389828,560.0937996961624,25.803944365637165)" fill="#ff0075"></use><use xlink:href="#bbburst-shape-3" width="12.656419743991304" opacity="0.6581155354960926" transform="matrix(0.8216524091166711,-0.5699888758500209,0.5699888758500209,0.8216524091166711,114.39588731598062,-69.68695013317247)" fill="#f22e62" filter="url(#bbburst-blur-1)"></use><use xlink:href="#bbburst-shape-1" width="9.28008232797082" opacity="0.8348596676701276" transform="matrix(0.7345929376613518,-0.6785080809674011,0.6785080809674011,0.7345929376613518,77.27332694865044,166.11629558285648)" fill="#5a0e99"></use><use xlink:href="#bbburst-shape-9" width="20.668119749786896" opacity="0.5254653100025299" transform="matrix(0.7314609123075192,-0.6818833725544653,0.6818833725544653,0.7314609123075192,221.79868289698584,-73.13240164375321)" fill="none" stroke="#3db2ff" filter="url(#bbburst-blur-2)"></use><use xlink:href="#bbburst-shape-13" width="19.47168786859033" opacity="0.4660120341941367" transform="matrix(0.923430459497413,-0.38376579638159103,0.38376579638159103,0.923430459497413,251.37227156679225,-205.5299139185892)" fill="none" stroke="#0e9976" filter="url(#bbburst-blur-2)"></use><use xlink:href="#bbburst-shape-2" width="33.60473043714101" opacity="0.34774103976379067" transform="matrix(0.7698894577482771,0.6381772660069175,-0.6381772660069175,0.7698894577482771,896.9425584316833,-64.68417529025558)" fill="#f22e62" filter="url(#bbburst-blur-2)"></use><use xlink:href="#bbburst-shape-9" width="10.979990825088475" opacity="0.7567844434630073" transform="matrix(0.7398036560882401,0.6728228224714684,-0.6728228224714684,0.7398036560882401,739.8688791228024,20.38712282730114)" fill="none" stroke="#f22e62" filter="url(#bbburst-blur-1)"></use><use xlink:href="#bbburst-shape-8" width="7.756993493659336" opacity="0.8221081680319855" transform="matrix(0.8117756073783128,0.5839694883001776,-0.5839694883001776,0.8117756073783128,701.0078718028192,35.2320424208429)" fill="none" stroke="#3db2ff"></use><use xlink:href="#bbburst-shape-9" width="4.788882242476143" opacity="0.9669230281978691" transform="matrix(0.8466488810795756,0.5321519258319966,-0.5321519258319966,0.8466488810795756,598.8413874102496,68.83260719892593)" fill="none" stroke="#ff0075"></use><use xlink:href="#bbburst-shape-3" width="24.424572717732772" opacity="0.4921946662336285" transform="matrix(0.8786111235532879,0.47753794987249876,-0.47753794987249876,0.8786111235532879,385.6216096231981,162.4950550090283)" fill="#ff0075" filter="url(#bbburst-blur-2)"></use><use xlink:href="#bbburst-shape-1" width="22.829404420341508" opacity="0.1404747748346441" transform="matrix(1.191447726236569,0.37809035381203493,-0.37809035381203493,1.191447726236569,650.2489249684165,-450.88622248899725)" fill="#ffc069" filter="url(#bbburst-blur-3)"></use><use xlink:href="#bbburst-shape-1" width="10.251230820849997" opacity="0.7744781169840724" transform="matrix(0.8942856347203819,-0.4474965961130472,0.4474965961130472,0.8942856347203819,316.08429846927254,63.74595106659871)" fill="#ff0075" filter="url(#bbburst-blur-1)"></use><use xlink:href="#bbburst-shape-4" width="21.561454130153013" opacity="0.2977358477727513" transform="matrix(1.1562589128959486,-0.47493718147632846,0.47493718147632846,1.1562589128959486,285.2402951986357,246.25362257197014)" fill="#f22e62" filter="url(#bbburst-blur-3)"></use><use xlink:href="#bbburst-shape-11" width="15.683334241775848" opacity="0.5904187920329664" transform="matrix(0.9077243936650475,-0.41956694953895235,0.41956694953895235,0.9077243936650475,211.38609807349405,223.8271489900954)" fill="none" stroke="#ffc069" filter="url(#bbburst-blur-1)"></use><use xlink:href="#bbburst-shape-5" width="22.36553229644245" opacity="0.17519224731875715" transform="matrix(1.2499750746487255,-0.007893842974953286,0.007893842974953286,1.2499750746487255,12.926637621261957,-130.04239329816045)" fill="#5a0e99" filter="url(#bbburst-blur-3)"></use><use xlink:href="#bbburst-shape-13" width="23.023041517503316" opacity="0.2393711441689964" transform="matrix(1.004183980680099,-0.7443886974863809,0.7443886974863809,1.004183980680099,428.96571203768804,59.08456772788958)" fill="none" stroke="#ff0075" filter="url(#bbburst-blur-3)"></use><use xlink:href="#bbburst-shape-11" width="12.953018137399752" opacity="0.680456935328271" transform="matrix(0.7491424014123806,0.6624089842431876,-0.6624089842431876,0.7491424014123806,748.1622367013124,-17.841151449762776)" fill="none" stroke="#f22e62" filter="url(#bbburst-blur-1)"></use><use xlink:href="#bbburst-shape-3" width="20.07267672368859" opacity="0.5400968910502568" transform="matrix(0.957046724449663,0.2899337290143575,-0.2899337290143575,0.957046724449663,532.8834735665214,219.49054119799206)" fill="#ff0075" filter="url(#bbburst-blur-2)"></use><use xlink:href="#bbburst-shape-11" width="41.03848750190877" opacity="0.10748002314105465" transform="matrix(1.4948272582800437,0.9099403650256247,-0.9099403650256247,1.4948272582800437,1007.1191215628596,-511.668330397211)" fill="none" stroke="#0e9976" filter="url(#bbburst-blur-4)"></use><use xlink:href="#bbburst-shape-1" width="6.321593349260726" opacity="0.8726845552700466" transform="matrix(0.9724827711357303,0.23297480517036773,-0.23297480517036773,0.9724827711357303,495.74576014339146,67.29292923755122)" fill="#5a0e99"></use><use xlink:href="#bbburst-shape-8" width="5.2675748099302275" opacity="0.921987762246185" transform="matrix(0.7805093471929352,-0.625144110541288,0.625144110541288,0.7805093471929352,140.06958972225127,123.66687060434833)" fill="none" stroke="#5a0e99"></use><use xlink:href="#bbburst-shape-4" width="9.373542951785108" opacity="0.7956489710841631" transform="matrix(0.9226870250529785,0.3855498071571094,-0.3855498071571094,0.9226870250529785,466.9302424583346,68.79440253611602)" fill="#0e9976"></use><use xlink:href="#bbburst-shape-10" width="25.049134158012333" opacity="0.14170369297244345" transform="matrix(1.2495070424247974,-0.03510200750435419,0.03510200750435419,1.2495070424247974,739.5597052125531,13.909112113529034)" fill="none" stroke="#3db2ff" filter="url(#bbburst-blur-3)"></use><use xlink:href="#bbburst-shape-12" width="35.97299396710461" opacity="0.2492992631235239" transform="matrix(1.1160549558136525,-0.5629576676836243,0.5629576676836243,1.1160549558136525,342.2578356931085,-317.33813447487324)" fill="none" stroke="#5a0e99" filter="url(#bbburst-blur-3)"></use><use xlink:href="#bbburst-shape-4" width="23.79481867882404" opacity="0.2587924072297303" transform="matrix(1.239916208585246,0.15845439623938729,-0.15845439623938729,1.239916208585246,570.2026019181793,-408.4218638747259)" fill="#ff0075" filter="url(#bbburst-blur-3)"></use><use xlink:href="#bbburst-shape-12" width="25.502563746826844" opacity="0.4238479241374593" transform="matrix(0.8748600554428693,-0.4843757667250704,0.4843757667250704,0.8748600554428693,-63.53938766827562,74.64285592550294)" fill="none" stroke="#5a0e99" filter="url(#bbburst-blur-2)"></use><use xlink:href="#bbburst-shape-11" width="33.189253771460585" opacity="0.3943099289108182" transform="matrix(0.9954734521069649,-0.09504002393856104,0.09504002393856104,0.9954734521069649,109.69058242162562,-133.8557001641757)" fill="none" stroke="#f22e62" filter="url(#bbburst-blur-2)"></use><use xlink:href="#bbburst-shape-11" width="30.65225813386966" opacity="-0.006499565491051573" transform="matrix(1.6248078718647694,0.6499995227123471,-0.6499995227123471,1.6248078718647694,998.4181272981898,-531.3141126433096)" fill="none" stroke="#ff0075" filter="url(#bbburst-blur-4)"></use><use xlink:href="#bbburst-shape-11" width="12.901465132677956" opacity="0.732045592271547" transform="matrix(0.7663342381962377,-0.6424420871706585,0.6424420871706585,0.7663342381962377,56.04860350604923,185.95808332403277)" fill="none" stroke="#0e9976" filter="url(#bbburst-blur-1)"></use><use xlink:href="#bbburst-shape-3" width="33.7380418065188" opacity="-0.10292277543785167" transform="matrix(1.3289186742432437,1.1386286300842692,-1.1386286300842692,1.3289186742432437,1173.3574485554072,-512.0202454779771)" fill="#5a0e99" filter="url(#bbburst-blur-4)"></use><use xlink:href="#bbburst-shape-5" width="18.92916416274356" opacity="0.598309871546942" transform="matrix(0.9858604988346233,0.1675681259594068,-0.1675681259594068,0.9858604988346233,294.8647583172898,82.55684780054946)" fill="#f22e62" filter="url(#bbburst-blur-1)"></use><use xlink:href="#bbburst-shape-13" width="37.166740005468185" opacity="0.32390440835167167" transform="matrix(1.001323184578202,0.7482325039893469,-0.7482325039893469,1.001323184578202,909.5820001433823,185.9906234490736)" fill="none" stroke="#5a0e99" filter="url(#bbburst-blur-3)"></use><use xlink:href="#bbburst-shape-13" width="19.477808072901652" opacity="0.43486037968840996" transform="matrix(0.8976602028470979,-0.4406882801079547,0.4406882801079547,0.8976602028470979,456.18169215260997,-35.38211130163114)" fill="none" stroke="#ff0075" filter="url(#bbburst-blur-2)"></use><use xlink:href="#bbburst-shape-9" width="7.293870480720557" opacity="0.9049590449918233" transform="matrix(0.9904790449547644,-0.13766358089741057,0.13766358089741057,0.9904790449547644,315.21485000033783,38.142261808837475)" fill="none" stroke="#ffc069"></use><use xlink:href="#bbburst-shape-9" width="7.128293392526608" opacity="0.8726041731579504" transform="matrix(0.9966566338076389,-0.08170406530415657,0.08170406530415657,0.9966566338076389,331.8747373553937,-46.06072711086449)" fill="none" stroke="#ff0075"></use><use xlink:href="#bbburst-shape-2" width="10.621374505952966" opacity="0.7066105994708645" transform="matrix(0.7895070184185286,0.6137415318095112,-0.6137415318095112,0.7895070184185286,525.9882305566582,16.647824504686923)" fill="#ffc069" filter="url(#bbburst-blur-1)"></use><use xlink:href="#bbburst-shape-11" width="8.50172023162371" opacity="0.7791710109951504" transform="matrix(0.913744735631515,0.4062887619731718,-0.4062887619731718,0.913744735631515,608.5450507340739,118.6287545345105)" fill="none" stroke="#f22e62"></use><use xlink:href="#bbburst-shape-10" width="12.059875153404816" opacity="0.7478214694170897" transform="matrix(0.9970759072286416,0.0764175060060272,-0.0764175060060272,0.9970759072286416,331.2141344804447,65.24820316500296)" fill="none" stroke="#ff0075" filter="url(#bbburst-blur-1)"></use><use xlink:href="#bbburst-shape-10" width="7.62092158976392" opacity="0.8770026031726087" transform="matrix(0.888601867502327,0.4586793226987423,-0.4586793226987423,0.888601867502327,528.3812766763584,62.56344973172423)" fill="none" stroke="#ff0075"></use><use xlink:href="#bbburst-shape-12" width="34.46297166571182" opacity="0.017243018604689797" transform="matrix(1.7333190354741106,0.2410500389195122,-0.2410500389195122,1.7333190354741106,208.84914025471244,-656.975258026658)" fill="none" stroke="#f22e62" filter="url(#bbburst-blur-4)"></use><use xlink:href="#bbburst-shape-10" width="4.292200544822694" opacity="0.9341765387631178" transform="matrix(0.7927955569375429,0.6094876577094004,-0.6094876577094004,0.7927955569375429,652.0039796531283,109.48724149438056)" fill="none" stroke="#5a0e99"></use><use xlink:href="#bbburst-shape-14" width="12.188147414442918" opacity="0.733697733813378" transform="matrix(0.9183042042614177,0.3958754708690656,-0.3958754708690656,0.9183042042614177,602.3838063357239,139.35390556164583)" fill="none" stroke="#5a0e99" filter="url(#bbburst-blur-1)"></use><use xlink:href="#bbburst-shape-3" width="9.083125350433315" opacity="0.8658954206495717" transform="matrix(0.985563342089922,-0.1693071136383327,0.1693071136383327,0.985563342089922,268.75698027213696,-6.083318076135072)" fill="#5a0e99"></use><use xlink:href="#bbburst-shape-12" width="5.775554731193076" opacity="0.8587830210937253" transform="matrix(0.9926778555132032,-0.12079186716707403,0.12079186716707403,0.9926778555132032,399.72022462416794,-34.77212258511457)" fill="none" stroke="#5a0e99"></use><use xlink:href="#bbburst-shape-11" width="9.427976421710863" opacity="0.7802626401574659" transform="matrix(0.9802561226878702,-0.19773197498872866,0.19773197498872866,0.9802561226878702,263.29736601189916,92.21105486314485)" fill="none" stroke="#ffc069"></use><use xlink:href="#bbburst-shape-3" width="23.40505708924731" opacity="0.42259704107775" transform="matrix(0.8461286600695626,-0.5329786962054737,0.5329786962054737,0.8461286600695626,337.0609045535924,-136.7117995179389)" fill="#3db2ff" filter="url(#bbburst-blur-2)"></use><use xlink:href="#bbburst-shape-8" width="6.530111241157991" opacity="0.8397987425341631" transform="matrix(0.7189510081455069,-0.6950607512200349,0.6950607512200349,0.7189510081455069,188.6145887681189,93.76200223876157)" fill="none" stroke="#5a0e99"></use><use xlink:href="#bbburst-shape-2" width="4.778425056769922" opacity="0.8621377288009193" transform="matrix(0.7649131958642531,-0.6441333734505105,0.6441333734505105,0.7649131958642531,194.48883234669603,126.17215147751097)" fill="#ff0075"></use><use xlink:href="#bbburst-shape-3" width="21.415513198808238" opacity="0.5092843702426866" transform="matrix(0.9060180449977044,-0.4232390602703602,0.4232390602703602,0.9060180449977044,145.6736264833756,249.7623343058347)" fill="#5a0e99" filter="url(#bbburst-blur-2)"></use><use xlink:href="#bbburst-shape-5" width="13.554183686646532" opacity="0.6026333183561452" transform="matrix(0.8146450440366011,0.5799598712209356,-0.5799598712209356,0.8146450440366011,578.2137391514494,242.39403765366086)" fill="#5a0e99" filter="url(#bbburst-blur-1)"></use><use xlink:href="#bbburst-shape-12" width="27.380604583841592" opacity="0.16785289430007566" transform="matrix(1.248951887662622,-0.05117794743806217,0.05117794743806217,1.248951887662622,0.7148773407677353,-195.8376449811003)" fill="none" stroke="#ffc069" filter="url(#bbburst-blur-3)"></use><use xlink:href="#bbburst-shape-11" width="41.59670207012988" opacity="-0.11112704558992736" transform="matrix(1.646485343698078,0.5929468888420123,-0.5929468888420123,1.646485343698078,252.30524064027378,84.3415574729296)" fill="none" stroke="#5a0e99" filter="url(#bbburst-blur-4)"></use><use xlink:href="#bbburst-shape-13" width="5.526625890351027" opacity="0.9081416023477998" transform="matrix(0.8897120348726192,0.4565221736157217,-0.4565221736157217,0.8897120348726192,586.838077548257,83.64535934583824)" fill="none" stroke="#3db2ff"></use><use xlink:href="#bbburst-shape-5" width="29.78641014648374" opacity="0.16601104874533912" transform="matrix(1.026143349250712,0.7138135798571863,-0.7138135798571863,1.026143349250712,744.338234869902,346.81960919448585)" fill="#ff0075" filter="url(#bbburst-blur-3)"></use><use xlink:href="#bbburst-shape-3" width="20.622520523360603" opacity="0.319266806420873" transform="matrix(0.9159843892431107,0.8505719244502052,-0.8505719244502052,0.9159843892431107,728.4444553832592,331.09038146918664)" fill="#5a0e99" filter="url(#bbburst-blur-3)"></use><use xlink:href="#bbburst-shape-13" width="8.21018409398081" opacity="0.8390942097845541" transform="matrix(0.9883400547639991,-0.15226272081207257,0.15226272081207257,0.9883400547639991,356.2143762495006,74.53070245980894)" fill="none" stroke="#5a0e99"></use><use xlink:href="#bbburst-shape-2" width="37.60865125917023" opacity="0.2210442735365109" transform="matrix(1.1639504999010981,-0.4557622557649807,0.4557622557649807,1.1639504999010981,-95.80029218472824,-251.4898565764939)" fill="#ff0075" filter="url(#bbburst-blur-3)"></use><use xlink:href="#bbburst-shape-8" width="24.681208934372005" opacity="0.41425546692584814" transform="matrix(0.7806087843776703,-0.6250199402838407,0.6250199402838407,0.7806087843776703,239.62379214613884,339.64893312290826)" fill="none" stroke="#0e9976" filter="url(#bbburst-blur-2)"></use><use xlink:href="#bbburst-shape-3" width="6.797511537870346" opacity="0.8965580776654071" transform="matrix(0.827775657406476,0.5610592312806879,-0.5610592312806879,0.827775657406476,662.1017307045925,89.89206535680609)" fill="#f22e62"></use><use xlink:href="#bbburst-shape-1" width="11.489168228799139" opacity="0.7508700485273245" transform="matrix(0.9258819856544073,0.3778128486971453,-0.3778128486971453,0.9258819856544073,572.8873406959578,-81.29654189948434)" fill="#3db2ff" filter="url(#bbburst-blur-1)"></use><use xlink:href="#bbburst-shape-11" width="5.400171875934995" opacity="0.9612284024012453" transform="matrix(0.796144391295446,-0.6051066915914942,0.6051066915914942,0.796144391295446,138.80540069494845,79.02693922307145)" fill="none" stroke="#ff0075"></use><use xlink:href="#bbburst-shape-2" width="17.357777073723053" opacity="0.6159445776566566" transform="matrix(0.8526614545930277,0.5224638206146931,-0.5224638206146931,0.8526614545930277,741.592998998125,-46.908087234476795)" fill="#5a0e99" filter="url(#bbburst-blur-1)"></use><use xlink:href="#bbburst-shape-10" width="34.35665672530689" opacity="0.25933968727626944" transform="matrix(1.1451186210218127,-0.5012018992273491,0.5012018992273491,1.1451186210218127,496.84905117136566,-152.38087533088344)" fill="none" stroke="#ffc069" filter="url(#bbburst-blur-3)"></use><use xlink:href="#bbburst-shape-11" width="15.504996885806143" opacity="0.6352385191598017" transform="matrix(0.9844193822245835,0.17583651469637746,-0.17583651469637746,0.9844193822245835,307.9689650347011,-50.00258211991587)" fill="none" stroke="#3db2ff" filter="url(#bbburst-blur-1)"></use><use xlink:href="#bbburst-shape-11" width="15.77553049076549" opacity="0.6501111164285722" transform="matrix(0.9496660408167367,0.3132641232561819,-0.3132641232561819,0.9496660408167367,674.1861843043379,-1.4630043086554565)" fill="none" stroke="#ffc069" filter="url(#bbburst-blur-1)"></use><use xlink:href="#bbburst-shape-8" width="26.276031854777862" opacity="0.17389182316766227" transform="matrix(1.168945217232835,-0.4427946240735997,0.4427946240735997,1.168945217232835,516.9966423600749,-267.7317744218906)" fill="none" stroke="#ffc069" filter="url(#bbburst-blur-3)"></use><use xlink:href="#bbburst-shape-13" width="9.959510809268606" opacity="0.8175688128094297" transform="matrix(0.8664837037106001,-0.49920535975083524,0.49920535975083524,0.8664837037106001,114.68103559860535,44.65981491302148)" fill="none" stroke="#3db2ff"></use><use xlink:href="#bbburst-shape-4" width="21.734700081794493" opacity="0.5219714800761672" transform="matrix(0.7761100293407069,-0.6305975121714064,0.6305975121714064,0.7761100293407069,328.618316282446,-5.785982665080041)" fill="#ff0075" filter="url(#bbburst-blur-2)"></use><use xlink:href="#bbburst-shape-5" width="38.2917307727425" opacity="0.026887260090754928" transform="matrix(1.7360276632646392,-0.22069878200823095,0.22069878200823095,1.7360276632646392,531.4452047617489,67.25957810428463)" fill="#ff0075" filter="url(#bbburst-blur-4)"></use><use xlink:href="#bbburst-shape-9" width="37.47986096166179" opacity="0.1399029246825757" transform="matrix(1.2375347624933135,0.17609006678577302,-0.17609006678577302,1.2375347624933135,723.7408093571935,172.25599971910634)" fill="none" stroke="#5a0e99" filter="url(#bbburst-blur-3)"></use><use xlink:href="#bbburst-shape-5" width="12.086140271823737" opacity="0.8202775254067616" transform="matrix(0.788669004096177,-0.6148180234654351,0.6148180234654351,0.788669004096177,97.92024868254867,25.79616250250632)" fill="#ffc069"></use><use xlink:href="#bbburst-shape-8" width="26.82425542095288" opacity="0.4774468313755028" transform="matrix(0.8418939793305366,0.539642963047786,-0.539642963047786,0.8418939793305366,583.1685884321836,290.17804631549586)" fill="none" stroke="#ffc069" filter="url(#bbburst-blur-2)"></use><use xlink:href="#bbburst-shape-12" width="8.778928249353662" opacity="0.7801988674131646" transform="matrix(0.9161415199499897,0.4008549805399986,-0.4008549805399986,0.9161415199499897,637.2611301975078,88.62835054376433)" fill="none" stroke="#ff0075"></use><use xlink:href="#bbburst-shape-4" width="17.811326959295794" opacity="0.6259832178773186" transform="matrix(0.9011930345330623,-0.43341794437827647,0.43341794437827647,0.9011930345330623,298.37802556796373,-104.80919457180158)" fill="#f22e62" filter="url(#bbburst-blur-1)"></use><use xlink:href="#bbburst-shape-10" width="8.196959329883525" opacity="0.8410201488462723" transform="matrix(0.9518338618266409,0.3066142519195466,-0.3066142519195466,0.9518338618266409,531.7810351432793,-52.33333611934614)" fill="none" stroke="#0e9976"></use><use xlink:href="#bbburst-shape-12" width="33.233491680652314" opacity="0.30277727901369866" transform="matrix(1.242702818859488,-0.1348692107142419,0.1348692107142419,1.242702818859488,30.73163577326639,-202.67855664349878)" fill="none" stroke="#ff0075" filter="url(#bbburst-blur-3)"></use><use xlink:href="#bbburst-shape-11" width="10.308105942235343" opacity="0.7735699082474732" transform="matrix(0.9956766085296361,0.09288751922040882,-0.09288751922040882,0.9956766085296361,337.7360826886949,-37.48085099518147)" fill="none" stroke="#5a0e99" filter="url(#bbburst-blur-1)"></use><use xlink:href="#bbburst-shape-1" width="32.86654691700385" opacity="-0.09673284664371096" transform="matrix(1.478198121592757,-0.9367125030230163,0.9367125030230163,1.478198121592757,353.3477779910483,169.81677615218314)" fill="#0e9976" filter="url(#bbburst-blur-4)"></use><use xlink:href="#bbburst-shape-9" width="10.227595450339908" opacity="0.800374966456071" transform="matrix(0.9833199595910549,-0.18188418587069677,0.18188418587069677,0.9833199595910549,233.48243620352804,21.6024610290209)" fill="none" stroke="#f22e62"></use><use xlink:href="#bbburst-shape-5" width="15.334420954127467" opacity="0.6075834785704872" transform="matrix(0.9195582433136246,0.39295373411377676,-0.39295373411377676,0.9195582433136246,401.6912905208162,-66.48529190223076)" fill="#ff0075" filter="url(#bbburst-blur-1)"></use><use xlink:href="#bbburst-shape-2" width="8.514775805077722" opacity="0.8496611293457002" transform="matrix(0.9911052696932562,0.13308021786222732,-0.13308021786222732,0.9911052696932562,381.74136819647015,10.173479171066788)" fill="#f22e62"></use><use xlink:href="#bbburst-shape-3" width="5.108951188773865" opacity="0.9091394034284993" transform="matrix(0.7676401956848578,0.6408810575831629,-0.6408810575831629,0.7676401956848578,647.3243176326116,51.019815205162615)" fill="#5a0e99"></use><use xlink:href="#bbburst-shape-11" width="7.281915813161173" opacity="0.8643347165215296" transform="matrix(0.8909719216219981,0.45405840470274755,-0.45405840470274755,0.8909719216219981,639.3653971196868,45.46971507378498)" fill="none" stroke="#ff0075"></use><use xlink:href="#bbburst-shape-8" width="18.894171114503976" opacity="0.5138911390169687" transform="matrix(0.9835417884634708,-0.18068079683817329,0.18068079683817329,0.9835417884634708,107.12128185876857,64.83382755954636)" fill="none" stroke="#0e9976" filter="url(#bbburst-blur-2)"></use></svg>