<svg width="130" height="143" viewBox="0 0 130 143" fill="none" xmlns="http://www.w3.org/2000/svg">
<path d="M50.0566 5.17914C58.7803 -1.72349 71.1038 -1.72673 79.8311 5.17133L113.011 31.3969C117.502 34.9467 120.576 39.9848 121.679 45.602L129.065 83.225C130.828 92.2035 127.332 101.404 120.052 106.946L79.4248 137.872C70.8613 144.39 59.0055 144.412 50.4189 137.923L9.53027 107.026C2.14578 101.445 -1.37103 92.1159 0.491211 83.0493L8.21094 45.4633C9.34736 39.9306 12.3988 34.9759 16.8281 31.4711L50.0566 5.17914ZM78.667 8.47015C70.3074 2.02372 58.6321 2.09504 50.3525 8.64398L20.1748 32.5151C10.9599 39.804 11.0851 53.8236 20.4287 60.9467L50.6729 84.0043C58.8259 90.2198 70.1086 90.2886 78.3369 84.1733L109.413 61.0766C118.99 53.9589 119.117 39.663 109.668 32.3764L78.667 8.47015Z" fill="black"/>
</svg>
