<svg width="604" height="294" viewBox="0 0 604 294" fill="none" xmlns="http://www.w3.org/2000/svg">
<rect x="1" y="1" width="82" height="82" rx="11" stroke="black" stroke-width="2"/>
<path d="M51.4432 70.2727V50.8622H51.1875C50.6903 52.2827 49.9659 53.5895 49.0142 54.7827C48.0625 55.9616 46.8906 56.9062 45.4986 57.6165C44.1065 58.3267 42.4801 58.6818 40.6193 58.6818C38.0057 58.6818 35.7188 57.9574 33.7585 56.5085C31.8125 55.0455 30.2926 53.0426 29.1989 50.5C28.1193 47.9432 27.5795 45.017 27.5795 41.7216C27.5795 38.4261 28.1193 35.5071 29.1989 32.9645C30.2784 30.4077 31.7983 28.4048 33.7585 26.956C35.7188 25.5071 38.0128 24.7827 40.6406 24.7827C42.5298 24.7827 44.1634 25.1449 45.5412 25.8693C46.919 26.5795 48.0767 27.5241 49.0142 28.7031C49.9517 29.8821 50.6761 31.1747 51.1875 32.581H51.5071V25.2727H54.0213V70.2727H51.4432ZM40.8537 56.2741C43.0554 56.2741 44.9446 55.642 46.5213 54.3778C48.1122 53.0994 49.3338 51.3665 50.1861 49.179C51.0384 46.9773 51.4645 44.4844 51.4645 41.7003C51.4645 38.9162 51.0455 36.4375 50.2074 34.2642C49.3693 32.0767 48.1548 30.358 46.5639 29.108C44.973 27.8437 43.0696 27.2116 40.8537 27.2116C38.5952 27.2116 36.6705 27.8509 35.0795 29.1293C33.4886 30.3935 32.267 32.1193 31.4148 34.3068C30.5767 36.4943 30.1577 38.9588 30.1577 41.7003C30.1577 44.4418 30.5838 46.9134 31.4361 49.1151C32.2884 51.3168 33.5099 53.0639 35.1009 54.3565C36.6918 55.6349 38.6094 56.2741 40.8537 56.2741Z" fill="black"/>
<rect x="105" y="1" width="82" height="82" rx="11" stroke="black" stroke-width="2"/>
<path d="M134.528 58L124.727 25.2727H127.455L135.892 54.1861H136.126L144.585 25.2727H147.291L155.729 54.1648H155.942L164.379 25.2727H167.107L157.305 58H154.408L146.055 29.5128H145.778L137.426 58H134.528Z" fill="black"/>
<rect x="209" y="1" width="82" height="82" rx="11" stroke="black" stroke-width="2"/>
<path d="M250.153 58.6818C247.199 58.6818 244.628 57.9503 242.44 56.4872C240.253 55.0241 238.563 53.0213 237.369 50.4787C236.176 47.9361 235.58 45.0384 235.58 41.7855C235.58 38.5185 236.176 35.6065 237.369 33.0497C238.577 30.4929 240.232 28.4759 242.334 26.9986C244.436 25.5213 246.837 24.7827 249.536 24.7827C251.368 24.7827 253.101 25.152 254.734 25.8906C256.382 26.6151 257.831 27.6662 259.081 29.044C260.345 30.4219 261.332 32.0838 262.043 34.0298C262.767 35.9759 263.129 38.1634 263.129 40.5923V42.2116H237.22V39.8466H260.53C260.53 37.4744 260.047 35.3366 259.081 33.4332C258.115 31.5298 256.801 30.017 255.139 28.8949C253.477 27.7727 251.609 27.2116 249.536 27.2116C247.362 27.2116 245.423 27.8224 243.719 29.044C242.028 30.2514 240.686 31.8849 239.692 33.9446C238.712 36.0043 238.2 38.3054 238.158 40.848V41.9134C238.158 44.6406 238.634 47.0909 239.585 49.2642C240.551 51.4233 241.929 53.1349 243.719 54.3991C245.509 55.6491 247.653 56.2741 250.153 56.2741C251.943 56.2741 253.47 55.9759 254.734 55.3793C256.013 54.7685 257.057 54.0298 257.866 53.1634C258.676 52.2969 259.287 51.4588 259.699 50.6491L262.064 51.608C261.567 52.7017 260.793 53.7955 259.741 54.8892C258.705 55.9687 257.384 56.8707 255.778 57.5952C254.188 58.3196 252.312 58.6818 250.153 58.6818Z" fill="black"/>
<rect x="313" y="1" width="82" height="82" rx="11" stroke="black" stroke-width="2"/>
<path d="M348.391 58V25.2727H350.926V30.3864H351.161C351.871 28.7102 353.071 27.3679 354.761 26.3594C356.452 25.3366 358.376 24.8253 360.536 24.8253C360.763 24.8253 360.99 24.8253 361.217 24.8253C361.445 24.8253 361.658 24.8324 361.857 24.8466V27.4673C361.686 27.4531 361.48 27.4318 361.239 27.4034C361.011 27.3608 360.727 27.3395 360.386 27.3395C358.568 27.3395 356.949 27.7301 355.528 28.5114C354.122 29.2926 353.014 30.3722 352.205 31.75C351.395 33.1136 350.99 34.6761 350.99 36.4375V58H348.391Z" fill="black"/>
<rect x="417" y="1" width="82" height="82" rx="11" stroke="black" stroke-width="2"/>
<path d="M463.96 25.2727V27.5952H449.663V25.2727H463.96ZM454.5 17.4318H457.078V50.2656C457.078 51.6009 457.334 52.6946 457.845 53.5469C458.371 54.3849 459.053 55.0099 459.891 55.4219C460.743 55.8196 461.652 56.0185 462.618 56.0185C463.087 56.0185 463.491 55.983 463.832 55.9119C464.188 55.8409 464.521 55.7486 464.834 55.6349L465.473 58C465.075 58.142 464.635 58.2628 464.152 58.3622C463.669 58.4759 463.101 58.5327 462.447 58.5327C461.084 58.5327 459.791 58.2273 458.57 57.6165C457.362 57.0057 456.382 56.1179 455.629 54.9531C454.876 53.7884 454.5 52.3821 454.5 50.7344V17.4318Z" fill="black"/>
<rect x="521" y="1" width="82" height="82" rx="11" stroke="black" stroke-width="2"/>
<path d="M552.479 70.2727C551.825 70.2727 551.179 70.2017 550.54 70.0597C549.901 69.9176 549.325 69.733 548.814 69.5057L549.581 67.2259C550.916 67.7372 552.124 67.9219 553.203 67.7798C554.297 67.6378 555.263 67.1406 556.101 66.2884C556.939 65.4361 557.649 64.1861 558.232 62.5384L559.723 58.4474L547.727 25.2727H550.518L560.916 54.6548H561.129L571.527 25.2727H574.318L560.511 63.5611C559.986 65.0384 559.325 66.2741 558.53 67.2685C557.734 68.2628 556.825 69.0085 555.803 69.5057C554.794 70.017 553.686 70.2727 552.479 70.2727Z" fill="black"/>
<rect x="25" y="106" width="82" height="82" rx="11" stroke="black" stroke-width="2"/>
<path d="M63.0625 163.703C61.1733 163.703 59.4403 163.327 57.8636 162.574C56.3011 161.821 55.044 160.72 54.0923 159.271C53.1548 157.822 52.6861 156.061 52.6861 153.987C52.6861 152.624 52.9276 151.423 53.4105 150.386C53.8935 149.349 54.6392 148.455 55.6477 147.702C56.6563 146.949 57.9489 146.331 59.5256 145.848C61.1023 145.351 62.9844 144.967 65.1719 144.697C66.8338 144.499 68.3182 144.307 69.625 144.122C70.9318 143.923 71.9545 143.618 72.6932 143.206C73.446 142.794 73.8224 142.169 73.8224 141.331V139.967C73.8224 137.581 73.0696 135.685 71.5639 134.278C70.0582 132.872 67.9844 132.169 65.3423 132.169C62.9986 132.169 61.0241 132.687 59.419 133.724C57.8281 134.747 56.7131 136.068 56.0739 137.688L53.6236 136.771C54.2486 135.209 55.1506 133.909 56.3295 132.872C57.5227 131.835 58.8864 131.061 60.4205 130.55C61.9688 130.038 63.5881 129.783 65.2784 129.783C66.7415 129.783 68.1335 129.989 69.4545 130.401C70.7898 130.812 71.9759 131.438 73.0128 132.276C74.0639 133.114 74.8949 134.186 75.5057 135.493C76.1165 136.786 76.4219 138.334 76.4219 140.138V163H73.8224V157.098H73.6307C73.0625 158.32 72.2813 159.435 71.2869 160.443C70.3068 161.438 69.1207 162.233 67.7287 162.83C66.3509 163.412 64.7955 163.703 63.0625 163.703ZM63.3182 161.295C65.3636 161.295 67.1747 160.798 68.7514 159.804C70.3423 158.795 71.5852 157.418 72.4801 155.67C73.375 153.923 73.8224 151.942 73.8224 149.726V144.911C73.4957 145.195 73.0199 145.45 72.3949 145.678C71.7841 145.891 71.0881 146.082 70.3068 146.253C69.5398 146.409 68.7301 146.551 67.8778 146.679C67.0398 146.793 66.223 146.899 65.4276 146.999C63.0412 147.283 61.0952 147.723 59.5895 148.32C58.098 148.902 57.0043 149.669 56.3082 150.621C55.6264 151.572 55.2855 152.723 55.2855 154.072C55.2855 156.303 56.0526 158.064 57.5866 159.357C59.1207 160.649 61.0313 161.295 63.3182 161.295Z" fill="black"/>
<rect x="129" y="106" width="82" height="82" rx="11" stroke="black" stroke-width="2"/>
<path d="M180.186 137.325L177.778 137.964C177.395 136.771 176.848 135.741 176.138 134.875C175.428 134.009 174.533 133.341 173.453 132.872C172.388 132.389 171.109 132.148 169.618 132.148C167.217 132.148 165.25 132.744 163.716 133.938C162.196 135.131 161.436 136.686 161.436 138.604C161.436 140.166 161.955 141.459 162.991 142.482C164.028 143.49 165.612 144.257 167.743 144.783L172.771 146.04C175.357 146.679 177.303 147.716 178.609 149.151C179.916 150.571 180.57 152.339 180.57 154.456C180.57 156.26 180.08 157.858 179.099 159.25C178.119 160.642 176.763 161.729 175.03 162.51C173.311 163.291 171.308 163.682 169.021 163.682C165.967 163.682 163.46 162.972 161.5 161.551C159.54 160.116 158.283 158.064 157.729 155.393L160.222 154.754C160.69 156.885 161.663 158.511 163.141 159.634C164.632 160.741 166.585 161.295 169 161.295C171.67 161.295 173.822 160.663 175.456 159.399C177.104 158.135 177.928 156.516 177.928 154.541C177.928 153.036 177.445 151.764 176.479 150.727C175.513 149.69 174.05 148.93 172.089 148.447L166.869 147.169C164.199 146.516 162.196 145.472 160.861 144.037C159.526 142.588 158.858 140.805 158.858 138.689C158.858 136.928 159.32 135.379 160.243 134.044C161.166 132.709 162.438 131.665 164.057 130.912C165.676 130.159 167.53 129.783 169.618 129.783C172.388 129.783 174.646 130.436 176.393 131.743C178.141 133.05 179.405 134.911 180.186 137.325Z" fill="black"/>
<rect x="233" y="106" width="82" height="82" rx="11" stroke="black" stroke-width="2"/>
<path d="M271.619 163.682C268.991 163.682 266.697 162.957 264.737 161.509C262.777 160.06 261.257 158.064 260.178 155.521C259.112 152.964 258.58 150.031 258.58 146.722C258.58 143.44 259.119 140.528 260.199 137.986C261.293 135.429 262.82 133.426 264.78 131.977C266.74 130.514 269.027 129.783 271.641 129.783C273.516 129.783 275.142 130.145 276.52 130.869C277.912 131.58 279.077 132.524 280.014 133.703C280.966 134.882 281.69 136.175 282.188 137.581H282.443V119.364H285.021V163H282.507V155.862H282.188C281.662 157.268 280.93 158.568 279.993 159.761C279.055 160.94 277.891 161.892 276.499 162.616C275.107 163.327 273.48 163.682 271.619 163.682ZM271.854 161.274C274.07 161.274 275.966 160.642 277.543 159.378C279.134 158.099 280.348 156.366 281.186 154.179C282.038 151.977 282.464 149.484 282.464 146.7C282.464 143.916 282.038 141.437 281.186 139.264C280.348 137.077 279.134 135.358 277.543 134.108C275.966 132.844 274.07 132.212 271.854 132.212C269.609 132.212 267.685 132.851 266.08 134.129C264.489 135.393 263.267 137.119 262.415 139.307C261.577 141.494 261.158 143.959 261.158 146.7C261.158 149.442 261.577 151.913 262.415 154.115C263.267 156.317 264.489 158.064 266.08 159.357C267.685 160.635 269.609 161.274 271.854 161.274Z" fill="black"/>
<rect x="337" y="106" width="82" height="82" rx="11" stroke="black" stroke-width="2"/>
<path d="M384.749 130.273V132.595H370.239V130.273H384.749ZM375.011 163V125.18C375.011 123.533 375.388 122.126 376.141 120.962C376.893 119.797 377.881 118.909 379.102 118.298C380.338 117.687 381.666 117.382 383.087 117.382C383.839 117.382 384.479 117.446 385.004 117.574C385.544 117.687 386.013 117.822 386.411 117.979L385.643 120.28C385.317 120.166 384.962 120.067 384.578 119.982C384.209 119.896 383.768 119.854 383.257 119.854C381.609 119.854 380.253 120.358 379.188 121.366C378.122 122.375 377.589 123.781 377.589 125.585L377.568 163H375.011Z" fill="black"/>
<rect x="70" y="211" width="82" height="82" rx="11" stroke="black" stroke-width="2"/>
<path d="M99.2827 268V265.805L118.544 237.979V237.744H100.348V235.273H121.847V237.51L102.756 265.294V265.528H122.614V268H99.2827Z" fill="black"/>
<rect x="174" y="211" width="82" height="82" rx="11" stroke="black" stroke-width="2"/>
<path d="M205.371 235.273L214.405 249.825L223.439 235.273H226.443L215.96 251.636L226.443 268H223.439L214.405 253.682L205.371 268H202.345L212.786 251.636L202.345 235.273H205.371Z" fill="black"/>
<rect x="278" y="211" width="82" height="82" rx="11" stroke="black" stroke-width="2"/>
<path d="M316.663 268.682C313.879 268.682 311.429 267.95 309.312 266.487C307.196 265.01 305.541 262.993 304.348 260.436C303.169 257.879 302.58 254.982 302.58 251.743C302.58 248.504 303.176 245.607 304.369 243.05C305.563 240.493 307.217 238.476 309.334 236.999C311.45 235.521 313.886 234.783 316.642 234.783C318.716 234.783 320.605 235.209 322.31 236.061C324.028 236.913 325.449 238.099 326.571 239.619C327.707 241.139 328.432 242.901 328.744 244.903H326.102C325.676 242.687 324.611 240.855 322.906 239.406C321.216 237.943 319.135 237.212 316.663 237.212C314.447 237.212 312.473 237.837 310.74 239.087C309.007 240.322 307.643 242.034 306.649 244.222C305.655 246.395 305.158 248.888 305.158 251.7C305.158 254.47 305.641 256.956 306.607 259.158C307.572 261.345 308.922 263.078 310.655 264.357C312.388 265.635 314.391 266.274 316.663 266.274C318.268 266.274 319.732 265.955 321.053 265.315C322.388 264.676 323.503 263.767 324.398 262.588C325.293 261.409 325.882 260.031 326.166 258.455H328.808C328.496 260.472 327.786 262.247 326.678 263.781C325.57 265.315 324.156 266.516 322.438 267.382C320.719 268.249 318.794 268.682 316.663 268.682Z" fill="black"/>
<rect x="382" y="211" width="82" height="82" rx="11" stroke="black" stroke-width="2"/>
<path d="M432.318 235.273L420.493 268H417.553L405.727 235.273H408.518L418.916 264.655H419.129L429.527 235.273H432.318Z" fill="black"/>
<rect x="441" y="106" width="82" height="82" rx="11" stroke="black" stroke-width="2"/>
<path d="M481.195 175.955C479.163 175.955 477.338 175.685 475.719 175.145C474.099 174.619 472.722 173.866 471.585 172.886C470.463 171.906 469.604 170.741 469.007 169.392L471.18 168.114C471.663 169.165 472.352 170.102 473.247 170.926C474.142 171.75 475.25 172.396 476.571 172.865C477.906 173.334 479.447 173.568 481.195 173.568C484.348 173.568 486.841 172.751 488.673 171.118C490.52 169.499 491.443 167.013 491.443 163.661V155.521H491.188C490.69 156.942 489.952 158.206 488.972 159.314C488.006 160.408 486.82 161.267 485.413 161.892C484.007 162.517 482.409 162.83 480.619 162.83C478.034 162.83 475.761 162.162 473.801 160.827C471.841 159.491 470.314 157.616 469.22 155.202C468.126 152.773 467.58 149.918 467.58 146.636C467.58 143.355 468.112 140.45 469.178 137.922C470.257 135.379 471.777 133.391 473.737 131.956C475.697 130.507 477.999 129.783 480.641 129.783C482.53 129.783 484.163 130.145 485.541 130.869C486.933 131.58 488.098 132.524 489.036 133.703C489.973 134.882 490.697 136.175 491.209 137.581H491.507V130.273H494.021V163.767C494.021 166.494 493.482 168.76 492.402 170.564C491.337 172.368 489.838 173.717 487.906 174.612C485.989 175.507 483.751 175.955 481.195 175.955ZM480.854 160.422C483.041 160.422 484.923 159.868 486.5 158.76C488.091 157.638 489.313 156.047 490.165 153.987C491.031 151.913 491.464 149.456 491.464 146.615C491.464 143.859 491.045 141.395 490.207 139.222C489.369 137.048 488.155 135.337 486.564 134.087C484.973 132.837 483.07 132.212 480.854 132.212C478.595 132.212 476.67 132.851 475.08 134.129C473.489 135.393 472.267 137.112 471.415 139.286C470.577 141.459 470.158 143.902 470.158 146.615C470.158 149.342 470.584 151.743 471.436 153.817C472.288 155.876 473.51 157.496 475.101 158.675C476.692 159.839 478.609 160.422 480.854 160.422Z" fill="black"/>
</svg>
