<svg xmlns="http://www.w3.org/2000/svg" width="105" height="31">
  <defs>
    <linearGradient id="grad1" x1="0%" y1="0%" x2="0%" y2="100%">
      <stop offset="0%" style="stop-color:rgb(37,198,208);stop-opacity:1" />
      <stop offset="100%" style="stop-color:rgb(29, 157, 165);stop-opacity:1" />
    </linearGradient>
  </defs>
  <rect x="2" y="3" rx="10" ry="10" width="88" height="25"  fill="url(#grad1)" stroke="#19888f" stroke-width="1" /><g fill="none" stroke-width="0.25mm" stroke="#fff" font-size="9pt" fill-rule="evenodd" stroke-linecap="round" id="svgGroup">
   <path id="svg_3" d="m12.65,16.191l-0.605,0l0,-0.77l0.176,0l0.242,0q0.143,0 0.292,-0.011a8.698,8.698 0 0 1 0.216,-0.013a7.726,7.726 0 0 1 0.07,-0.003q0.137,-0.006 0.225,-0.028q0.286,-0.044 0.539,-0.148a1.628,1.628 0 0 0 0.317,-0.173a1.43,1.43 0 0 0 0.123,-0.097q0.187,-0.165 0.297,-0.385a1.054,1.054 0 0 0 0.109,-0.435a1.239,1.239 0 0 0 0.001,-0.049a1.807,1.807 0 0 0 -0.017,-0.255q-0.028,-0.199 -0.104,-0.35q-0.121,-0.242 -0.335,-0.39q-0.215,-0.149 -0.495,-0.209q-0.281,-0.061 -0.6,-0.061a7.209,7.209 0 0 0 -0.421,0.012q-0.206,0.012 -0.385,0.036a3.587,3.587 0 0 0 -0.206,0.035a4.296,4.296 0 0 0 -0.268,0.061q-0.126,0.033 -0.232,0.071a1.839,1.839 0 0 0 -0.171,0.071l-0.242,-0.726q0.218,-0.12 0.783,-0.245a9.696,9.696 0 0 1 0.009,-0.002q0.572,-0.127 1.287,-0.127q0.44,0 0.864,0.094a2.417,2.417 0 0 1 0.557,0.194a2.155,2.155 0 0 1 0.202,0.114a1.584,1.584 0 0 1 0.526,0.56a1.852,1.852 0 0 1 0.013,0.023a1.556,1.556 0 0 1 0.157,0.432q0.04,0.187 0.045,0.404a2.766,2.766 0 0 1 0.001,0.071q0,0.55 -0.363,1.051a1.789,1.789 0 0 1 -0.596,0.516a2.553,2.553 0 0 1 -0.493,0.204l0,0.044q0.781,0.11 1.232,0.583q0.451,0.473 0.451,1.265a2.681,2.681 0 0 1 -0.047,0.516a1.983,1.983 0 0 1 -0.201,0.568q-0.247,0.456 -0.648,0.753a2.637,2.637 0 0 1 -0.78,0.393a3.065,3.065 0 0 1 -0.144,0.042q-0.523,0.137 -1.062,0.137a10.57,10.57 0 0 1 -0.469,-0.01q-0.418,-0.018 -0.724,-0.072q-0.468,-0.083 -0.776,-0.204l0.231,-0.825a1.784,1.784 0 0 0 0.188,0.076q0.215,0.074 0.522,0.133q0.354,0.068 0.826,0.084a8.656,8.656 0 0 0 0.279,0.004q0.341,0 0.671,-0.093a1.819,1.819 0 0 0 0.506,-0.229a1.702,1.702 0 0 0 0.083,-0.057q0.258,-0.193 0.418,-0.479a1.228,1.228 0 0 0 0.133,-0.378a1.673,1.673 0 0 0 0.026,-0.304a1.567,1.567 0 0 0 -0.047,-0.397a1.037,1.037 0 0 0 -0.437,-0.62a2.032,2.032 0 0 0 -0.519,-0.245q-0.238,-0.076 -0.519,-0.113a3.909,3.909 0 0 0 -0.227,-0.022a7.554,7.554 0 0 0 -0.159,-0.012a6.152,6.152 0 0 0 -0.088,-0.004q-0.116,-0.006 -0.237,-0.006zm19.305,-1.859l1.32,3.564l0.308,1.056l0.055,0l0.242,-1.067l1.067,-3.553l0.891,0l-1.628,4.939a106.646,106.646 0 0 1 -0.346,0.982a96.489,96.489 0 0 1 -0.023,0.063a6.852,6.852 0 0 1 -0.21,0.521a5.297,5.297 0 0 1 -0.191,0.381q-0.212,0.382 -0.476,0.616a1.692,1.692 0 0 1 -0.019,0.017q-0.275,0.236 -0.638,0.236a2.361,2.361 0 0 1 -0.255,-0.013q-0.228,-0.025 -0.394,-0.097l0.154,-0.759a0.855,0.855 0 0 0 0.149,0.043a0.682,0.682 0 0 0 0.126,0.012q0.26,0 0.504,-0.231a1.431,1.431 0 0 0 0.09,-0.093a1.341,1.341 0 0 0 0.169,-0.249q0.144,-0.265 0.256,-0.678a5.878,5.878 0 0 0 0.048,-0.19l-2.211,-5.5l1.012,0zm22.902,5.5l1.98,-2.816l-1.848,-2.684l1.078,0l1.045,1.518l0.308,0.627l0.319,-0.627l1.067,-1.518l0.99,0l-1.859,2.64l1.969,2.86l-1.045,0l-1.166,-1.672l-0.33,-0.66l-0.341,0.66l-1.188,1.672l-0.979,0zm-37.356,-4.433l-0.275,-0.66a2.909,2.909 0 0 1 0.576,-0.265a3.689,3.689 0 0 1 0.398,-0.109q0.555,-0.121 1.16,-0.121a3.47,3.47 0 0 1 0.359,0.017q0.175,0.019 0.322,0.056a1.489,1.489 0 0 1 0.238,0.081a1.574,1.574 0 0 1 0.262,0.147q0.159,0.111 0.264,0.252a1.022,1.022 0 0 1 0.001,0.003q0.182,0.247 0.243,0.544q0.06,0.297 0.06,0.594q0,0.66 -0.033,1.287q-0.033,0.627 -0.033,1.188a8.971,8.971 0 0 0 0.016,0.539a7.6,7.6 0 0 0 0.017,0.231a3.919,3.919 0 0 0 0.063,0.432a3.231,3.231 0 0 0 0.058,0.239l-0.649,0l-0.231,-0.77l-0.055,0a1.694,1.694 0 0 1 -0.143,0.19a2.089,2.089 0 0 1 -0.104,0.113a1.489,1.489 0 0 1 -0.227,0.184a1.821,1.821 0 0 1 -0.131,0.08a2.007,2.007 0 0 1 -0.256,0.117a2.632,2.632 0 0 1 -0.228,0.075a1.991,1.991 0 0 1 -0.294,0.058q-0.157,0.019 -0.333,0.019a1.985,1.985 0 0 1 -0.461,-0.052a1.755,1.755 0 0 1 -0.193,-0.058q-0.303,-0.11 -0.523,-0.313q-0.22,-0.204 -0.346,-0.49a1.47,1.47 0 0 1 -0.112,-0.409a1.876,1.876 0 0 1 -0.015,-0.24a1.962,1.962 0 0 1 0.03,-0.354q0.047,-0.257 0.168,-0.454q0.198,-0.325 0.556,-0.517q0.346,-0.187 0.827,-0.27a3.864,3.864 0 0 1 0.031,-0.005q0.5,-0.083 1.105,-0.083l0.303,0q0.148,0 0.302,0.022a7.209,7.209 0 0 0 0.024,-0.295q0.008,-0.139 0.009,-0.264a4.328,4.328 0 0 0 0,-0.035q0,-0.605 -0.242,-0.847a0.657,0.657 0 0 0 -0.213,-0.138q-0.203,-0.085 -0.521,-0.101a3.007,3.007 0 0 0 -0.146,-0.003a2.908,2.908 0 0 0 -0.238,0.01a3.617,3.617 0 0 0 -0.164,0.018a4.984,4.984 0 0 0 -0.383,0.064a5.499,5.499 0 0 0 -0.056,0.013a3.709,3.709 0 0 0 -0.378,0.103a3.354,3.354 0 0 0 -0.052,0.018q-0.203,0.071 -0.357,0.159zm32.626,0l-0.275,-0.66a2.909,2.909 0 0 1 0.576,-0.265a3.689,3.689 0 0 1 0.398,-0.109q0.555,-0.121 1.16,-0.121a3.47,3.47 0 0 1 0.359,0.017q0.175,0.019 0.322,0.056a1.489,1.489 0 0 1 0.238,0.081a1.574,1.574 0 0 1 0.262,0.147q0.159,0.111 0.264,0.252a1.022,1.022 0 0 1 0.001,0.003q0.182,0.247 0.243,0.544q0.06,0.297 0.06,0.594q0,0.66 -0.033,1.287q-0.033,0.627 -0.033,1.188a8.971,8.971 0 0 0 0.016,0.539a7.6,7.6 0 0 0 0.017,0.231a3.919,3.919 0 0 0 0.063,0.432a3.231,3.231 0 0 0 0.058,0.239l-0.649,0l-0.231,-0.77l-0.055,0a1.694,1.694 0 0 1 -0.143,0.19a2.089,2.089 0 0 1 -0.104,0.113a1.489,1.489 0 0 1 -0.227,0.184a1.821,1.821 0 0 1 -0.131,0.08a2.007,2.007 0 0 1 -0.256,0.117a2.632,2.632 0 0 1 -0.228,0.075a1.991,1.991 0 0 1 -0.294,0.058q-0.157,0.019 -0.333,0.019a1.985,1.985 0 0 1 -0.461,-0.052a1.755,1.755 0 0 1 -0.193,-0.058q-0.303,-0.11 -0.523,-0.313q-0.22,-0.204 -0.346,-0.49a1.47,1.47 0 0 1 -0.112,-0.409a1.876,1.876 0 0 1 -0.015,-0.24a1.962,1.962 0 0 1 0.03,-0.354q0.047,-0.257 0.168,-0.454q0.198,-0.325 0.556,-0.517q0.346,-0.187 0.827,-0.27a3.864,3.864 0 0 1 0.031,-0.005q0.5,-0.083 1.105,-0.083l0.303,0q0.148,0 0.302,0.022a7.209,7.209 0 0 0 0.024,-0.295q0.008,-0.139 0.009,-0.264a4.328,4.328 0 0 0 0,-0.035q0,-0.605 -0.242,-0.847a0.657,0.657 0 0 0 -0.213,-0.138q-0.203,-0.085 -0.521,-0.101a3.007,3.007 0 0 0 -0.146,-0.003a2.908,2.908 0 0 0 -0.238,0.01a3.617,3.617 0 0 0 -0.164,0.018a4.984,4.984 0 0 0 -0.383,0.064a5.499,5.499 0 0 0 -0.056,0.013a3.709,3.709 0 0 0 -0.378,0.103a3.354,3.354 0 0 0 -0.052,0.018q-0.203,0.071 -0.357,0.159zm-27.357,6.633l0,-7.7l0.605,0l0.165,0.66l0.044,0q0.253,-0.385 0.655,-0.588a1.875,1.875 0 0 1 0.606,-0.184a2.378,2.378 0 0 1 0.312,-0.02a2.955,2.955 0 0 1 0.633,0.063q0.397,0.088 0.691,0.295a1.624,1.624 0 0 1 0.315,0.291q0.493,0.593 0.535,1.876a7.498,7.498 0 0 1 0.004,0.247q0,0.693 -0.181,1.249a3.036,3.036 0 0 1 -0.235,0.542a2.448,2.448 0 0 1 -0.277,0.398q-0.33,0.385 -0.797,0.594a2.412,2.412 0 0 1 -0.761,0.196a2.932,2.932 0 0 1 -0.279,0.013a5.46,5.46 0 0 1 -0.238,-0.005q-0.243,-0.01 -0.405,-0.044q-0.23,-0.048 -0.495,-0.163a3.567,3.567 0 0 1 -0.017,-0.008l0,2.288l-0.88,0zm17.413,-3.234l0.286,0.671q-0.33,0.242 -0.781,0.369a3.477,3.477 0 0 1 -0.915,0.126a3.856,3.856 0 0 1 -0.031,0a3.327,3.327 0 0 1 -0.477,-0.032q-0.336,-0.049 -0.601,-0.171q-0.44,-0.204 -0.72,-0.583a2.29,2.29 0 0 1 -0.301,-0.561a2.922,2.922 0 0 1 -0.106,-0.352a4.592,4.592 0 0 1 -0.103,-0.637a5.93,5.93 0 0 1 -0.024,-0.546q0,-1.397 0.616,-2.139a1.997,1.997 0 0 1 1.195,-0.691a3.007,3.007 0 0 1 0.576,-0.052a5.679,5.679 0 0 1 0.374,0.012q0.182,0.012 0.341,0.036a2.807,2.807 0 0 1 0.182,0.035a2.938,2.938 0 0 1 0.432,0.131a2.456,2.456 0 0 1 0.233,0.105l-0.253,0.759q-0.253,-0.143 -0.561,-0.225q-0.308,-0.083 -0.66,-0.083a1.615,1.615 0 0 0 -0.729,0.153q-0.675,0.338 -0.803,1.416a4.626,4.626 0 0 0 -0.03,0.543a3.823,3.823 0 0 0 0.054,0.654a3.45,3.45 0 0 0 0.028,0.144a2.088,2.088 0 0 0 0.147,0.44a1.793,1.793 0 0 0 0.129,0.231q0.192,0.291 0.506,0.467q0.289,0.163 0.706,0.175a2.339,2.339 0 0 0 0.069,0.001q0.396,0 0.71,-0.121a2.617,2.617 0 0 0 0.235,-0.104q0.158,-0.08 0.276,-0.171zm4.829,-4.466l0,0.77l-1.727,0l0,4.73l-0.88,0l0,-4.73l-1.727,0l0,-0.77l4.334,0zm4.081,0l0,0.77l-2.332,0l0,4.73l-0.88,0l0,-5.5l3.212,0zm-25.443,1.815l0,2.728a1.463,1.463 0 0 0 0.427,0.229a1.652,1.652 0 0 0 0.024,0.008q0.17,0.055 0.414,0.073a3.468,3.468 0 0 0 0.257,0.009a1.634,1.634 0 0 0 0.575,-0.097a1.427,1.427 0 0 0 0.629,-0.469a1.832,1.832 0 0 0 0.295,-0.567q0.151,-0.46 0.151,-1.1a4.605,4.605 0 0 0 -0.019,-0.43a3.507,3.507 0 0 0 -0.058,-0.389a2.117,2.117 0 0 0 -0.093,-0.322a1.567,1.567 0 0 0 -0.154,-0.305q-0.171,-0.259 -0.44,-0.402a1.158,1.158 0 0 0 -0.302,-0.107q-0.166,-0.036 -0.364,-0.036q-0.462,0 -0.763,0.198a1.014,1.014 0 0 0 -0.123,0.094q-0.267,0.24 -0.404,0.687a2.62,2.62 0 0 0 -0.052,0.198zm-3.432,2.134l0,-0.913q-0.154,-0.011 -0.313,-0.016q-0.16,-0.006 -0.314,-0.006q-0.341,0 -0.665,0.039a2.454,2.454 0 0 0 -0.301,0.053a1.824,1.824 0 0 0 -0.272,0.09a1.124,1.124 0 0 0 -0.228,0.128a0.911,0.911 0 0 0 -0.168,0.158a0.648,0.648 0 0 0 -0.136,0.308a0.888,0.888 0 0 0 -0.012,0.148a0.879,0.879 0 0 0 0.06,0.331a0.81,0.81 0 0 0 0.215,0.302a0.951,0.951 0 0 0 0.499,0.232a1.308,1.308 0 0 0 0.205,0.015a1.967,1.967 0 0 0 0.29,-0.02a1.481,1.481 0 0 0 0.26,-0.062a1.794,1.794 0 0 0 0.238,-0.101a1.398,1.398 0 0 0 0.18,-0.108a1.427,1.427 0 0 0 0.195,-0.168a1.199,1.199 0 0 0 0.097,-0.113a1.52,1.52 0 0 0 0.089,-0.133q0.044,-0.073 0.073,-0.144a0.914,0.914 0 0 0 0.008,-0.02zm32.626,0l0,-0.913q-0.154,-0.011 -0.313,-0.016q-0.16,-0.006 -0.314,-0.006q-0.341,0 -0.665,0.039a2.454,2.454 0 0 0 -0.301,0.053a1.824,1.824 0 0 0 -0.272,0.09a1.124,1.124 0 0 0 -0.228,0.128a0.911,0.911 0 0 0 -0.168,0.158a0.648,0.648 0 0 0 -0.136,0.308a0.888,0.888 0 0 0 -0.012,0.148a0.879,0.879 0 0 0 0.06,0.331a0.81,0.81 0 0 0 0.215,0.302a0.951,0.951 0 0 0 0.499,0.232a1.308,1.308 0 0 0 0.205,0.015a1.967,1.967 0 0 0 0.29,-0.02a1.481,1.481 0 0 0 0.26,-0.062a1.794,1.794 0 0 0 0.238,-0.101a1.398,1.398 0 0 0 0.18,-0.108a1.427,1.427 0 0 0 0.195,-0.168a1.199,1.199 0 0 0 0.097,-0.113a1.52,1.52 0 0 0 0.089,-0.133q0.044,-0.073 0.073,-0.144a0.914,0.914 0 0 0 0.008,-0.02z"/>
  </g>
  <g id="svg_6" fill="#fefefe" transform="rotate(5.305995464324951 89.77165222167964,15.940255165100105) " stroke="null">
   <path id="svg_7" d="m98.96129,7.68377l0,16.51402c0,0.77715 -0.61221,1.40964 -1.36454,1.40964l-15.64958,0c-0.75296,0 -1.36518,-0.63249 -1.36518,-1.40964l0,-16.51402c0,-0.77735 0.61221,-1.40977 1.36518,-1.40977l15.64958,0c0.75232,-0.0004 1.36454,0.63242 1.36454,1.40977zm3.64931,-2.70222l0,21.91721c0,1.3999 -1.099,2.53471 -2.45372,2.53471l-20.77046,0c-1.35473,0 -2.45372,-1.13487 -2.45372,-2.53471l0,-21.91721c0,-1.39957 1.099,-2.53451 2.45372,-2.53451l20.77046,0c1.35473,0.0004 2.45372,1.13527 2.45372,2.53451zm-2.68177,2.70222c0,-1.32801 -1.04638,-2.40925 -2.33214,-2.40925l-15.64952,0c-1.28596,0 -2.33272,1.08091 -2.33272,2.40925l0,16.51402c0,1.3278 1.04631,2.40912 2.33272,2.40912l15.64958,0c1.28538,0 2.33214,-1.08091 2.33214,-2.40912l0,-16.51402l-0.00006,0l-0.00001,0l0.00001,0z" stroke="null"/>
  </g>
  <g stroke="null" transform="rotate(5 89.72212982177737,16.03198051452637) " id="svg_8" fill="#707070">
   <path stroke="null" id="svg_2" d="m84.73597,24.59936l4.98616,-17.13476l4.98616,17.13476l-13.07181,-10.5965l16.17131,0"/>
  </g>
</svg>