<svg xmlns="http://www.w3.org/2000/svg" width="105" height="31">
  <defs>
    <linearGradient id="grad1" x1="0%" y1="0%" x2="0%" y2="100%">
      <stop offset="0%" style="stop-color:rgb(37,198,208);stop-opacity:1" />
      <stop offset="100%" style="stop-color:rgb(29, 157, 165);stop-opacity:1" />
    </linearGradient>
  </defs>
  <rect x="2" y="3" rx="10" ry="10" width="88" height="25"  fill="url(#grad1)" stroke="#19888f" stroke-width="1" />
  <g fill="#fff" stroke="#fff" stroke-width="0.15mm" font-size="9pt" fill-rule="evenodd" stroke-linecap="round" id="svgGroup">
   <path id="svg_3" d="m24.618,14.42l0,0.957q0.308,-0.462 0.776,-0.776a1.856,1.856 0 0 1 0.913,-0.307a2.305,2.305 0 0 1 0.17,-0.006q0.682,0 1.111,0.324a1.737,1.737 0 0 1 0.552,0.716a2.172,2.172 0 0 1 0.064,0.17q0.341,-0.506 0.809,-0.858a1.724,1.724 0 0 1 0.746,-0.317a2.359,2.359 0 0 1 0.414,-0.035a2.346,2.346 0 0 1 0.401,0.033a1.725,1.725 0 0 1 0.407,0.121q0.347,0.154 0.578,0.434a1.796,1.796 0 0 1 0.279,0.477a2.187,2.187 0 0 1 0.067,0.195q0.116,0.39 0.116,0.863l0,3.729l-0.99,0l0,-3.652a2.095,2.095 0 0 0 -0.037,-0.406q-0.064,-0.323 -0.238,-0.557a0.877,0.877 0 0 0 -0.639,-0.362a1.175,1.175 0 0 0 -0.12,-0.006q-0.253,0 -0.484,0.099a1.82,1.82 0 0 0 -0.387,0.228a2.06,2.06 0 0 0 -0.053,0.041a2.818,2.818 0 0 0 -0.325,0.314a3.211,3.211 0 0 0 -0.071,0.082q-0.187,0.226 -0.341,0.468l0,3.751l-0.99,0l0,-3.652a2.095,2.095 0 0 0 -0.037,-0.406q-0.064,-0.323 -0.238,-0.557a0.877,0.877 0 0 0 -0.639,-0.362a1.175,1.175 0 0 0 -0.12,-0.006q-0.242,0 -0.473,0.093a1.855,1.855 0 0 0 -0.364,0.2a2.128,2.128 0 0 0 -0.082,0.059q-0.214,0.165 -0.401,0.385q-0.187,0.22 -0.341,0.462l0,3.784l-0.99,0l0,-5.72l0.957,0zm-8.151,5.39l-0.979,0.462l-0.957,-2.09q-0.363,-0.781 -0.913,-1.111q-0.479,-0.287 -1.192,-0.325a4.163,4.163 0 0 0 -0.216,-0.005l-0.165,0l0,3.399l-1.045,0l0,-7.678a30.413,30.413 0 0 1 0.715,-0.058a24.954,24.954 0 0 1 0.401,-0.024q0.523,-0.028 1.139,-0.028a5.658,5.658 0 0 1 0.582,0.028q0.353,0.037 0.65,0.12a3.008,3.008 0 0 1 0.449,0.164a2.19,2.19 0 0 1 0.431,0.26q0.352,0.275 0.533,0.649a1.828,1.828 0 0 1 0.178,0.7a2.165,2.165 0 0 1 0.004,0.125a2.187,2.187 0 0 1 -0.072,0.574a1.614,1.614 0 0 1 -0.407,0.719q-0.478,0.489 -1.38,0.731a2.741,2.741 0 0 1 0.36,0.194a2.496,2.496 0 0 1 0.047,0.031a1.917,1.917 0 0 1 0.289,0.242a2.194,2.194 0 0 1 0.063,0.066q0.165,0.182 0.325,0.435a3.951,3.951 0 0 1 0.12,0.205q0.069,0.127 0.14,0.273a7.275,7.275 0 0 1 0.064,0.138l0.836,1.804zm38.665,0.418l-0.891,-0.363l3.014,-7.425l1.144,0l2.97,7.425l-0.957,0.385l-0.858,-2.2l-3.564,0l-0.858,2.178zm13.475,-0.55l0.418,-0.825a1.914,1.914 0 0 0 0.369,0.253a2.565,2.565 0 0 0 0.351,0.154a2.727,2.727 0 0 0 0.822,0.152a3.12,3.12 0 0 0 0.108,0.002a2.982,2.982 0 0 0 0.339,-0.018q0.351,-0.04 0.567,-0.171a0.851,0.851 0 0 0 0.024,-0.015a0.819,0.819 0 0 0 0.168,-0.142a0.556,0.556 0 0 0 0.145,-0.38a0.793,0.793 0 0 0 -0.042,-0.26a0.748,0.748 0 0 0 -0.018,-0.048a0.591,0.591 0 0 0 -0.079,-0.132q-0.043,-0.055 -0.101,-0.108a1.12,1.12 0 0 0 -0.04,-0.035a1.385,1.385 0 0 0 -0.136,-0.098q-0.127,-0.081 -0.299,-0.161a5.417,5.417 0 0 0 -0.209,-0.09q-0.108,-0.044 -0.235,-0.092a12.715,12.715 0 0 0 -0.271,-0.098q-0.814,-0.275 -1.21,-0.655a1.248,1.248 0 0 1 -0.355,-0.65a1.864,1.864 0 0 1 -0.041,-0.4q0,-0.33 0.149,-0.616a1.457,1.457 0 0 1 0.328,-0.418a1.737,1.737 0 0 1 0.1,-0.083q0.281,-0.214 0.683,-0.335a2.746,2.746 0 0 1 0.455,-0.094a3.775,3.775 0 0 1 0.463,-0.027q0.512,0 0.909,0.096a2.692,2.692 0 0 1 0.075,0.02a4.24,4.24 0 0 1 0.474,0.158a3.466,3.466 0 0 1 0.291,0.133l-0.275,0.814a2.698,2.698 0 0 0 -0.403,-0.194a3.321,3.321 0 0 0 -0.273,-0.092a2.753,2.753 0 0 0 -0.494,-0.093a3.502,3.502 0 0 0 -0.348,-0.017q-0.367,0 -0.621,0.095a0.936,0.936 0 0 0 -0.248,0.136q-0.197,0.153 -0.263,0.326a0.498,0.498 0 0 0 -0.034,0.18a0.612,0.612 0 0 0 0.021,0.164a0.542,0.542 0 0 0 0.028,0.078a0.432,0.432 0 0 0 0.064,0.099q0.047,0.057 0.118,0.11q0.098,0.074 0.246,0.148a2.833,2.833 0 0 0 0.106,0.05a4.192,4.192 0 0 0 0.18,0.076q0.164,0.064 0.37,0.133q0.539,0.187 0.913,0.379q0.334,0.173 0.555,0.376a1.725,1.725 0 0 1 0.05,0.048a1.522,1.522 0 0 1 0.213,0.264a1.253,1.253 0 0 1 0.117,0.237a1.607,1.607 0 0 1 0.087,0.379a2.008,2.008 0 0 1 0.012,0.22a1.543,1.543 0 0 1 -0.058,0.43a1.346,1.346 0 0 1 -0.107,0.263q-0.165,0.308 -0.462,0.522q-0.297,0.215 -0.72,0.331a3.232,3.232 0 0 1 -0.536,0.096a4.152,4.152 0 0 1 -0.405,0.019a4.521,4.521 0 0 1 -0.606,-0.039a3.357,3.357 0 0 1 -0.571,-0.126a3.379,3.379 0 0 1 -0.419,-0.163q-0.216,-0.103 -0.39,-0.229a2.038,2.038 0 0 1 -0.049,-0.037zm-2.464,-4.686l0,-2.992l0.99,0l0,6.754q0,0.345 0.139,0.492a0.326,0.326 0 0 0 0.065,0.052q0.203,0.127 0.445,0.127l-0.209,0.77q-1.032,0 -1.27,-0.816a1.475,1.475 0 0 1 -0.006,-0.02a2.285,2.285 0 0 1 -0.362,0.393a2.971,2.971 0 0 1 -0.32,0.24a1.637,1.637 0 0 1 -0.521,0.218q-0.218,0.052 -0.473,0.06a2.989,2.989 0 0 1 -0.095,0.002q-0.528,0 -0.996,-0.209q-0.467,-0.209 -0.814,-0.594a2.68,2.68 0 0 1 -0.432,-0.659a3.246,3.246 0 0 1 -0.112,-0.271a3.245,3.245 0 0 1 -0.168,-0.714a4.189,4.189 0 0 1 -0.03,-0.512a3.639,3.639 0 0 1 0.094,-0.839a3.201,3.201 0 0 1 0.109,-0.366q0.204,-0.555 0.551,-0.957q0.346,-0.401 0.808,-0.632q0.462,-0.231 0.979,-0.231a2.381,2.381 0 0 1 0.47,0.044a1.754,1.754 0 0 1 0.514,0.187q0.316,0.177 0.526,0.36a1.825,1.825 0 0 1 0.118,0.113zm-43.835,2.695l-4.004,0a2.65,2.65 0 0 0 0.125,0.553q0.147,0.419 0.436,0.701q0.462,0.451 1.221,0.451q0.495,0 0.891,-0.105q0.396,-0.104 0.759,-0.269l0.231,0.847a3.895,3.895 0 0 1 -0.53,0.203a4.869,4.869 0 0 1 -0.361,0.094a4.478,4.478 0 0 1 -0.56,0.086a6.007,6.007 0 0 1 -0.551,0.024a3.21,3.21 0 0 1 -0.638,-0.061a2.597,2.597 0 0 1 -0.473,-0.143q-0.495,-0.203 -0.842,-0.583a2.434,2.434 0 0 1 -0.401,-0.605a3.033,3.033 0 0 1 -0.132,-0.33a3.474,3.474 0 0 1 -0.149,-0.655a4.709,4.709 0 0 1 -0.038,-0.615a3.837,3.837 0 0 1 0.088,-0.836a3.366,3.366 0 0 1 0.099,-0.352a3.047,3.047 0 0 1 0.31,-0.654a2.657,2.657 0 0 1 0.218,-0.298q0.341,-0.401 0.814,-0.627q0.473,-0.225 1.056,-0.225a3.07,3.07 0 0 1 0.539,0.045a2.268,2.268 0 0 1 0.539,0.164a2.205,2.205 0 0 1 0.628,0.421a2.072,2.072 0 0 1 0.142,0.151q0.308,0.363 0.462,0.847a3.338,3.338 0 0 1 0.154,0.973a3.746,3.746 0 0 1 0,0.05q0,0.385 -0.033,0.748zm28.05,0l-4.004,0a2.65,2.65 0 0 0 0.125,0.553q0.147,0.419 0.436,0.701q0.462,0.451 1.221,0.451q0.495,0 0.891,-0.105q0.396,-0.104 0.759,-0.269l0.231,0.847a3.895,3.895 0 0 1 -0.53,0.203a4.869,4.869 0 0 1 -0.361,0.094a4.478,4.478 0 0 1 -0.56,0.086a6.007,6.007 0 0 1 -0.551,0.024a3.21,3.21 0 0 1 -0.638,-0.061a2.597,2.597 0 0 1 -0.473,-0.143q-0.495,-0.203 -0.841,-0.583a2.434,2.434 0 0 1 -0.402,-0.605a3.033,3.033 0 0 1 -0.132,-0.33a3.474,3.474 0 0 1 -0.149,-0.655a4.709,4.709 0 0 1 -0.038,-0.615a3.837,3.837 0 0 1 0.088,-0.836a3.366,3.366 0 0 1 0.099,-0.352a3.047,3.047 0 0 1 0.31,-0.654a2.657,2.657 0 0 1 0.218,-0.298q0.341,-0.401 0.814,-0.627q0.473,-0.225 1.056,-0.225a3.07,3.07 0 0 1 0.539,0.045a2.268,2.268 0 0 1 0.539,0.164a2.205,2.205 0 0 1 0.628,0.421a2.072,2.072 0 0 1 0.142,0.151q0.308,0.363 0.462,0.847a3.338,3.338 0 0 1 0.154,0.973a3.746,3.746 0 0 1 0,0.05q0,0.385 -0.033,0.748zm-8.745,2.453l-2.299,-5.456l0.902,-0.374l1.947,4.708l1.947,-4.708l0.847,0.374l-2.31,5.456l-1.034,0zm-8.327,-2.86q0,-0.693 0.22,-1.249a2.948,2.948 0 0 1 0.337,-0.627a2.559,2.559 0 0 1 0.262,-0.313q0.38,-0.385 0.903,-0.594q0.522,-0.209 1.127,-0.209q0.594,0 1.117,0.209q0.522,0.209 0.907,0.594a2.686,2.686 0 0 1 0.532,0.767a3.159,3.159 0 0 1 0.073,0.168a3.059,3.059 0 0 1 0.194,0.779a3.842,3.842 0 0 1 0.026,0.453a3.748,3.748 0 0 1 -0.068,0.727a3.06,3.06 0 0 1 -0.146,0.511a2.878,2.878 0 0 1 -0.397,0.716a2.621,2.621 0 0 1 -0.203,0.235q-0.385,0.396 -0.907,0.611a2.908,2.908 0 0 1 -1.015,0.212a3.35,3.35 0 0 1 -0.113,0.002a3.024,3.024 0 0 1 -0.803,-0.104a2.711,2.711 0 0 1 -0.335,-0.116q-0.523,-0.22 -0.902,-0.616a2.798,2.798 0 0 1 -0.538,-0.811a3.24,3.24 0 0 1 -0.056,-0.135a3.159,3.159 0 0 1 -0.201,-0.877a3.817,3.817 0 0 1 -0.014,-0.333zm4.686,0q0,-0.429 -0.137,-0.814a2.152,2.152 0 0 0 -0.262,-0.512a1.949,1.949 0 0 0 -0.123,-0.159q-0.248,-0.286 -0.583,-0.457q-0.336,-0.17 -0.732,-0.17a2.117,2.117 0 0 0 -0.575,0.074a1.544,1.544 0 0 0 -0.778,0.498a1.967,1.967 0 0 0 -0.404,0.811q-0.073,0.292 -0.079,0.635a3.616,3.616 0 0 0 -0.001,0.072q0,0.429 0.138,0.819a2.214,2.214 0 0 0 0.254,0.511a1.997,1.997 0 0 0 0.13,0.172q0.248,0.291 0.584,0.461q0.335,0.171 0.731,0.171a2.056,2.056 0 0 0 0.431,-0.043a1.67,1.67 0 0 0 0.339,-0.111q0.341,-0.154 0.577,-0.435q0.237,-0.28 0.363,-0.665q0.127,-0.385 0.127,-0.858zm28.171,1.419l0,-2.838a1.79,1.79 0 0 0 -0.24,-0.247q-0.124,-0.106 -0.279,-0.206a3.113,3.113 0 0 0 -0.058,-0.037a1.545,1.545 0 0 0 -0.77,-0.224a1.856,1.856 0 0 0 -0.061,-0.001a1.646,1.646 0 0 0 -0.478,0.068a1.473,1.473 0 0 0 -0.242,0.097q-0.325,0.165 -0.556,0.451a1.93,1.93 0 0 0 -0.285,0.488a2.316,2.316 0 0 0 -0.067,0.189a2.731,2.731 0 0 0 -0.114,0.633a3.211,3.211 0 0 0 -0.007,0.208a2.815,2.815 0 0 0 0.047,0.521a2.334,2.334 0 0 0 0.085,0.326a2.184,2.184 0 0 0 0.206,0.44a1.882,1.882 0 0 0 0.162,0.226q0.237,0.28 0.562,0.439q0.324,0.16 0.698,0.16q0.407,0 0.775,-0.193q0.369,-0.192 0.622,-0.5zm-8.371,-5.225l-1.452,3.696l2.893,0l-1.441,-3.696zm-45.727,-0.198l0,2.585l1.21,0a2.914,2.914 0 0 0 0.542,-0.047q0.317,-0.061 0.57,-0.197a1.644,1.644 0 0 0 0.175,-0.108a1.132,1.132 0 0 0 0.485,-0.828a1.596,1.596 0 0 0 0.01,-0.184q0,-0.55 -0.462,-0.908a1.532,1.532 0 0 0 -0.48,-0.244q-0.212,-0.067 -0.469,-0.094a3.514,3.514 0 0 0 -0.371,-0.019q-0.374,0 -0.671,0.011q-0.297,0.011 -0.539,0.033zm6.248,3.608l3.135,0q0,-0.836 -0.418,-1.287a1.374,1.374 0 0 0 -0.766,-0.415a2.023,2.023 0 0 0 -0.389,-0.036a1.561,1.561 0 0 0 -0.523,0.084a1.344,1.344 0 0 0 -0.538,0.356a1.621,1.621 0 0 0 -0.308,0.485q-0.09,0.215 -0.143,0.479a3.552,3.552 0 0 0 -0.05,0.334zm28.05,0l3.135,0q0,-0.836 -0.418,-1.287a1.374,1.374 0 0 0 -0.766,-0.415a2.023,2.023 0 0 0 -0.389,-0.036a1.561,1.561 0 0 0 -0.523,0.084a1.344,1.344 0 0 0 -0.538,0.356a1.621,1.621 0 0 0 -0.308,0.485q-0.09,0.215 -0.143,0.479a3.552,3.552 0 0 0 -0.05,0.334z"/>
  </g>
  <g id="svg_6" fill="#fefefe" transform="rotate(5.305995464324951 89.77165222167964,15.940255165100105) " stroke="null">
   <path id="svg_7" d="m98.96129,7.68377l0,16.51402c0,0.77715 -0.61221,1.40964 -1.36454,1.40964l-15.64958,0c-0.75296,0 -1.36518,-0.63249 -1.36518,-1.40964l0,-16.51402c0,-0.77735 0.61221,-1.40977 1.36518,-1.40977l15.64958,0c0.75232,-0.0004 1.36454,0.63242 1.36454,1.40977zm3.64931,-2.70222l0,21.91721c0,1.3999 -1.099,2.53471 -2.45372,2.53471l-20.77046,0c-1.35473,0 -2.45372,-1.13487 -2.45372,-2.53471l0,-21.91721c0,-1.39957 1.099,-2.53451 2.45372,-2.53451l20.77046,0c1.35473,0.0004 2.45372,1.13527 2.45372,2.53451zm-2.68177,2.70222c0,-1.32801 -1.04638,-2.40925 -2.33214,-2.40925l-15.64952,0c-1.28596,0 -2.33272,1.08091 -2.33272,2.40925l0,16.51402c0,1.3278 1.04631,2.40912 2.33272,2.40912l15.64958,0c1.28538,0 2.33214,-1.08091 2.33214,-2.40912l0,-16.51402l-0.00006,0l-0.00001,0l0.00001,0z" stroke="null"/>
  </g>
  <g stroke="null" transform="rotate(5 89.72212982177737,16.03198051452637) " id="svg_8" fill="#707070">
   <path stroke="null" id="svg_2" d="m84.73597,24.59936l4.98616,-17.13476l4.98616,17.13476l-13.07181,-10.5965l16.17131,0"/>
  </g>
</svg>